<?xml version="1.0" encoding="utf-8" standalone="no"?>
<!DOCTYPE svg PUBLIC "-//W3C//DTD SVG 1.1//EN"
  "http://www.w3.org/Graphics/SVG/1.1/DTD/svg11.dtd">
<!-- Created with matplotlib (https://matplotlib.org/) -->
<svg height="542.234062pt" version="1.1" viewBox="0 0 568.761562 542.234062" width="568.761562pt" xmlns="http://www.w3.org/2000/svg" xmlns:xlink="http://www.w3.org/1999/xlink">
 <metadata>
  <rdf:RDF xmlns:cc="http://creativecommons.org/ns#" xmlns:dc="http://purl.org/dc/elements/1.1/" xmlns:rdf="http://www.w3.org/1999/02/22-rdf-syntax-ns#">
   <cc:Work>
    <dc:type rdf:resource="http://purl.org/dc/dcmitype/StillImage"/>
    <dc:date>2021-02-27T18:56:46.367125</dc:date>
    <dc:format>image/svg+xml</dc:format>
    <dc:creator>
     <cc:Agent>
      <dc:title>Matplotlib v3.3.2, https://matplotlib.org/</dc:title>
     </cc:Agent>
    </dc:creator>
   </cc:Work>
  </rdf:RDF>
 </metadata>
 <defs>
  <style type="text/css">*{stroke-linecap:butt;stroke-linejoin:round;}</style>
 </defs>
 <g id="figure_1">
  <g id="patch_1">
   <path d="M 0 542.234062 
L 568.761562 542.234062 
L 568.761562 0 
L 0 0 
z
" style="fill:#ffffff;"/>
  </g>
  <g id="axes_1">
   <g id="patch_2">
    <path d="M 59.361562 496.44 
L 561.561563 496.44 
L 561.561563 7.2 
L 59.361562 7.2 
z
" style="fill:#eeeeee;"/>
   </g>
   <g id="matplotlib.axis_1">
    <g id="xtick_1">
     <g id="line2d_1">
      <path clip-path="url(#pc2b4b90cdb)" d="M 59.361562 496.44 
L 59.361562 7.2 
" style="fill:none;stroke:#b2b2b2;stroke-dasharray:1.85,0.8;stroke-dashoffset:0;stroke-width:0.5;"/>
     </g>
     <g id="line2d_2"/>
     <g id="text_1">
      <!-- 0 -->
      <g style="fill:#262626;" transform="translate(54.356719 512.824062)scale(0.18 -0.18)">
       <defs>
        <path d="M 4.15625 35.296875 
Q 4.15625 48 6.765625 55.734375 
Q 9.375 63.484375 14.515625 67.671875 
Q 19.671875 71.875 27.484375 71.875 
Q 33.25 71.875 37.59375 69.546875 
Q 41.9375 67.234375 44.765625 62.859375 
Q 47.609375 58.5 49.21875 52.21875 
Q 50.828125 45.953125 50.828125 35.296875 
Q 50.828125 22.703125 48.234375 14.96875 
Q 45.65625 7.234375 40.5 3 
Q 35.359375 -1.21875 27.484375 -1.21875 
Q 17.140625 -1.21875 11.234375 6.203125 
Q 4.15625 15.140625 4.15625 35.296875 
z
M 13.1875 35.296875 
Q 13.1875 17.671875 17.3125 11.828125 
Q 21.4375 6 27.484375 6 
Q 33.546875 6 37.671875 11.859375 
Q 41.796875 17.71875 41.796875 35.296875 
Q 41.796875 52.984375 37.671875 58.78125 
Q 33.546875 64.59375 27.390625 64.59375 
Q 21.34375 64.59375 17.71875 59.46875 
Q 13.1875 52.9375 13.1875 35.296875 
z
" id="ArialMT-48"/>
       </defs>
       <use xlink:href="#ArialMT-48"/>
      </g>
     </g>
    </g>
    <g id="xtick_2">
     <g id="line2d_3">
      <path clip-path="url(#pc2b4b90cdb)" d="M 150.670653 496.44 
L 150.670653 7.2 
" style="fill:none;stroke:#b2b2b2;stroke-dasharray:1.85,0.8;stroke-dashoffset:0;stroke-width:0.5;"/>
     </g>
     <g id="line2d_4"/>
     <g id="text_2">
      <!-- 20 -->
      <g style="fill:#262626;" transform="translate(140.660966 512.824062)scale(0.18 -0.18)">
       <defs>
        <path d="M 50.34375 8.453125 
L 50.34375 0 
L 3.03125 0 
Q 2.9375 3.171875 4.046875 6.109375 
Q 5.859375 10.9375 9.828125 15.625 
Q 13.8125 20.3125 21.34375 26.46875 
Q 33.015625 36.03125 37.109375 41.625 
Q 41.21875 47.21875 41.21875 52.203125 
Q 41.21875 57.421875 37.46875 61 
Q 33.734375 64.59375 27.734375 64.59375 
Q 21.390625 64.59375 17.578125 60.78125 
Q 13.765625 56.984375 13.71875 50.25 
L 4.6875 51.171875 
Q 5.609375 61.28125 11.65625 66.578125 
Q 17.71875 71.875 27.9375 71.875 
Q 38.234375 71.875 44.234375 66.15625 
Q 50.25 60.453125 50.25 52 
Q 50.25 47.703125 48.484375 43.546875 
Q 46.734375 39.40625 42.65625 34.8125 
Q 38.578125 30.21875 29.109375 22.21875 
Q 21.1875 15.578125 18.9375 13.203125 
Q 16.703125 10.84375 15.234375 8.453125 
z
" id="ArialMT-50"/>
       </defs>
       <use xlink:href="#ArialMT-50"/>
       <use x="55.615234" xlink:href="#ArialMT-48"/>
      </g>
     </g>
    </g>
    <g id="xtick_3">
     <g id="line2d_5">
      <path clip-path="url(#pc2b4b90cdb)" d="M 241.979744 496.44 
L 241.979744 7.2 
" style="fill:none;stroke:#b2b2b2;stroke-dasharray:1.85,0.8;stroke-dashoffset:0;stroke-width:0.5;"/>
     </g>
     <g id="line2d_6"/>
     <g id="text_3">
      <!-- 40 -->
      <g style="fill:#262626;" transform="translate(231.970057 512.824062)scale(0.18 -0.18)">
       <defs>
        <path d="M 32.328125 0 
L 32.328125 17.140625 
L 1.265625 17.140625 
L 1.265625 25.203125 
L 33.9375 71.578125 
L 41.109375 71.578125 
L 41.109375 25.203125 
L 50.78125 25.203125 
L 50.78125 17.140625 
L 41.109375 17.140625 
L 41.109375 0 
z
M 32.328125 25.203125 
L 32.328125 57.46875 
L 9.90625 25.203125 
z
" id="ArialMT-52"/>
       </defs>
       <use xlink:href="#ArialMT-52"/>
       <use x="55.615234" xlink:href="#ArialMT-48"/>
      </g>
     </g>
    </g>
    <g id="xtick_4">
     <g id="line2d_7">
      <path clip-path="url(#pc2b4b90cdb)" d="M 333.288835 496.44 
L 333.288835 7.2 
" style="fill:none;stroke:#b2b2b2;stroke-dasharray:1.85,0.8;stroke-dashoffset:0;stroke-width:0.5;"/>
     </g>
     <g id="line2d_8"/>
     <g id="text_4">
      <!-- 60 -->
      <g style="fill:#262626;" transform="translate(323.279148 512.824062)scale(0.18 -0.18)">
       <defs>
        <path d="M 49.75 54.046875 
L 41.015625 53.375 
Q 39.84375 58.546875 37.703125 60.890625 
Q 34.125 64.65625 28.90625 64.65625 
Q 24.703125 64.65625 21.53125 62.3125 
Q 17.390625 59.28125 14.984375 53.46875 
Q 12.59375 47.65625 12.5 36.921875 
Q 15.671875 41.75 20.265625 44.09375 
Q 24.859375 46.4375 29.890625 46.4375 
Q 38.671875 46.4375 44.84375 39.96875 
Q 51.03125 33.5 51.03125 23.25 
Q 51.03125 16.5 48.125 10.71875 
Q 45.21875 4.9375 40.140625 1.859375 
Q 35.0625 -1.21875 28.609375 -1.21875 
Q 17.625 -1.21875 10.6875 6.859375 
Q 3.765625 14.9375 3.765625 33.5 
Q 3.765625 54.25 11.421875 63.671875 
Q 18.109375 71.875 29.4375 71.875 
Q 37.890625 71.875 43.28125 67.140625 
Q 48.6875 62.40625 49.75 54.046875 
z
M 13.875 23.1875 
Q 13.875 18.65625 15.796875 14.5 
Q 17.71875 10.359375 21.1875 8.171875 
Q 24.65625 6 28.46875 6 
Q 34.03125 6 38.03125 10.484375 
Q 42.046875 14.984375 42.046875 22.703125 
Q 42.046875 30.125 38.078125 34.390625 
Q 34.125 38.671875 28.125 38.671875 
Q 22.171875 38.671875 18.015625 34.390625 
Q 13.875 30.125 13.875 23.1875 
z
" id="ArialMT-54"/>
       </defs>
       <use xlink:href="#ArialMT-54"/>
       <use x="55.615234" xlink:href="#ArialMT-48"/>
      </g>
     </g>
    </g>
    <g id="xtick_5">
     <g id="line2d_9">
      <path clip-path="url(#pc2b4b90cdb)" d="M 424.597926 496.44 
L 424.597926 7.2 
" style="fill:none;stroke:#b2b2b2;stroke-dasharray:1.85,0.8;stroke-dashoffset:0;stroke-width:0.5;"/>
     </g>
     <g id="line2d_10"/>
     <g id="text_5">
      <!-- 80 -->
      <g style="fill:#262626;" transform="translate(414.588239 512.824062)scale(0.18 -0.18)">
       <defs>
        <path d="M 17.671875 38.8125 
Q 12.203125 40.828125 9.5625 44.53125 
Q 6.9375 48.25 6.9375 53.421875 
Q 6.9375 61.234375 12.546875 66.546875 
Q 18.171875 71.875 27.484375 71.875 
Q 36.859375 71.875 42.578125 66.421875 
Q 48.296875 60.984375 48.296875 53.171875 
Q 48.296875 48.1875 45.671875 44.5 
Q 43.0625 40.828125 37.75 38.8125 
Q 44.34375 36.671875 47.78125 31.875 
Q 51.21875 27.09375 51.21875 20.453125 
Q 51.21875 11.28125 44.71875 5.03125 
Q 38.234375 -1.21875 27.640625 -1.21875 
Q 17.046875 -1.21875 10.546875 5.046875 
Q 4.046875 11.328125 4.046875 20.703125 
Q 4.046875 27.6875 7.59375 32.390625 
Q 11.140625 37.109375 17.671875 38.8125 
z
M 15.921875 53.71875 
Q 15.921875 48.640625 19.1875 45.40625 
Q 22.46875 42.1875 27.6875 42.1875 
Q 32.765625 42.1875 36.015625 45.375 
Q 39.265625 48.578125 39.265625 53.21875 
Q 39.265625 58.0625 35.90625 61.359375 
Q 32.5625 64.65625 27.59375 64.65625 
Q 22.5625 64.65625 19.234375 61.421875 
Q 15.921875 58.203125 15.921875 53.71875 
z
M 13.09375 20.65625 
Q 13.09375 16.890625 14.875 13.375 
Q 16.65625 9.859375 20.171875 7.921875 
Q 23.6875 6 27.734375 6 
Q 34.03125 6 38.125 10.046875 
Q 42.234375 14.109375 42.234375 20.359375 
Q 42.234375 26.703125 38.015625 30.859375 
Q 33.796875 35.015625 27.4375 35.015625 
Q 21.234375 35.015625 17.15625 30.90625 
Q 13.09375 26.8125 13.09375 20.65625 
z
" id="ArialMT-56"/>
       </defs>
       <use xlink:href="#ArialMT-56"/>
       <use x="55.615234" xlink:href="#ArialMT-48"/>
      </g>
     </g>
    </g>
    <g id="xtick_6">
     <g id="line2d_11">
      <path clip-path="url(#pc2b4b90cdb)" d="M 515.907017 496.44 
L 515.907017 7.2 
" style="fill:none;stroke:#b2b2b2;stroke-dasharray:1.85,0.8;stroke-dashoffset:0;stroke-width:0.5;"/>
     </g>
     <g id="line2d_12"/>
     <g id="text_6">
      <!-- 100 -->
      <g style="fill:#262626;" transform="translate(500.892486 512.824062)scale(0.18 -0.18)">
       <defs>
        <path d="M 37.25 0 
L 28.46875 0 
L 28.46875 56 
Q 25.296875 52.984375 20.140625 49.953125 
Q 14.984375 46.921875 10.890625 45.40625 
L 10.890625 53.90625 
Q 18.265625 57.375 23.78125 62.296875 
Q 29.296875 67.234375 31.59375 71.875 
L 37.25 71.875 
z
" id="ArialMT-49"/>
       </defs>
       <use xlink:href="#ArialMT-49"/>
       <use x="55.615234" xlink:href="#ArialMT-48"/>
       <use x="111.230469" xlink:href="#ArialMT-48"/>
      </g>
     </g>
    </g>
    <g id="text_7">
     <!-- $c_0$ -->
     <g style="fill:#262626;" transform="translate(303.661563 531.854062)scale(0.16 -0.16)">
      <defs>
       <path d="M 11.71875 11.921875 
Q 11.71875 7.5625 13.9375 4.53125 
Q 16.15625 1.515625 20.3125 1.515625 
Q 26.265625 1.515625 31.75 4.25 
Q 37.25 6.984375 40.71875 11.8125 
Q 41.015625 12.109375 41.5 12.109375 
Q 42 12.109375 42.5 11.546875 
Q 43.015625 10.984375 43.015625 10.5 
Q 43.015625 10.109375 42.828125 9.90625 
Q 39.15625 4.78125 32.953125 1.828125 
Q 26.765625 -1.125 20.125 -1.125 
Q 15.328125 -1.125 11.671875 1.140625 
Q 8.015625 3.421875 6 7.21875 
Q 4 11.03125 4 15.828125 
Q 4 22.5625 7.765625 29.203125 
Q 11.53125 35.84375 17.78125 40.015625 
Q 24.03125 44.1875 30.90625 44.1875 
Q 35.40625 44.1875 38.984375 42.015625 
Q 42.578125 39.84375 42.578125 35.59375 
Q 42.578125 32.859375 40.984375 30.921875 
Q 39.40625 29 36.71875 29 
Q 35.109375 29 34 30 
Q 32.90625 31 32.90625 32.625 
Q 32.90625 34.96875 34.609375 36.625 
Q 36.328125 38.28125 38.625 38.28125 
L 38.8125 38.28125 
Q 37.640625 39.984375 35.421875 40.796875 
Q 33.203125 41.609375 30.8125 41.609375 
Q 24.953125 41.609375 20.546875 36.59375 
Q 16.15625 31.59375 13.9375 24.625 
Q 11.71875 17.671875 11.71875 11.921875 
z
" id="Cmmi10-99"/>
       <path d="M 25 -2.203125 
Q 12.75 -2.203125 8.328125 7.875 
Q 3.90625 17.96875 3.90625 31.890625 
Q 3.90625 40.578125 5.484375 48.234375 
Q 7.078125 55.90625 11.78125 61.25 
Q 16.5 66.609375 25 66.609375 
Q 31.59375 66.609375 35.78125 63.375 
Q 39.984375 60.15625 42.1875 55.046875 
Q 44.390625 49.953125 45.1875 44.109375 
Q 46 38.28125 46 31.890625 
Q 46 23.296875 44.40625 15.796875 
Q 42.828125 8.296875 38.1875 3.046875 
Q 33.546875 -2.203125 25 -2.203125 
z
M 25 0.390625 
Q 30.5625 0.390625 33.296875 6.09375 
Q 36.03125 11.8125 36.671875 18.75 
Q 37.3125 25.6875 37.3125 33.5 
Q 37.3125 41.015625 36.671875 47.359375 
Q 36.03125 53.71875 33.3125 58.859375 
Q 30.609375 64.015625 25 64.015625 
Q 19.34375 64.015625 16.609375 58.828125 
Q 13.875 53.65625 13.234375 47.328125 
Q 12.59375 41.015625 12.59375 33.5 
Q 12.59375 27.9375 12.859375 23 
Q 13.140625 18.0625 14.3125 12.8125 
Q 15.484375 7.5625 18.09375 3.96875 
Q 20.703125 0.390625 25 0.390625 
z
" id="Cmr10-48"/>
      </defs>
      <use transform="translate(0 0.8125)" xlink:href="#Cmmi10-99"/>
      <use transform="translate(43.212891 -16.19375)scale(0.7)" xlink:href="#Cmr10-48"/>
     </g>
    </g>
   </g>
   <g id="matplotlib.axis_2">
    <g id="ytick_1">
     <g id="line2d_13">
      <path clip-path="url(#pc2b4b90cdb)" d="M 59.361562 496.44 
L 561.561563 496.44 
" style="fill:none;stroke:#b2b2b2;stroke-dasharray:1.85,0.8;stroke-dashoffset:0;stroke-width:0.5;"/>
     </g>
     <g id="line2d_14"/>
     <g id="text_8">
      <!-- 0 -->
      <g style="fill:#262626;" transform="translate(45.851875 502.882031)scale(0.18 -0.18)">
       <use xlink:href="#ArialMT-48"/>
      </g>
     </g>
    </g>
    <g id="ytick_2">
     <g id="line2d_15">
      <path clip-path="url(#pc2b4b90cdb)" d="M 59.361562 407.487273 
L 561.561563 407.487273 
" style="fill:none;stroke:#b2b2b2;stroke-dasharray:1.85,0.8;stroke-dashoffset:0;stroke-width:0.5;"/>
     </g>
     <g id="line2d_16"/>
     <g id="text_9">
      <!-- 20 -->
      <g style="fill:#262626;" transform="translate(35.842187 413.929304)scale(0.18 -0.18)">
       <use xlink:href="#ArialMT-50"/>
       <use x="55.615234" xlink:href="#ArialMT-48"/>
      </g>
     </g>
    </g>
    <g id="ytick_3">
     <g id="line2d_17">
      <path clip-path="url(#pc2b4b90cdb)" d="M 59.361562 318.534545 
L 561.561563 318.534545 
" style="fill:none;stroke:#b2b2b2;stroke-dasharray:1.85,0.8;stroke-dashoffset:0;stroke-width:0.5;"/>
     </g>
     <g id="line2d_18"/>
     <g id="text_10">
      <!-- 40 -->
      <g style="fill:#262626;" transform="translate(35.842187 324.976577)scale(0.18 -0.18)">
       <use xlink:href="#ArialMT-52"/>
       <use x="55.615234" xlink:href="#ArialMT-48"/>
      </g>
     </g>
    </g>
    <g id="ytick_4">
     <g id="line2d_19">
      <path clip-path="url(#pc2b4b90cdb)" d="M 59.361562 229.581818 
L 561.561563 229.581818 
" style="fill:none;stroke:#b2b2b2;stroke-dasharray:1.85,0.8;stroke-dashoffset:0;stroke-width:0.5;"/>
     </g>
     <g id="line2d_20"/>
     <g id="text_11">
      <!-- 60 -->
      <g style="fill:#262626;" transform="translate(35.842187 236.023849)scale(0.18 -0.18)">
       <use xlink:href="#ArialMT-54"/>
       <use x="55.615234" xlink:href="#ArialMT-48"/>
      </g>
     </g>
    </g>
    <g id="ytick_5">
     <g id="line2d_21">
      <path clip-path="url(#pc2b4b90cdb)" d="M 59.361562 140.629091 
L 561.561563 140.629091 
" style="fill:none;stroke:#b2b2b2;stroke-dasharray:1.85,0.8;stroke-dashoffset:0;stroke-width:0.5;"/>
     </g>
     <g id="line2d_22"/>
     <g id="text_12">
      <!-- 80 -->
      <g style="fill:#262626;" transform="translate(35.842187 147.071122)scale(0.18 -0.18)">
       <use xlink:href="#ArialMT-56"/>
       <use x="55.615234" xlink:href="#ArialMT-48"/>
      </g>
     </g>
    </g>
    <g id="ytick_6">
     <g id="line2d_23">
      <path clip-path="url(#pc2b4b90cdb)" d="M 59.361562 51.676364 
L 561.561563 51.676364 
" style="fill:none;stroke:#b2b2b2;stroke-dasharray:1.85,0.8;stroke-dashoffset:0;stroke-width:0.5;"/>
     </g>
     <g id="line2d_24"/>
     <g id="text_13">
      <!-- 100 -->
      <g style="fill:#262626;" transform="translate(25.8325 58.118395)scale(0.18 -0.18)">
       <use xlink:href="#ArialMT-49"/>
       <use x="55.615234" xlink:href="#ArialMT-48"/>
       <use x="111.230469" xlink:href="#ArialMT-48"/>
      </g>
     </g>
    </g>
    <g id="text_14">
     <!-- $c_1$ -->
     <g style="fill:#262626;" transform="translate(18.6525 258.62)rotate(-90)scale(0.16 -0.16)">
      <defs>
       <path d="M 9.28125 0 
L 9.28125 3.515625 
Q 21.78125 3.515625 21.78125 6.6875 
L 21.78125 59.1875 
Q 16.609375 56.6875 8.6875 56.6875 
L 8.6875 60.203125 
Q 20.953125 60.203125 27.203125 66.609375 
L 28.609375 66.609375 
Q 28.953125 66.609375 29.265625 66.328125 
Q 29.59375 66.0625 29.59375 65.71875 
L 29.59375 6.6875 
Q 29.59375 3.515625 42.09375 3.515625 
L 42.09375 0 
z
" id="Cmr10-49"/>
      </defs>
      <use transform="translate(0 0.8125)" xlink:href="#Cmmi10-99"/>
      <use transform="translate(43.212891 -16.19375)scale(0.7)" xlink:href="#Cmr10-49"/>
     </g>
    </g>
   </g>
   <g id="PolyCollection_1">
    <path clip-path="url(#pc2b4b90cdb)" d="M 59.818108 496.44 
L 59.818108 52.121127 
L 64.886224 57.058453 
L 69.954339 61.995779 
L 75.022455 66.933104 
L 80.090571 71.87043 
L 85.158686 76.807755 
L 90.226802 81.745081 
L 95.294918 86.682407 
L 100.363034 91.619732 
L 105.431149 96.557058 
L 110.499265 101.494383 
L 115.567381 106.431709 
L 120.635496 111.369035 
L 125.703612 116.30636 
L 130.771728 121.243686 
L 135.839843 126.181012 
L 140.907959 131.118337 
L 145.976075 136.055663 
L 151.044191 140.992988 
L 156.112306 145.930314 
L 161.180422 150.86764 
L 166.248538 155.804965 
L 171.316653 160.742291 
L 176.384769 165.679617 
L 181.452885 170.616942 
L 186.521001 175.554268 
L 191.589116 180.491593 
L 196.657232 185.428919 
L 201.725348 190.366245 
L 206.793463 195.30357 
L 211.861579 200.240896 
L 216.929695 205.178221 
L 221.99781 210.115547 
L 227.065926 215.052873 
L 232.134042 219.990198 
L 237.202158 224.927524 
L 242.270273 229.86485 
L 247.338389 234.802175 
L 252.406505 239.739501 
L 257.47462 244.676826 
L 262.542736 249.614152 
L 267.610852 254.551478 
L 272.678967 259.488803 
L 277.747083 264.426129 
L 282.815199 269.363455 
L 287.883315 274.30078 
L 292.95143 279.238106 
L 298.019546 284.175431 
L 303.087662 289.112757 
L 308.155777 294.050083 
L 313.223893 298.987408 
L 318.292009 303.924734 
L 323.360124 308.86206 
L 328.42824 313.799385 
L 333.496356 318.736711 
L 338.564472 323.674036 
L 343.632587 328.611362 
L 348.700703 333.548688 
L 353.768819 338.486013 
L 358.836934 343.423339 
L 363.90505 348.360664 
L 368.973166 353.29799 
L 374.041282 358.235316 
L 379.109397 363.172641 
L 384.177513 368.109967 
L 389.245629 373.047293 
L 394.313744 377.984618 
L 399.38186 382.921944 
L 404.449976 387.859269 
L 409.518091 392.796595 
L 414.586207 397.733921 
L 419.654323 402.671246 
L 424.722439 407.608572 
L 429.790554 412.545898 
L 434.85867 417.483223 
L 439.926786 422.420549 
L 444.994901 427.357874 
L 450.063017 432.2952 
L 455.131133 437.232526 
L 460.199248 442.169851 
L 465.267364 447.107177 
L 470.33548 452.044502 
L 475.403596 456.981828 
L 480.471711 461.919154 
L 485.539827 466.856479 
L 490.607943 471.793805 
L 495.676058 476.731131 
L 500.744174 481.668456 
L 505.81229 486.605782 
L 510.880405 491.543107 
L 515.948521 496.480433 
L 521.016637 501.417759 
L 526.084753 506.355084 
L 531.152868 511.29241 
L 536.220984 516.229736 
L 541.2891 521.167061 
L 546.357215 526.104387 
L 551.425331 531.041712 
L 556.493447 535.979038 
L 561.561563 540.916364 
L 561.561563 496.44 
L 561.561563 496.44 
L 556.493447 496.44 
L 551.425331 496.44 
L 546.357215 496.44 
L 541.2891 496.44 
L 536.220984 496.44 
L 531.152868 496.44 
L 526.084753 496.44 
L 521.016637 496.44 
L 515.948521 496.44 
L 510.880405 496.44 
L 505.81229 496.44 
L 500.744174 496.44 
L 495.676058 496.44 
L 490.607943 496.44 
L 485.539827 496.44 
L 480.471711 496.44 
L 475.403596 496.44 
L 470.33548 496.44 
L 465.267364 496.44 
L 460.199248 496.44 
L 455.131133 496.44 
L 450.063017 496.44 
L 444.994901 496.44 
L 439.926786 496.44 
L 434.85867 496.44 
L 429.790554 496.44 
L 424.722439 496.44 
L 419.654323 496.44 
L 414.586207 496.44 
L 409.518091 496.44 
L 404.449976 496.44 
L 399.38186 496.44 
L 394.313744 496.44 
L 389.245629 496.44 
L 384.177513 496.44 
L 379.109397 496.44 
L 374.041282 496.44 
L 368.973166 496.44 
L 363.90505 496.44 
L 358.836934 496.44 
L 353.768819 496.44 
L 348.700703 496.44 
L 343.632587 496.44 
L 338.564472 496.44 
L 333.496356 496.44 
L 328.42824 496.44 
L 323.360124 496.44 
L 318.292009 496.44 
L 313.223893 496.44 
L 308.155777 496.44 
L 303.087662 496.44 
L 298.019546 496.44 
L 292.95143 496.44 
L 287.883315 496.44 
L 282.815199 496.44 
L 277.747083 496.44 
L 272.678967 496.44 
L 267.610852 496.44 
L 262.542736 496.44 
L 257.47462 496.44 
L 252.406505 496.44 
L 247.338389 496.44 
L 242.270273 496.44 
L 237.202158 496.44 
L 232.134042 496.44 
L 227.065926 496.44 
L 221.99781 496.44 
L 216.929695 496.44 
L 211.861579 496.44 
L 206.793463 496.44 
L 201.725348 496.44 
L 196.657232 496.44 
L 191.589116 496.44 
L 186.521001 496.44 
L 181.452885 496.44 
L 176.384769 496.44 
L 171.316653 496.44 
L 166.248538 496.44 
L 161.180422 496.44 
L 156.112306 496.44 
L 151.044191 496.44 
L 145.976075 496.44 
L 140.907959 496.44 
L 135.839843 496.44 
L 130.771728 496.44 
L 125.703612 496.44 
L 120.635496 496.44 
L 115.567381 496.44 
L 110.499265 496.44 
L 105.431149 496.44 
L 100.363034 496.44 
L 95.294918 496.44 
L 90.226802 496.44 
L 85.158686 496.44 
L 80.090571 496.44 
L 75.022455 496.44 
L 69.954339 496.44 
L 64.886224 496.44 
L 59.818108 496.44 
z
" style="fill:#348abd;fill-opacity:0.2;"/>
   </g>
   <g id="LineCollection_1">
    <path clip-path="url(#pc2b4b90cdb)" d="M 333.288835 496.44 
L 333.288835 318.534545 
" style="fill:none;stroke:#348abd;stroke-dasharray:7.4,3.2;stroke-dashoffset:0;stroke-width:2;"/>
   </g>
   <g id="LineCollection_2">
    <path clip-path="url(#pc2b4b90cdb)" d="M 59.361562 318.534545 
L 333.288835 318.534545 
" style="fill:none;stroke:#348abd;stroke-dasharray:7.4,3.2;stroke-dashoffset:0;stroke-width:2;"/>
   </g>
   <g id="line2d_25">
    <path clip-path="url(#pc2b4b90cdb)" d="M 59.818108 52.121127 
L 64.886224 57.058453 
L 69.954339 61.995779 
L 75.022455 66.933104 
L 80.090571 71.87043 
L 85.158686 76.807755 
L 90.226802 81.745081 
L 95.294918 86.682407 
L 100.363034 91.619732 
L 105.431149 96.557058 
L 110.499265 101.494383 
L 115.567381 106.431709 
L 120.635496 111.369035 
L 125.703612 116.30636 
L 130.771728 121.243686 
L 135.839843 126.181012 
L 140.907959 131.118337 
L 145.976075 136.055663 
L 151.044191 140.992988 
L 156.112306 145.930314 
L 161.180422 150.86764 
L 166.248538 155.804965 
L 171.316653 160.742291 
L 176.384769 165.679617 
L 181.452885 170.616942 
L 186.521001 175.554268 
L 191.589116 180.491593 
L 196.657232 185.428919 
L 201.725348 190.366245 
L 206.793463 195.30357 
L 211.861579 200.240896 
L 216.929695 205.178221 
L 221.99781 210.115547 
L 227.065926 215.052873 
L 232.134042 219.990198 
L 237.202158 224.927524 
L 242.270273 229.86485 
L 247.338389 234.802175 
L 252.406505 239.739501 
L 257.47462 244.676826 
L 262.542736 249.614152 
L 267.610852 254.551478 
L 272.678967 259.488803 
L 277.747083 264.426129 
L 282.815199 269.363455 
L 287.883315 274.30078 
L 292.95143 279.238106 
L 298.019546 284.175431 
L 303.087662 289.112757 
L 308.155777 294.050083 
L 313.223893 298.987408 
L 318.292009 303.924734 
L 323.360124 308.86206 
L 328.42824 313.799385 
L 333.496356 318.736711 
L 338.564472 323.674036 
L 343.632587 328.611362 
L 348.700703 333.548688 
L 353.768819 338.486013 
L 358.836934 343.423339 
L 363.90505 348.360664 
L 368.973166 353.29799 
L 374.041282 358.235316 
L 379.109397 363.172641 
L 384.177513 368.109967 
L 389.245629 373.047293 
L 394.313744 377.984618 
L 399.38186 382.921944 
L 404.449976 387.859269 
L 409.518091 392.796595 
L 414.586207 397.733921 
L 419.654323 402.671246 
L 424.722439 407.608572 
L 429.790554 412.545898 
L 434.85867 417.483223 
L 439.926786 422.420549 
L 444.994901 427.357874 
L 450.063017 432.2952 
L 455.131133 437.232526 
L 460.199248 442.169851 
L 465.267364 447.107177 
L 470.33548 452.044502 
L 475.403596 456.981828 
L 480.471711 461.919154 
L 485.539827 466.856479 
L 490.607943 471.793805 
L 495.676058 476.731131 
L 500.744174 481.668456 
L 505.81229 486.605782 
L 510.880405 491.543107 
L 515.948521 496.480433 
L 521.016637 501.417759 
L 526.084753 506.355084 
L 531.152868 511.29241 
L 536.220984 516.229736 
L 541.2891 521.167061 
L 546.357215 526.104387 
L 551.425331 531.041712 
L 556.493447 535.979038 
L 561.561563 540.916364 
" style="fill:none;stroke:#348abd;stroke-linecap:round;stroke-width:2.5;"/>
   </g>
   <g id="line2d_26">
    <path clip-path="url(#pc2b4b90cdb)" d="M 197.407588 -1 
L 201.725348 21.604824 
L 206.793463 45.877569 
L 211.861579 68.150588 
L 216.929695 88.647163 
L 221.99781 107.559511 
L 227.065926 125.053913 
L 232.134042 141.274866 
L 237.202158 156.348467 
L 242.270273 170.385205 
L 247.338389 183.482255 
L 252.406505 195.725387 
L 257.47462 207.190563 
L 262.542736 217.945273 
L 267.610852 228.049659 
L 272.678967 237.557475 
L 277.747083 246.516892 
L 282.815199 254.971194 
L 287.883315 262.95937 
L 292.95143 270.516622 
L 298.019546 277.674807 
L 303.087662 284.462816 
L 308.155777 290.906907 
L 313.223893 297.030989 
L 318.292009 302.856876 
L 323.360124 308.404507 
L 328.42824 313.69214 
L 333.496356 318.736519 
L 338.564472 323.553029 
L 343.632587 328.155824 
L 348.700703 332.557948 
L 353.768819 336.77144 
L 358.836934 340.807424 
L 363.90505 344.676198 
L 368.973166 348.3873 
L 374.041282 351.949583 
L 379.109397 355.37127 
L 384.177513 358.660009 
L 389.245629 361.82292 
L 394.313744 364.866642 
L 399.38186 367.79737 
L 404.449976 370.62089 
L 409.518091 373.342614 
L 414.586207 375.967606 
L 419.654323 378.500612 
L 424.722439 380.946082 
L 429.790554 383.308194 
L 434.85867 385.590872 
L 439.926786 387.797806 
L 444.994901 389.932469 
L 450.063017 391.998132 
L 455.131133 393.997876 
L 460.199248 395.93461 
L 465.267364 397.811078 
L 470.33548 399.629874 
L 475.403596 401.39345 
L 480.471711 403.104123 
L 485.539827 404.76409 
L 490.607943 406.37543 
L 495.676058 407.940114 
L 500.744174 409.460012 
L 505.81229 410.936898 
L 510.880405 412.372457 
L 515.948521 413.76829 
L 521.016637 415.12592 
L 526.084753 416.446794 
L 531.152868 417.732291 
L 536.220984 418.983722 
L 541.2891 420.20234 
L 546.357215 421.389335 
L 551.425331 422.545844 
L 556.493447 423.672954 
L 561.561563 424.771699 
" style="fill:none;stroke:#a60628;stroke-linecap:round;stroke-width:2.5;"/>
   </g>
   <g id="line2d_27">
    <defs>
     <path d="M 0 3 
C 0.795609 3 1.55874 2.683901 2.12132 2.12132 
C 2.683901 1.55874 3 0.795609 3 0 
C 3 -0.795609 2.683901 -1.55874 2.12132 -2.12132 
C 1.55874 -2.683901 0.795609 -3 0 -3 
C -0.795609 -3 -1.55874 -2.683901 -2.12132 -2.12132 
C -2.683901 -1.55874 -3 -0.795609 -3 0 
C -3 0.795609 -2.683901 1.55874 -2.12132 2.12132 
C -1.55874 2.683901 -0.795609 3 0 3 
z
" id="m169da0435b" style="stroke:#0000ff;"/>
    </defs>
    <g clip-path="url(#pc2b4b90cdb)">
     <use style="fill:#0000ff;stroke:#0000ff;" x="333.288835" xlink:href="#m169da0435b" y="318.534545"/>
    </g>
   </g>
   <g id="patch_3">
    <path d="M 59.361562 496.44 
L 59.361562 7.2 
" style="fill:none;stroke:#bcbcbc;stroke-linecap:square;stroke-linejoin:miter;"/>
   </g>
   <g id="patch_4">
    <path d="M 59.361562 496.44 
L 561.561563 496.44 
" style="fill:none;stroke:#bcbcbc;stroke-linecap:square;stroke-linejoin:miter;"/>
   </g>
  </g>
 </g>
 <defs>
  <clipPath id="pc2b4b90cdb">
   <rect height="489.24" width="502.2" x="59.361562" y="7.2"/>
  </clipPath>
 </defs>
</svg>
