<?xml version="1.0" encoding="utf-8" standalone="no"?>
<!DOCTYPE svg PUBLIC "-//W3C//DTD SVG 1.1//EN"
  "http://www.w3.org/Graphics/SVG/1.1/DTD/svg11.dtd">
<!-- Created with matplotlib (https://matplotlib.org/) -->
<svg height="364.980625pt" version="1.1" viewBox="0 0 381.9175 364.980625" width="381.9175pt" xmlns="http://www.w3.org/2000/svg" xmlns:xlink="http://www.w3.org/1999/xlink">
 <metadata>
  <rdf:RDF xmlns:cc="http://creativecommons.org/ns#" xmlns:dc="http://purl.org/dc/elements/1.1/" xmlns:rdf="http://www.w3.org/1999/02/22-rdf-syntax-ns#">
   <cc:Work>
    <dc:type rdf:resource="http://purl.org/dc/dcmitype/StillImage"/>
    <dc:date>2021-04-23T23:46:39.419940</dc:date>
    <dc:format>image/svg+xml</dc:format>
    <dc:creator>
     <cc:Agent>
      <dc:title>Matplotlib v3.3.4, https://matplotlib.org/</dc:title>
     </cc:Agent>
    </dc:creator>
   </cc:Work>
  </rdf:RDF>
 </metadata>
 <defs>
  <style type="text/css">*{stroke-linecap:butt;stroke-linejoin:round;}</style>
 </defs>
 <g id="figure_1">
  <g id="patch_1">
   <path d="M 0 364.980625 
L 381.9175 364.980625 
L 381.9175 0 
L 0 0 
z
" style="fill:none;"/>
  </g>
  <g id="axes_1">
   <g id="patch_2">
    <path d="M 48.5575 333.36 
L 374.7175 333.36 
L 374.7175 7.2 
L 48.5575 7.2 
z
" style="fill:#ffffff;"/>
   </g>
   <g id="PathCollection_1">
    <defs>
     <path d="M 0 3 
C 0.795609 3 1.55874 2.683901 2.12132 2.12132 
C 2.683901 1.55874 3 0.795609 3 0 
C 3 -0.795609 2.683901 -1.55874 2.12132 -2.12132 
C 1.55874 -2.683901 0.795609 -3 0 -3 
C -0.795609 -3 -1.55874 -2.683901 -2.12132 -2.12132 
C -2.683901 -1.55874 -3 -0.795609 -3 0 
C -3 0.795609 -2.683901 1.55874 -2.12132 2.12132 
C -1.55874 2.683901 -0.795609 3 0 3 
z
" id="m86802f1123" style="stroke:#0072b2;"/>
    </defs>
    <g clip-path="url(#p966409c008)">
     <use style="fill:#0072b2;stroke:#0072b2;" x="228.326989" xlink:href="#m86802f1123" y="153.590496"/>
    </g>
   </g>
   <g id="matplotlib.axis_1">
    <g id="xtick_1">
     <g id="line2d_1">
      <path clip-path="url(#p966409c008)" d="M 48.5575 333.36 
L 48.5575 7.2 
" style="fill:none;stroke:#b0b0b0;stroke-linecap:square;stroke-width:0.8;"/>
     </g>
     <g id="line2d_2">
      <defs>
       <path d="M 0 0 
L 0 3.5 
" id="m1337edf80e" style="stroke:#000000;stroke-width:0.8;"/>
      </defs>
      <g>
       <use style="stroke:#000000;stroke-width:0.8;" x="48.5575" xlink:href="#m1337edf80e" y="333.36"/>
      </g>
     </g>
     <g id="text_1">
      <!-- 0 -->
      <g transform="translate(42.83125 354.037187)scale(0.18 -0.18)">
       <defs>
        <path d="M 31.78125 66.40625 
Q 24.171875 66.40625 20.328125 58.90625 
Q 16.5 51.421875 16.5 36.375 
Q 16.5 21.390625 20.328125 13.890625 
Q 24.171875 6.390625 31.78125 6.390625 
Q 39.453125 6.390625 43.28125 13.890625 
Q 47.125 21.390625 47.125 36.375 
Q 47.125 51.421875 43.28125 58.90625 
Q 39.453125 66.40625 31.78125 66.40625 
z
M 31.78125 74.21875 
Q 44.046875 74.21875 50.515625 64.515625 
Q 56.984375 54.828125 56.984375 36.375 
Q 56.984375 17.96875 50.515625 8.265625 
Q 44.046875 -1.421875 31.78125 -1.421875 
Q 19.53125 -1.421875 13.0625 8.265625 
Q 6.59375 17.96875 6.59375 36.375 
Q 6.59375 54.828125 13.0625 64.515625 
Q 19.53125 74.21875 31.78125 74.21875 
z
" id="DejaVuSans-48"/>
       </defs>
       <use xlink:href="#DejaVuSans-48"/>
      </g>
     </g>
    </g>
    <g id="xtick_2">
     <g id="line2d_3">
      <path clip-path="url(#p966409c008)" d="M 107.859318 333.36 
L 107.859318 7.2 
" style="fill:none;stroke:#b0b0b0;stroke-linecap:square;stroke-width:0.8;"/>
     </g>
     <g id="line2d_4">
      <g>
       <use style="stroke:#000000;stroke-width:0.8;" x="107.859318" xlink:href="#m1337edf80e" y="333.36"/>
      </g>
     </g>
     <g id="text_2">
      <!-- 20 -->
      <g transform="translate(96.406818 354.037187)scale(0.18 -0.18)">
       <defs>
        <path d="M 19.1875 8.296875 
L 53.609375 8.296875 
L 53.609375 0 
L 7.328125 0 
L 7.328125 8.296875 
Q 12.9375 14.109375 22.625 23.890625 
Q 32.328125 33.6875 34.8125 36.53125 
Q 39.546875 41.84375 41.421875 45.53125 
Q 43.3125 49.21875 43.3125 52.78125 
Q 43.3125 58.59375 39.234375 62.25 
Q 35.15625 65.921875 28.609375 65.921875 
Q 23.96875 65.921875 18.8125 64.3125 
Q 13.671875 62.703125 7.8125 59.421875 
L 7.8125 69.390625 
Q 13.765625 71.78125 18.9375 73 
Q 24.125 74.21875 28.421875 74.21875 
Q 39.75 74.21875 46.484375 68.546875 
Q 53.21875 62.890625 53.21875 53.421875 
Q 53.21875 48.921875 51.53125 44.890625 
Q 49.859375 40.875 45.40625 35.40625 
Q 44.1875 33.984375 37.640625 27.21875 
Q 31.109375 20.453125 19.1875 8.296875 
z
" id="DejaVuSans-50"/>
       </defs>
       <use xlink:href="#DejaVuSans-50"/>
       <use x="63.623047" xlink:href="#DejaVuSans-48"/>
      </g>
     </g>
    </g>
    <g id="xtick_3">
     <g id="line2d_5">
      <path clip-path="url(#p966409c008)" d="M 167.161136 333.36 
L 167.161136 7.2 
" style="fill:none;stroke:#b0b0b0;stroke-linecap:square;stroke-width:0.8;"/>
     </g>
     <g id="line2d_6">
      <g>
       <use style="stroke:#000000;stroke-width:0.8;" x="167.161136" xlink:href="#m1337edf80e" y="333.36"/>
      </g>
     </g>
     <g id="text_3">
      <!-- 40 -->
      <g transform="translate(155.708636 354.037187)scale(0.18 -0.18)">
       <defs>
        <path d="M 37.796875 64.3125 
L 12.890625 25.390625 
L 37.796875 25.390625 
z
M 35.203125 72.90625 
L 47.609375 72.90625 
L 47.609375 25.390625 
L 58.015625 25.390625 
L 58.015625 17.1875 
L 47.609375 17.1875 
L 47.609375 0 
L 37.796875 0 
L 37.796875 17.1875 
L 4.890625 17.1875 
L 4.890625 26.703125 
z
" id="DejaVuSans-52"/>
       </defs>
       <use xlink:href="#DejaVuSans-52"/>
       <use x="63.623047" xlink:href="#DejaVuSans-48"/>
      </g>
     </g>
    </g>
    <g id="xtick_4">
     <g id="line2d_7">
      <path clip-path="url(#p966409c008)" d="M 226.462955 333.36 
L 226.462955 7.2 
" style="fill:none;stroke:#b0b0b0;stroke-linecap:square;stroke-width:0.8;"/>
     </g>
     <g id="line2d_8">
      <g>
       <use style="stroke:#000000;stroke-width:0.8;" x="226.462955" xlink:href="#m1337edf80e" y="333.36"/>
      </g>
     </g>
     <g id="text_4">
      <!-- 60 -->
      <g transform="translate(215.010455 354.037187)scale(0.18 -0.18)">
       <defs>
        <path d="M 33.015625 40.375 
Q 26.375 40.375 22.484375 35.828125 
Q 18.609375 31.296875 18.609375 23.390625 
Q 18.609375 15.53125 22.484375 10.953125 
Q 26.375 6.390625 33.015625 6.390625 
Q 39.65625 6.390625 43.53125 10.953125 
Q 47.40625 15.53125 47.40625 23.390625 
Q 47.40625 31.296875 43.53125 35.828125 
Q 39.65625 40.375 33.015625 40.375 
z
M 52.59375 71.296875 
L 52.59375 62.3125 
Q 48.875 64.0625 45.09375 64.984375 
Q 41.3125 65.921875 37.59375 65.921875 
Q 27.828125 65.921875 22.671875 59.328125 
Q 17.53125 52.734375 16.796875 39.40625 
Q 19.671875 43.65625 24.015625 45.921875 
Q 28.375 48.1875 33.59375 48.1875 
Q 44.578125 48.1875 50.953125 41.515625 
Q 57.328125 34.859375 57.328125 23.390625 
Q 57.328125 12.15625 50.6875 5.359375 
Q 44.046875 -1.421875 33.015625 -1.421875 
Q 20.359375 -1.421875 13.671875 8.265625 
Q 6.984375 17.96875 6.984375 36.375 
Q 6.984375 53.65625 15.1875 63.9375 
Q 23.390625 74.21875 37.203125 74.21875 
Q 40.921875 74.21875 44.703125 73.484375 
Q 48.484375 72.75 52.59375 71.296875 
z
" id="DejaVuSans-54"/>
       </defs>
       <use xlink:href="#DejaVuSans-54"/>
       <use x="63.623047" xlink:href="#DejaVuSans-48"/>
      </g>
     </g>
    </g>
    <g id="xtick_5">
     <g id="line2d_9">
      <path clip-path="url(#p966409c008)" d="M 285.764773 333.36 
L 285.764773 7.2 
" style="fill:none;stroke:#b0b0b0;stroke-linecap:square;stroke-width:0.8;"/>
     </g>
     <g id="line2d_10">
      <g>
       <use style="stroke:#000000;stroke-width:0.8;" x="285.764773" xlink:href="#m1337edf80e" y="333.36"/>
      </g>
     </g>
     <g id="text_5">
      <!-- 80 -->
      <g transform="translate(274.312273 354.037187)scale(0.18 -0.18)">
       <defs>
        <path d="M 31.78125 34.625 
Q 24.75 34.625 20.71875 30.859375 
Q 16.703125 27.09375 16.703125 20.515625 
Q 16.703125 13.921875 20.71875 10.15625 
Q 24.75 6.390625 31.78125 6.390625 
Q 38.8125 6.390625 42.859375 10.171875 
Q 46.921875 13.96875 46.921875 20.515625 
Q 46.921875 27.09375 42.890625 30.859375 
Q 38.875 34.625 31.78125 34.625 
z
M 21.921875 38.8125 
Q 15.578125 40.375 12.03125 44.71875 
Q 8.5 49.078125 8.5 55.328125 
Q 8.5 64.0625 14.71875 69.140625 
Q 20.953125 74.21875 31.78125 74.21875 
Q 42.671875 74.21875 48.875 69.140625 
Q 55.078125 64.0625 55.078125 55.328125 
Q 55.078125 49.078125 51.53125 44.71875 
Q 48 40.375 41.703125 38.8125 
Q 48.828125 37.15625 52.796875 32.3125 
Q 56.78125 27.484375 56.78125 20.515625 
Q 56.78125 9.90625 50.3125 4.234375 
Q 43.84375 -1.421875 31.78125 -1.421875 
Q 19.734375 -1.421875 13.25 4.234375 
Q 6.78125 9.90625 6.78125 20.515625 
Q 6.78125 27.484375 10.78125 32.3125 
Q 14.796875 37.15625 21.921875 38.8125 
z
M 18.3125 54.390625 
Q 18.3125 48.734375 21.84375 45.5625 
Q 25.390625 42.390625 31.78125 42.390625 
Q 38.140625 42.390625 41.71875 45.5625 
Q 45.3125 48.734375 45.3125 54.390625 
Q 45.3125 60.0625 41.71875 63.234375 
Q 38.140625 66.40625 31.78125 66.40625 
Q 25.390625 66.40625 21.84375 63.234375 
Q 18.3125 60.0625 18.3125 54.390625 
z
" id="DejaVuSans-56"/>
       </defs>
       <use xlink:href="#DejaVuSans-56"/>
       <use x="63.623047" xlink:href="#DejaVuSans-48"/>
      </g>
     </g>
    </g>
    <g id="xtick_6">
     <g id="line2d_11">
      <path clip-path="url(#p966409c008)" d="M 345.066591 333.36 
L 345.066591 7.2 
" style="fill:none;stroke:#b0b0b0;stroke-linecap:square;stroke-width:0.8;"/>
     </g>
     <g id="line2d_12">
      <g>
       <use style="stroke:#000000;stroke-width:0.8;" x="345.066591" xlink:href="#m1337edf80e" y="333.36"/>
      </g>
     </g>
     <g id="text_6">
      <!-- 100 -->
      <g transform="translate(327.887841 354.037187)scale(0.18 -0.18)">
       <defs>
        <path d="M 12.40625 8.296875 
L 28.515625 8.296875 
L 28.515625 63.921875 
L 10.984375 60.40625 
L 10.984375 69.390625 
L 28.421875 72.90625 
L 38.28125 72.90625 
L 38.28125 8.296875 
L 54.390625 8.296875 
L 54.390625 0 
L 12.40625 0 
z
" id="DejaVuSans-49"/>
       </defs>
       <use xlink:href="#DejaVuSans-49"/>
       <use x="63.623047" xlink:href="#DejaVuSans-48"/>
       <use x="127.246094" xlink:href="#DejaVuSans-48"/>
      </g>
     </g>
    </g>
   </g>
   <g id="matplotlib.axis_2">
    <g id="ytick_1">
     <g id="line2d_13">
      <path clip-path="url(#p966409c008)" d="M 48.5575 333.36 
L 374.7175 333.36 
" style="fill:none;stroke:#b0b0b0;stroke-linecap:square;stroke-width:0.8;"/>
     </g>
     <g id="line2d_14">
      <defs>
       <path d="M 0 0 
L -3.5 0 
" id="mbc73249642" style="stroke:#000000;stroke-width:0.8;"/>
      </defs>
      <g>
       <use style="stroke:#000000;stroke-width:0.8;" x="48.5575" xlink:href="#mbc73249642" y="333.36"/>
      </g>
     </g>
     <g id="text_7">
      <!-- 0 -->
      <g transform="translate(30.105 340.198594)scale(0.18 -0.18)">
       <use xlink:href="#DejaVuSans-48"/>
      </g>
     </g>
    </g>
    <g id="ytick_2">
     <g id="line2d_15">
      <path clip-path="url(#p966409c008)" d="M 48.5575 274.058182 
L 374.7175 274.058182 
" style="fill:none;stroke:#b0b0b0;stroke-linecap:square;stroke-width:0.8;"/>
     </g>
     <g id="line2d_16">
      <g>
       <use style="stroke:#000000;stroke-width:0.8;" x="48.5575" xlink:href="#mbc73249642" y="274.058182"/>
      </g>
     </g>
     <g id="text_8">
      <!-- 20 -->
      <g transform="translate(18.6525 280.896776)scale(0.18 -0.18)">
       <use xlink:href="#DejaVuSans-50"/>
       <use x="63.623047" xlink:href="#DejaVuSans-48"/>
      </g>
     </g>
    </g>
    <g id="ytick_3">
     <g id="line2d_17">
      <path clip-path="url(#p966409c008)" d="M 48.5575 214.756364 
L 374.7175 214.756364 
" style="fill:none;stroke:#b0b0b0;stroke-linecap:square;stroke-width:0.8;"/>
     </g>
     <g id="line2d_18">
      <g>
       <use style="stroke:#000000;stroke-width:0.8;" x="48.5575" xlink:href="#mbc73249642" y="214.756364"/>
      </g>
     </g>
     <g id="text_9">
      <!-- 40 -->
      <g transform="translate(18.6525 221.594957)scale(0.18 -0.18)">
       <use xlink:href="#DejaVuSans-52"/>
       <use x="63.623047" xlink:href="#DejaVuSans-48"/>
      </g>
     </g>
    </g>
    <g id="ytick_4">
     <g id="line2d_19">
      <path clip-path="url(#p966409c008)" d="M 48.5575 155.454545 
L 374.7175 155.454545 
" style="fill:none;stroke:#b0b0b0;stroke-linecap:square;stroke-width:0.8;"/>
     </g>
     <g id="line2d_20">
      <g>
       <use style="stroke:#000000;stroke-width:0.8;" x="48.5575" xlink:href="#mbc73249642" y="155.454545"/>
      </g>
     </g>
     <g id="text_10">
      <!-- 60 -->
      <g transform="translate(18.6525 162.293139)scale(0.18 -0.18)">
       <use xlink:href="#DejaVuSans-54"/>
       <use x="63.623047" xlink:href="#DejaVuSans-48"/>
      </g>
     </g>
    </g>
    <g id="ytick_5">
     <g id="line2d_21">
      <path clip-path="url(#p966409c008)" d="M 48.5575 96.152727 
L 374.7175 96.152727 
" style="fill:none;stroke:#b0b0b0;stroke-linecap:square;stroke-width:0.8;"/>
     </g>
     <g id="line2d_22">
      <g>
       <use style="stroke:#000000;stroke-width:0.8;" x="48.5575" xlink:href="#mbc73249642" y="96.152727"/>
      </g>
     </g>
     <g id="text_11">
      <!-- 80 -->
      <g transform="translate(18.6525 102.991321)scale(0.18 -0.18)">
       <use xlink:href="#DejaVuSans-56"/>
       <use x="63.623047" xlink:href="#DejaVuSans-48"/>
      </g>
     </g>
    </g>
    <g id="ytick_6">
     <g id="line2d_23">
      <path clip-path="url(#p966409c008)" d="M 48.5575 36.850909 
L 374.7175 36.850909 
" style="fill:none;stroke:#b0b0b0;stroke-linecap:square;stroke-width:0.8;"/>
     </g>
     <g id="line2d_24">
      <g>
       <use style="stroke:#000000;stroke-width:0.8;" x="48.5575" xlink:href="#mbc73249642" y="36.850909"/>
      </g>
     </g>
     <g id="text_12">
      <!-- 100 -->
      <g transform="translate(7.2 43.689503)scale(0.18 -0.18)">
       <use xlink:href="#DejaVuSans-49"/>
       <use x="63.623047" xlink:href="#DejaVuSans-48"/>
       <use x="127.246094" xlink:href="#DejaVuSans-48"/>
      </g>
     </g>
    </g>
   </g>
   <g id="line2d_25">
    <path clip-path="url(#p966409c008)" d="M 345.066591 333.36 
L 334.009861 308.994478 
L 324.282039 289.181668 
L 315.5728 272.635933 
L 307.668142 258.526165 
L 300.41449 246.288993 
L 293.698045 235.527676 
L 287.432219 225.953899 
L 281.549658 217.35256 
L 275.996969 209.559551 
L 270.731135 202.447236 
L 265.717006 195.914671 
L 260.925501 189.880842 
L 256.332295 184.279878 
L 251.916841 179.0576 
L 247.661629 174.168978 
L 243.55162 169.576236 
L 239.573803 165.24741 
L 235.716847 161.155251 
L 231.970826 157.276356 
L 228.326996 153.590504 
L 224.777617 150.080109 
L 221.315801 146.729802 
L 217.935397 143.526075 
L 214.630886 140.457003 
L 211.397298 137.512009 
L 208.230144 134.681678 
L 205.125354 131.957591 
L 202.079225 129.332196 
L 199.088382 126.798694 
L 196.149737 124.350945 
L 193.26046 121.983387 
L 190.417948 119.690968 
L 187.619805 117.469085 
L 184.863817 115.313536 
L 182.147936 113.220473 
L 179.470264 111.186365 
L 176.829038 109.207966 
L 174.222618 107.282286 
L 171.649473 105.406561 
L 169.108178 103.578236 
L 166.597396 101.794944 
L 164.115877 100.054487 
L 161.662451 98.354819 
L 159.236015 96.694037 
L 156.835534 95.070365 
L 154.460035 93.482144 
L 152.108598 91.927822 
L 149.780356 90.405943 
L 147.47449 88.915146 
L 145.190226 87.454149 
L 142.92683 86.021747 
L 140.683606 84.616807 
L 138.459896 83.23826 
L 136.255071 81.885099 
L 134.068538 80.556372 
L 131.89973 79.251178 
L 129.748108 77.968665 
L 127.613158 76.708028 
L 125.494389 75.468501 
L 123.391335 74.249358 
L 121.303549 73.049911 
L 119.230604 71.869504 
L 117.172091 70.707514 
L 115.12762 69.563347 
L 113.096817 68.436439 
L 111.079323 67.32625 
L 109.074794 66.232266 
L 107.0829 65.153997 
L 105.103324 64.090973 
L 103.135762 63.042746 
L 101.179921 62.008887 
L 99.235521 60.988985 
L 97.302289 59.982646 
L 95.379966 58.989495 
L 93.468301 58.009169 
L 91.567052 57.041321 
L 89.675985 56.085619 
L 87.794875 55.141743 
L 85.923506 54.209385 
L 84.061668 53.28825 
L 82.209158 52.378054 
L 80.36578 51.478523 
L 78.531346 50.589393 
L 76.705673 49.710411 
L 74.888584 48.841332 
L 73.079907 47.981921 
L 71.279476 47.131949 
L 69.487132 46.291199 
L 67.702718 45.459456 
L 65.926084 44.636518 
L 64.157083 43.822185 
L 62.395574 43.016268 
L 60.641419 42.218581 
L 58.894485 41.428946 
L 57.154641 40.647189 
L 55.421762 39.873144 
L 53.695726 39.106648 
L 51.976413 38.347544 
L 50.263709 37.59568 
" style="fill:none;stroke:#0072b2;stroke-linecap:square;stroke-width:1.5;"/>
   </g>
   <g id="line2d_26">
    <path clip-path="url(#p966409c008)" d="M 145.226084 -1 
L 147.591536 7.037121 
L 150.583583 16.60696 
L 153.575629 25.631494 
L 156.567675 34.156043 
L 159.559721 42.221035 
L 162.551768 49.862658 
L 165.543814 57.113397 
L 168.53586 64.002494 
L 171.527907 70.556349 
L 174.519953 76.798849 
L 177.511999 82.751669 
L 180.504045 88.434513 
L 183.496092 93.865342 
L 186.488138 99.060556 
L 189.480184 104.035161 
L 192.472231 108.802919 
L 195.464277 113.376467 
L 198.456323 117.767434 
L 201.448369 121.986541 
L 204.440416 126.043684 
L 207.432462 129.948012 
L 210.424508 133.708 
L 213.416555 137.331508 
L 216.408601 140.825833 
L 219.400647 144.197763 
L 222.392693 147.453618 
L 225.38474 150.59929 
L 228.376786 153.640279 
L 231.368832 156.581726 
L 234.360879 159.428438 
L 237.352925 162.18492 
L 240.344971 164.855396 
L 243.337017 167.443828 
L 246.329064 169.953941 
L 249.32111 172.389235 
L 252.313156 174.753007 
L 255.305202 177.048363 
L 258.297249 179.278229 
L 261.289295 181.44537 
L 264.281341 183.552396 
L 267.273388 185.601773 
L 270.265434 187.595835 
L 273.25748 189.536793 
L 276.249526 191.426739 
L 279.241573 193.267659 
L 282.233619 195.061435 
L 285.225665 196.809857 
L 288.217712 198.514622 
L 291.209758 200.177345 
L 294.201804 201.799564 
L 297.19385 203.382739 
L 300.185897 204.928264 
L 303.177943 206.437466 
L 306.169989 207.911611 
L 309.162036 209.351906 
L 312.154082 210.759503 
L 315.146128 212.135505 
L 318.138174 213.480962 
L 321.130221 214.796881 
L 324.122267 216.084224 
L 327.114313 217.343912 
L 330.10636 218.576826 
L 333.098406 219.78381 
L 336.090452 220.965676 
L 339.082498 222.123197 
L 342.074545 223.25712 
L 345.066591 224.368158 
" style="fill:none;stroke:#009e73;stroke-linecap:square;stroke-width:1.5;"/>
   </g>
   <g id="patch_3">
    <path d="M 48.5575 333.36 
L 48.5575 7.2 
" style="fill:none;stroke:#000000;stroke-linecap:square;stroke-linejoin:miter;stroke-width:0.8;"/>
   </g>
   <g id="patch_4">
    <path d="M 374.7175 333.36 
L 374.7175 7.2 
" style="fill:none;stroke:#000000;stroke-linecap:square;stroke-linejoin:miter;stroke-width:0.8;"/>
   </g>
   <g id="patch_5">
    <path d="M 48.5575 333.36 
L 374.7175 333.36 
" style="fill:none;stroke:#000000;stroke-linecap:square;stroke-linejoin:miter;stroke-width:0.8;"/>
   </g>
  </g>
 </g>
 <defs>
  <clipPath id="p966409c008">
   <rect height="326.16" width="326.16" x="48.5575" y="7.2"/>
  </clipPath>
 </defs>
</svg>
