<?xml version="1.0" encoding="utf-8" standalone="no"?>
<!DOCTYPE svg PUBLIC "-//W3C//DTD SVG 1.1//EN"
  "http://www.w3.org/Graphics/SVG/1.1/DTD/svg11.dtd">
<!-- Created with matplotlib (https://matplotlib.org/) -->
<svg height="393.239844pt" version="1.1" viewBox="0 0 732.000125 393.239844" width="732.000125pt" xmlns="http://www.w3.org/2000/svg" xmlns:xlink="http://www.w3.org/1999/xlink">
 <metadata>
  <rdf:RDF xmlns:cc="http://creativecommons.org/ns#" xmlns:dc="http://purl.org/dc/elements/1.1/" xmlns:rdf="http://www.w3.org/1999/02/22-rdf-syntax-ns#">
   <cc:Work>
    <dc:type rdf:resource="http://purl.org/dc/dcmitype/StillImage"/>
    <dc:date>2021-04-23T23:46:42.622056</dc:date>
    <dc:format>image/svg+xml</dc:format>
    <dc:creator>
     <cc:Agent>
      <dc:title>Matplotlib v3.3.4, https://matplotlib.org/</dc:title>
     </cc:Agent>
    </dc:creator>
   </cc:Work>
  </rdf:RDF>
 </metadata>
 <defs>
  <style type="text/css">*{stroke-linecap:butt;stroke-linejoin:round;}</style>
 </defs>
 <g id="figure_1">
  <g id="patch_1">
   <path d="M 0 393.239844 
L 732.000125 393.239844 
L 732.000125 0 
L 0 0 
z
" style="fill:none;"/>
  </g>
  <g id="axes_1">
   <g id="patch_2">
    <path d="M 69.978125 340.198594 
L 559.218125 340.198594 
L 559.218125 14.038594 
L 69.978125 14.038594 
z
" style="fill:#ffffff;"/>
   </g>
   <g id="PathCollection_1">
    <defs>
     <path d="M 0 3 
C 0.795609 3 1.55874 2.683901 2.12132 2.12132 
C 2.683901 1.55874 3 0.795609 3 0 
C 3 -0.795609 2.683901 -1.55874 2.12132 -2.12132 
C 1.55874 -2.683901 0.795609 -3 0 -3 
C -0.795609 -3 -1.55874 -2.683901 -2.12132 -2.12132 
C -2.683901 -1.55874 -3 -0.795609 -3 0 
C -3 0.795609 -2.683901 1.55874 -2.12132 2.12132 
C -1.55874 2.683901 -0.795609 3 0 3 
z
" id="m3a449e52ce" style="stroke:#0072b2;"/>
    </defs>
    <g clip-path="url(#p7088594902)">
     <use style="fill:#0072b2;stroke:#0072b2;" x="117.543125" xlink:href="#m3a449e52ce" y="251.863594"/>
    </g>
   </g>
   <g id="PathCollection_2">
    <defs>
     <path d="M 0 3 
C 0.795609 3 1.55874 2.683901 2.12132 2.12132 
C 2.683901 1.55874 3 0.795609 3 0 
C 3 -0.795609 2.683901 -1.55874 2.12132 -2.12132 
C 1.55874 -2.683901 0.795609 -3 0 -3 
C -0.795609 -3 -1.55874 -2.683901 -2.12132 -2.12132 
C -2.683901 -1.55874 -3 -0.795609 -3 0 
C -3 0.795609 -2.683901 1.55874 -2.12132 2.12132 
C -1.55874 2.683901 -0.795609 3 0 3 
z
" id="m8f9f1b1112" style="stroke:#009e73;"/>
    </defs>
    <g clip-path="url(#p7088594902)">
     <use style="fill:#009e73;stroke:#009e73;" x="511.653125" xlink:href="#m8f9f1b1112" y="102.373594"/>
    </g>
   </g>
   <g id="PathCollection_3">
    <defs>
     <path d="M 0 3 
C 0.795609 3 1.55874 2.683901 2.12132 2.12132 
C 2.683901 1.55874 3 0.795609 3 0 
C 3 -0.795609 2.683901 -1.55874 2.12132 -2.12132 
C 1.55874 -2.683901 0.795609 -3 0 -3 
C -0.795609 -3 -1.55874 -2.683901 -2.12132 -2.12132 
C -2.683901 -1.55874 -3 -0.795609 -3 0 
C -3 0.795609 -2.683901 1.55874 -2.12132 2.12132 
C -1.55874 2.683901 -0.795609 3 0 3 
z
" id="m966c1f8d41" style="stroke:#d55e00;"/>
    </defs>
    <g clip-path="url(#p7088594902)">
     <use style="fill:#d55e00;stroke:#d55e00;" x="71.608925" xlink:href="#m966c1f8d41" y="338.567794"/>
    </g>
   </g>
   <g id="matplotlib.axis_1">
    <g id="xtick_1">
     <g id="line2d_1">
      <path clip-path="url(#p7088594902)" d="M 69.978125 340.198594 
L 69.978125 14.038594 
" style="fill:none;stroke:#b0b0b0;stroke-linecap:square;stroke-width:0.8;"/>
     </g>
     <g id="line2d_2">
      <defs>
       <path d="M 0 0 
L 0 3.5 
" id="ma0e6a17d70" style="stroke:#000000;stroke-width:0.8;"/>
      </defs>
      <g>
       <use style="stroke:#000000;stroke-width:0.8;" x="69.978125" xlink:href="#ma0e6a17d70" y="340.198594"/>
      </g>
     </g>
     <g id="text_1">
      <!-- 0 -->
      <g transform="translate(64.251875 360.875781)scale(0.18 -0.18)">
       <defs>
        <path d="M 31.78125 66.40625 
Q 24.171875 66.40625 20.328125 58.90625 
Q 16.5 51.421875 16.5 36.375 
Q 16.5 21.390625 20.328125 13.890625 
Q 24.171875 6.390625 31.78125 6.390625 
Q 39.453125 6.390625 43.28125 13.890625 
Q 47.125 21.390625 47.125 36.375 
Q 47.125 51.421875 43.28125 58.90625 
Q 39.453125 66.40625 31.78125 66.40625 
z
M 31.78125 74.21875 
Q 44.046875 74.21875 50.515625 64.515625 
Q 56.984375 54.828125 56.984375 36.375 
Q 56.984375 17.96875 50.515625 8.265625 
Q 44.046875 -1.421875 31.78125 -1.421875 
Q 19.53125 -1.421875 13.0625 8.265625 
Q 6.59375 17.96875 6.59375 36.375 
Q 6.59375 54.828125 13.0625 64.515625 
Q 19.53125 74.21875 31.78125 74.21875 
z
" id="DejaVuSans-48"/>
       </defs>
       <use xlink:href="#DejaVuSans-48"/>
      </g>
     </g>
    </g>
    <g id="xtick_2">
     <g id="line2d_3">
      <path clip-path="url(#p7088594902)" d="M 135.210125 340.198594 
L 135.210125 14.038594 
" style="fill:none;stroke:#b0b0b0;stroke-linecap:square;stroke-width:0.8;"/>
     </g>
     <g id="line2d_4">
      <g>
       <use style="stroke:#000000;stroke-width:0.8;" x="135.210125" xlink:href="#ma0e6a17d70" y="340.198594"/>
      </g>
     </g>
     <g id="text_2">
      <!-- 20 -->
      <g transform="translate(123.757625 360.875781)scale(0.18 -0.18)">
       <defs>
        <path d="M 19.1875 8.296875 
L 53.609375 8.296875 
L 53.609375 0 
L 7.328125 0 
L 7.328125 8.296875 
Q 12.9375 14.109375 22.625 23.890625 
Q 32.328125 33.6875 34.8125 36.53125 
Q 39.546875 41.84375 41.421875 45.53125 
Q 43.3125 49.21875 43.3125 52.78125 
Q 43.3125 58.59375 39.234375 62.25 
Q 35.15625 65.921875 28.609375 65.921875 
Q 23.96875 65.921875 18.8125 64.3125 
Q 13.671875 62.703125 7.8125 59.421875 
L 7.8125 69.390625 
Q 13.765625 71.78125 18.9375 73 
Q 24.125 74.21875 28.421875 74.21875 
Q 39.75 74.21875 46.484375 68.546875 
Q 53.21875 62.890625 53.21875 53.421875 
Q 53.21875 48.921875 51.53125 44.890625 
Q 49.859375 40.875 45.40625 35.40625 
Q 44.1875 33.984375 37.640625 27.21875 
Q 31.109375 20.453125 19.1875 8.296875 
z
" id="DejaVuSans-50"/>
       </defs>
       <use xlink:href="#DejaVuSans-50"/>
       <use x="63.623047" xlink:href="#DejaVuSans-48"/>
      </g>
     </g>
    </g>
    <g id="xtick_3">
     <g id="line2d_5">
      <path clip-path="url(#p7088594902)" d="M 200.442125 340.198594 
L 200.442125 14.038594 
" style="fill:none;stroke:#b0b0b0;stroke-linecap:square;stroke-width:0.8;"/>
     </g>
     <g id="line2d_6">
      <g>
       <use style="stroke:#000000;stroke-width:0.8;" x="200.442125" xlink:href="#ma0e6a17d70" y="340.198594"/>
      </g>
     </g>
     <g id="text_3">
      <!-- 40 -->
      <g transform="translate(188.989625 360.875781)scale(0.18 -0.18)">
       <defs>
        <path d="M 37.796875 64.3125 
L 12.890625 25.390625 
L 37.796875 25.390625 
z
M 35.203125 72.90625 
L 47.609375 72.90625 
L 47.609375 25.390625 
L 58.015625 25.390625 
L 58.015625 17.1875 
L 47.609375 17.1875 
L 47.609375 0 
L 37.796875 0 
L 37.796875 17.1875 
L 4.890625 17.1875 
L 4.890625 26.703125 
z
" id="DejaVuSans-52"/>
       </defs>
       <use xlink:href="#DejaVuSans-52"/>
       <use x="63.623047" xlink:href="#DejaVuSans-48"/>
      </g>
     </g>
    </g>
    <g id="xtick_4">
     <g id="line2d_7">
      <path clip-path="url(#p7088594902)" d="M 265.674125 340.198594 
L 265.674125 14.038594 
" style="fill:none;stroke:#b0b0b0;stroke-linecap:square;stroke-width:0.8;"/>
     </g>
     <g id="line2d_8">
      <g>
       <use style="stroke:#000000;stroke-width:0.8;" x="265.674125" xlink:href="#ma0e6a17d70" y="340.198594"/>
      </g>
     </g>
     <g id="text_4">
      <!-- 60 -->
      <g transform="translate(254.221625 360.875781)scale(0.18 -0.18)">
       <defs>
        <path d="M 33.015625 40.375 
Q 26.375 40.375 22.484375 35.828125 
Q 18.609375 31.296875 18.609375 23.390625 
Q 18.609375 15.53125 22.484375 10.953125 
Q 26.375 6.390625 33.015625 6.390625 
Q 39.65625 6.390625 43.53125 10.953125 
Q 47.40625 15.53125 47.40625 23.390625 
Q 47.40625 31.296875 43.53125 35.828125 
Q 39.65625 40.375 33.015625 40.375 
z
M 52.59375 71.296875 
L 52.59375 62.3125 
Q 48.875 64.0625 45.09375 64.984375 
Q 41.3125 65.921875 37.59375 65.921875 
Q 27.828125 65.921875 22.671875 59.328125 
Q 17.53125 52.734375 16.796875 39.40625 
Q 19.671875 43.65625 24.015625 45.921875 
Q 28.375 48.1875 33.59375 48.1875 
Q 44.578125 48.1875 50.953125 41.515625 
Q 57.328125 34.859375 57.328125 23.390625 
Q 57.328125 12.15625 50.6875 5.359375 
Q 44.046875 -1.421875 33.015625 -1.421875 
Q 20.359375 -1.421875 13.671875 8.265625 
Q 6.984375 17.96875 6.984375 36.375 
Q 6.984375 53.65625 15.1875 63.9375 
Q 23.390625 74.21875 37.203125 74.21875 
Q 40.921875 74.21875 44.703125 73.484375 
Q 48.484375 72.75 52.59375 71.296875 
z
" id="DejaVuSans-54"/>
       </defs>
       <use xlink:href="#DejaVuSans-54"/>
       <use x="63.623047" xlink:href="#DejaVuSans-48"/>
      </g>
     </g>
    </g>
    <g id="xtick_5">
     <g id="line2d_9">
      <path clip-path="url(#p7088594902)" d="M 330.906125 340.198594 
L 330.906125 14.038594 
" style="fill:none;stroke:#b0b0b0;stroke-linecap:square;stroke-width:0.8;"/>
     </g>
     <g id="line2d_10">
      <g>
       <use style="stroke:#000000;stroke-width:0.8;" x="330.906125" xlink:href="#ma0e6a17d70" y="340.198594"/>
      </g>
     </g>
     <g id="text_5">
      <!-- 80 -->
      <g transform="translate(319.453625 360.875781)scale(0.18 -0.18)">
       <defs>
        <path d="M 31.78125 34.625 
Q 24.75 34.625 20.71875 30.859375 
Q 16.703125 27.09375 16.703125 20.515625 
Q 16.703125 13.921875 20.71875 10.15625 
Q 24.75 6.390625 31.78125 6.390625 
Q 38.8125 6.390625 42.859375 10.171875 
Q 46.921875 13.96875 46.921875 20.515625 
Q 46.921875 27.09375 42.890625 30.859375 
Q 38.875 34.625 31.78125 34.625 
z
M 21.921875 38.8125 
Q 15.578125 40.375 12.03125 44.71875 
Q 8.5 49.078125 8.5 55.328125 
Q 8.5 64.0625 14.71875 69.140625 
Q 20.953125 74.21875 31.78125 74.21875 
Q 42.671875 74.21875 48.875 69.140625 
Q 55.078125 64.0625 55.078125 55.328125 
Q 55.078125 49.078125 51.53125 44.71875 
Q 48 40.375 41.703125 38.8125 
Q 48.828125 37.15625 52.796875 32.3125 
Q 56.78125 27.484375 56.78125 20.515625 
Q 56.78125 9.90625 50.3125 4.234375 
Q 43.84375 -1.421875 31.78125 -1.421875 
Q 19.734375 -1.421875 13.25 4.234375 
Q 6.78125 9.90625 6.78125 20.515625 
Q 6.78125 27.484375 10.78125 32.3125 
Q 14.796875 37.15625 21.921875 38.8125 
z
M 18.3125 54.390625 
Q 18.3125 48.734375 21.84375 45.5625 
Q 25.390625 42.390625 31.78125 42.390625 
Q 38.140625 42.390625 41.71875 45.5625 
Q 45.3125 48.734375 45.3125 54.390625 
Q 45.3125 60.0625 41.71875 63.234375 
Q 38.140625 66.40625 31.78125 66.40625 
Q 25.390625 66.40625 21.84375 63.234375 
Q 18.3125 60.0625 18.3125 54.390625 
z
" id="DejaVuSans-56"/>
       </defs>
       <use xlink:href="#DejaVuSans-56"/>
       <use x="63.623047" xlink:href="#DejaVuSans-48"/>
      </g>
     </g>
    </g>
    <g id="xtick_6">
     <g id="line2d_11">
      <path clip-path="url(#p7088594902)" d="M 396.138125 340.198594 
L 396.138125 14.038594 
" style="fill:none;stroke:#b0b0b0;stroke-linecap:square;stroke-width:0.8;"/>
     </g>
     <g id="line2d_12">
      <g>
       <use style="stroke:#000000;stroke-width:0.8;" x="396.138125" xlink:href="#ma0e6a17d70" y="340.198594"/>
      </g>
     </g>
     <g id="text_6">
      <!-- 100 -->
      <g transform="translate(378.959375 360.875781)scale(0.18 -0.18)">
       <defs>
        <path d="M 12.40625 8.296875 
L 28.515625 8.296875 
L 28.515625 63.921875 
L 10.984375 60.40625 
L 10.984375 69.390625 
L 28.421875 72.90625 
L 38.28125 72.90625 
L 38.28125 8.296875 
L 54.390625 8.296875 
L 54.390625 0 
L 12.40625 0 
z
" id="DejaVuSans-49"/>
       </defs>
       <use xlink:href="#DejaVuSans-49"/>
       <use x="63.623047" xlink:href="#DejaVuSans-48"/>
       <use x="127.246094" xlink:href="#DejaVuSans-48"/>
      </g>
     </g>
    </g>
    <g id="xtick_7">
     <g id="line2d_13">
      <path clip-path="url(#p7088594902)" d="M 461.370125 340.198594 
L 461.370125 14.038594 
" style="fill:none;stroke:#b0b0b0;stroke-linecap:square;stroke-width:0.8;"/>
     </g>
     <g id="line2d_14">
      <g>
       <use style="stroke:#000000;stroke-width:0.8;" x="461.370125" xlink:href="#ma0e6a17d70" y="340.198594"/>
      </g>
     </g>
     <g id="text_7">
      <!-- 120 -->
      <g transform="translate(444.191375 360.875781)scale(0.18 -0.18)">
       <use xlink:href="#DejaVuSans-49"/>
       <use x="63.623047" xlink:href="#DejaVuSans-50"/>
       <use x="127.246094" xlink:href="#DejaVuSans-48"/>
      </g>
     </g>
    </g>
    <g id="xtick_8">
     <g id="line2d_15">
      <path clip-path="url(#p7088594902)" d="M 526.602125 340.198594 
L 526.602125 14.038594 
" style="fill:none;stroke:#b0b0b0;stroke-linecap:square;stroke-width:0.8;"/>
     </g>
     <g id="line2d_16">
      <g>
       <use style="stroke:#000000;stroke-width:0.8;" x="526.602125" xlink:href="#ma0e6a17d70" y="340.198594"/>
      </g>
     </g>
     <g id="text_8">
      <!-- 140 -->
      <g transform="translate(509.423375 360.875781)scale(0.18 -0.18)">
       <use xlink:href="#DejaVuSans-49"/>
       <use x="63.623047" xlink:href="#DejaVuSans-52"/>
       <use x="127.246094" xlink:href="#DejaVuSans-48"/>
      </g>
     </g>
    </g>
    <g id="text_9">
     <!-- L - Labor -->
     <g transform="translate(275.165469 382.296406)scale(0.18 -0.18)">
      <defs>
       <path d="M 9.8125 72.90625 
L 19.671875 72.90625 
L 19.671875 8.296875 
L 55.171875 8.296875 
L 55.171875 0 
L 9.8125 0 
z
" id="DejaVuSans-76"/>
       <path id="DejaVuSans-32"/>
       <path d="M 4.890625 31.390625 
L 31.203125 31.390625 
L 31.203125 23.390625 
L 4.890625 23.390625 
z
" id="DejaVuSans-45"/>
       <path d="M 34.28125 27.484375 
Q 23.390625 27.484375 19.1875 25 
Q 14.984375 22.515625 14.984375 16.5 
Q 14.984375 11.71875 18.140625 8.90625 
Q 21.296875 6.109375 26.703125 6.109375 
Q 34.1875 6.109375 38.703125 11.40625 
Q 43.21875 16.703125 43.21875 25.484375 
L 43.21875 27.484375 
z
M 52.203125 31.203125 
L 52.203125 0 
L 43.21875 0 
L 43.21875 8.296875 
Q 40.140625 3.328125 35.546875 0.953125 
Q 30.953125 -1.421875 24.3125 -1.421875 
Q 15.921875 -1.421875 10.953125 3.296875 
Q 6 8.015625 6 15.921875 
Q 6 25.140625 12.171875 29.828125 
Q 18.359375 34.515625 30.609375 34.515625 
L 43.21875 34.515625 
L 43.21875 35.40625 
Q 43.21875 41.609375 39.140625 45 
Q 35.0625 48.390625 27.6875 48.390625 
Q 23 48.390625 18.546875 47.265625 
Q 14.109375 46.140625 10.015625 43.890625 
L 10.015625 52.203125 
Q 14.9375 54.109375 19.578125 55.046875 
Q 24.21875 56 28.609375 56 
Q 40.484375 56 46.34375 49.84375 
Q 52.203125 43.703125 52.203125 31.203125 
z
" id="DejaVuSans-97"/>
       <path d="M 48.6875 27.296875 
Q 48.6875 37.203125 44.609375 42.84375 
Q 40.53125 48.484375 33.40625 48.484375 
Q 26.265625 48.484375 22.1875 42.84375 
Q 18.109375 37.203125 18.109375 27.296875 
Q 18.109375 17.390625 22.1875 11.75 
Q 26.265625 6.109375 33.40625 6.109375 
Q 40.53125 6.109375 44.609375 11.75 
Q 48.6875 17.390625 48.6875 27.296875 
z
M 18.109375 46.390625 
Q 20.953125 51.265625 25.265625 53.625 
Q 29.59375 56 35.59375 56 
Q 45.5625 56 51.78125 48.09375 
Q 58.015625 40.1875 58.015625 27.296875 
Q 58.015625 14.40625 51.78125 6.484375 
Q 45.5625 -1.421875 35.59375 -1.421875 
Q 29.59375 -1.421875 25.265625 0.953125 
Q 20.953125 3.328125 18.109375 8.203125 
L 18.109375 0 
L 9.078125 0 
L 9.078125 75.984375 
L 18.109375 75.984375 
z
" id="DejaVuSans-98"/>
       <path d="M 30.609375 48.390625 
Q 23.390625 48.390625 19.1875 42.75 
Q 14.984375 37.109375 14.984375 27.296875 
Q 14.984375 17.484375 19.15625 11.84375 
Q 23.34375 6.203125 30.609375 6.203125 
Q 37.796875 6.203125 41.984375 11.859375 
Q 46.1875 17.53125 46.1875 27.296875 
Q 46.1875 37.015625 41.984375 42.703125 
Q 37.796875 48.390625 30.609375 48.390625 
z
M 30.609375 56 
Q 42.328125 56 49.015625 48.375 
Q 55.71875 40.765625 55.71875 27.296875 
Q 55.71875 13.875 49.015625 6.21875 
Q 42.328125 -1.421875 30.609375 -1.421875 
Q 18.84375 -1.421875 12.171875 6.21875 
Q 5.515625 13.875 5.515625 27.296875 
Q 5.515625 40.765625 12.171875 48.375 
Q 18.84375 56 30.609375 56 
z
" id="DejaVuSans-111"/>
       <path d="M 41.109375 46.296875 
Q 39.59375 47.171875 37.8125 47.578125 
Q 36.03125 48 33.890625 48 
Q 26.265625 48 22.1875 43.046875 
Q 18.109375 38.09375 18.109375 28.8125 
L 18.109375 0 
L 9.078125 0 
L 9.078125 54.6875 
L 18.109375 54.6875 
L 18.109375 46.1875 
Q 20.953125 51.171875 25.484375 53.578125 
Q 30.03125 56 36.53125 56 
Q 37.453125 56 38.578125 55.875 
Q 39.703125 55.765625 41.0625 55.515625 
z
" id="DejaVuSans-114"/>
      </defs>
      <use xlink:href="#DejaVuSans-76"/>
      <use x="55.712891" xlink:href="#DejaVuSans-32"/>
      <use x="87.5" xlink:href="#DejaVuSans-45"/>
      <use x="123.583984" xlink:href="#DejaVuSans-32"/>
      <use x="155.371094" xlink:href="#DejaVuSans-76"/>
      <use x="211.083984" xlink:href="#DejaVuSans-97"/>
      <use x="272.363281" xlink:href="#DejaVuSans-98"/>
      <use x="335.839844" xlink:href="#DejaVuSans-111"/>
      <use x="397.021484" xlink:href="#DejaVuSans-114"/>
     </g>
    </g>
   </g>
   <g id="matplotlib.axis_2">
    <g id="ytick_1">
     <g id="line2d_17">
      <path clip-path="url(#p7088594902)" d="M 69.978125 340.198594 
L 559.218125 340.198594 
" style="fill:none;stroke:#b0b0b0;stroke-linecap:square;stroke-width:0.8;"/>
     </g>
     <g id="line2d_18">
      <defs>
       <path d="M 0 0 
L -3.5 0 
" id="m9c4b473202" style="stroke:#000000;stroke-width:0.8;"/>
      </defs>
      <g>
       <use style="stroke:#000000;stroke-width:0.8;" x="69.978125" xlink:href="#m9c4b473202" y="340.198594"/>
      </g>
     </g>
     <g id="text_10">
      <!-- 0 -->
      <g transform="translate(51.525625 347.037187)scale(0.18 -0.18)">
       <use xlink:href="#DejaVuSans-48"/>
      </g>
     </g>
    </g>
    <g id="ytick_2">
     <g id="line2d_19">
      <path clip-path="url(#p7088594902)" d="M 69.978125 274.966594 
L 559.218125 274.966594 
" style="fill:none;stroke:#b0b0b0;stroke-linecap:square;stroke-width:0.8;"/>
     </g>
     <g id="line2d_20">
      <g>
       <use style="stroke:#000000;stroke-width:0.8;" x="69.978125" xlink:href="#m9c4b473202" y="274.966594"/>
      </g>
     </g>
     <g id="text_11">
      <!-- 20 -->
      <g transform="translate(40.073125 281.805187)scale(0.18 -0.18)">
       <use xlink:href="#DejaVuSans-50"/>
       <use x="63.623047" xlink:href="#DejaVuSans-48"/>
      </g>
     </g>
    </g>
    <g id="ytick_3">
     <g id="line2d_21">
      <path clip-path="url(#p7088594902)" d="M 69.978125 209.734594 
L 559.218125 209.734594 
" style="fill:none;stroke:#b0b0b0;stroke-linecap:square;stroke-width:0.8;"/>
     </g>
     <g id="line2d_22">
      <g>
       <use style="stroke:#000000;stroke-width:0.8;" x="69.978125" xlink:href="#m9c4b473202" y="209.734594"/>
      </g>
     </g>
     <g id="text_12">
      <!-- 40 -->
      <g transform="translate(40.073125 216.573187)scale(0.18 -0.18)">
       <use xlink:href="#DejaVuSans-52"/>
       <use x="63.623047" xlink:href="#DejaVuSans-48"/>
      </g>
     </g>
    </g>
    <g id="ytick_4">
     <g id="line2d_23">
      <path clip-path="url(#p7088594902)" d="M 69.978125 144.502594 
L 559.218125 144.502594 
" style="fill:none;stroke:#b0b0b0;stroke-linecap:square;stroke-width:0.8;"/>
     </g>
     <g id="line2d_24">
      <g>
       <use style="stroke:#000000;stroke-width:0.8;" x="69.978125" xlink:href="#m9c4b473202" y="144.502594"/>
      </g>
     </g>
     <g id="text_13">
      <!-- 60 -->
      <g transform="translate(40.073125 151.341187)scale(0.18 -0.18)">
       <use xlink:href="#DejaVuSans-54"/>
       <use x="63.623047" xlink:href="#DejaVuSans-48"/>
      </g>
     </g>
    </g>
    <g id="ytick_5">
     <g id="line2d_25">
      <path clip-path="url(#p7088594902)" d="M 69.978125 79.270594 
L 559.218125 79.270594 
" style="fill:none;stroke:#b0b0b0;stroke-linecap:square;stroke-width:0.8;"/>
     </g>
     <g id="line2d_26">
      <g>
       <use style="stroke:#000000;stroke-width:0.8;" x="69.978125" xlink:href="#m9c4b473202" y="79.270594"/>
      </g>
     </g>
     <g id="text_14">
      <!-- 80 -->
      <g transform="translate(40.073125 86.109187)scale(0.18 -0.18)">
       <use xlink:href="#DejaVuSans-56"/>
       <use x="63.623047" xlink:href="#DejaVuSans-48"/>
      </g>
     </g>
    </g>
    <g id="ytick_6">
     <g id="line2d_27">
      <path clip-path="url(#p7088594902)" d="M 69.978125 14.038594 
L 559.218125 14.038594 
" style="fill:none;stroke:#b0b0b0;stroke-linecap:square;stroke-width:0.8;"/>
     </g>
     <g id="line2d_28">
      <g>
       <use style="stroke:#000000;stroke-width:0.8;" x="69.978125" xlink:href="#m9c4b473202" y="14.038594"/>
      </g>
     </g>
     <g id="text_15">
      <!-- 100 -->
      <g transform="translate(28.620625 20.877187)scale(0.18 -0.18)">
       <use xlink:href="#DejaVuSans-49"/>
       <use x="63.623047" xlink:href="#DejaVuSans-48"/>
       <use x="127.246094" xlink:href="#DejaVuSans-48"/>
      </g>
     </g>
    </g>
    <g id="text_16">
     <!-- K - Capital -->
     <g transform="translate(20.877188 223.545937)rotate(-90)scale(0.18 -0.18)">
      <defs>
       <path d="M 9.8125 72.90625 
L 19.671875 72.90625 
L 19.671875 42.09375 
L 52.390625 72.90625 
L 65.09375 72.90625 
L 28.90625 38.921875 
L 67.671875 0 
L 54.6875 0 
L 19.671875 35.109375 
L 19.671875 0 
L 9.8125 0 
z
" id="DejaVuSans-75"/>
       <path d="M 64.40625 67.28125 
L 64.40625 56.890625 
Q 59.421875 61.53125 53.78125 63.8125 
Q 48.140625 66.109375 41.796875 66.109375 
Q 29.296875 66.109375 22.65625 58.46875 
Q 16.015625 50.828125 16.015625 36.375 
Q 16.015625 21.96875 22.65625 14.328125 
Q 29.296875 6.6875 41.796875 6.6875 
Q 48.140625 6.6875 53.78125 8.984375 
Q 59.421875 11.28125 64.40625 15.921875 
L 64.40625 5.609375 
Q 59.234375 2.09375 53.4375 0.328125 
Q 47.65625 -1.421875 41.21875 -1.421875 
Q 24.65625 -1.421875 15.125 8.703125 
Q 5.609375 18.84375 5.609375 36.375 
Q 5.609375 53.953125 15.125 64.078125 
Q 24.65625 74.21875 41.21875 74.21875 
Q 47.75 74.21875 53.53125 72.484375 
Q 59.328125 70.75 64.40625 67.28125 
z
" id="DejaVuSans-67"/>
       <path d="M 18.109375 8.203125 
L 18.109375 -20.796875 
L 9.078125 -20.796875 
L 9.078125 54.6875 
L 18.109375 54.6875 
L 18.109375 46.390625 
Q 20.953125 51.265625 25.265625 53.625 
Q 29.59375 56 35.59375 56 
Q 45.5625 56 51.78125 48.09375 
Q 58.015625 40.1875 58.015625 27.296875 
Q 58.015625 14.40625 51.78125 6.484375 
Q 45.5625 -1.421875 35.59375 -1.421875 
Q 29.59375 -1.421875 25.265625 0.953125 
Q 20.953125 3.328125 18.109375 8.203125 
z
M 48.6875 27.296875 
Q 48.6875 37.203125 44.609375 42.84375 
Q 40.53125 48.484375 33.40625 48.484375 
Q 26.265625 48.484375 22.1875 42.84375 
Q 18.109375 37.203125 18.109375 27.296875 
Q 18.109375 17.390625 22.1875 11.75 
Q 26.265625 6.109375 33.40625 6.109375 
Q 40.53125 6.109375 44.609375 11.75 
Q 48.6875 17.390625 48.6875 27.296875 
z
" id="DejaVuSans-112"/>
       <path d="M 9.421875 54.6875 
L 18.40625 54.6875 
L 18.40625 0 
L 9.421875 0 
z
M 9.421875 75.984375 
L 18.40625 75.984375 
L 18.40625 64.59375 
L 9.421875 64.59375 
z
" id="DejaVuSans-105"/>
       <path d="M 18.3125 70.21875 
L 18.3125 54.6875 
L 36.8125 54.6875 
L 36.8125 47.703125 
L 18.3125 47.703125 
L 18.3125 18.015625 
Q 18.3125 11.328125 20.140625 9.421875 
Q 21.96875 7.515625 27.59375 7.515625 
L 36.8125 7.515625 
L 36.8125 0 
L 27.59375 0 
Q 17.1875 0 13.234375 3.875 
Q 9.28125 7.765625 9.28125 18.015625 
L 9.28125 47.703125 
L 2.6875 47.703125 
L 2.6875 54.6875 
L 9.28125 54.6875 
L 9.28125 70.21875 
z
" id="DejaVuSans-116"/>
       <path d="M 9.421875 75.984375 
L 18.40625 75.984375 
L 18.40625 0 
L 9.421875 0 
z
" id="DejaVuSans-108"/>
      </defs>
      <use xlink:href="#DejaVuSans-75"/>
      <use x="65.576172" xlink:href="#DejaVuSans-32"/>
      <use x="97.363281" xlink:href="#DejaVuSans-45"/>
      <use x="133.447266" xlink:href="#DejaVuSans-32"/>
      <use x="165.234375" xlink:href="#DejaVuSans-67"/>
      <use x="235.058594" xlink:href="#DejaVuSans-97"/>
      <use x="296.337891" xlink:href="#DejaVuSans-112"/>
      <use x="359.814453" xlink:href="#DejaVuSans-105"/>
      <use x="387.597656" xlink:href="#DejaVuSans-116"/>
      <use x="426.806641" xlink:href="#DejaVuSans-97"/>
      <use x="488.085938" xlink:href="#DejaVuSans-108"/>
     </g>
    </g>
   </g>
   <g id="line2d_29">
    <path clip-path="url(#p7088594902)" d="M 70.304285 339.592868 
L 75.242809 330.421324 
L 80.181332 321.24978 
L 85.119856 312.078236 
L 90.05838 302.906692 
L 94.996903 293.735149 
L 99.935427 284.563605 
L 104.87395 275.392061 
L 109.812474 266.220517 
L 114.750998 257.048973 
L 119.689521 247.877429 
L 124.628045 238.705885 
L 129.566569 229.534341 
L 134.505092 220.362797 
L 139.443616 211.191253 
L 144.38214 202.01971 
L 149.320663 192.848166 
L 154.259187 183.676622 
L 159.19771 174.505078 
L 164.136234 165.333534 
L 169.074758 156.16199 
L 174.013281 146.990446 
L 178.951805 137.818902 
L 183.890329 128.647358 
L 188.828852 119.475815 
L 193.767376 110.304271 
L 198.7059 101.132727 
L 203.644423 91.961183 
L 208.582947 82.789639 
L 213.52147 73.618095 
L 218.459994 64.446551 
L 223.398518 55.275007 
L 228.337041 46.103463 
L 233.275565 36.931919 
L 238.214089 27.760376 
L 243.152612 18.588832 
L 248.091136 9.417288 
L 253.02966 0.245744 
L 253.700445 -1 
" style="fill:none;stroke:#0072b2;stroke-dasharray:5.55,2.4;stroke-dashoffset:0;stroke-width:1.5;"/>
   </g>
   <g id="line2d_30">
    <path clip-path="url(#p7088594902)" d="M 70.304285 340.022969 
L 75.242809 337.363764 
L 80.181332 334.704559 
L 85.119856 332.045354 
L 90.05838 329.386149 
L 94.996903 326.726944 
L 99.935427 324.067739 
L 104.87395 321.408534 
L 109.812474 318.749329 
L 114.750998 316.090124 
L 119.689521 313.430919 
L 124.628045 310.771714 
L 129.566569 308.112509 
L 134.505092 305.453304 
L 139.443616 302.794099 
L 144.38214 300.134894 
L 149.320663 297.475689 
L 154.259187 294.816484 
L 159.19771 292.157279 
L 164.136234 289.498073 
L 169.074758 286.838868 
L 174.013281 284.179663 
L 178.951805 281.520458 
L 183.890329 278.861253 
L 188.828852 276.202048 
L 193.767376 273.542843 
L 198.7059 270.883638 
L 203.644423 268.224433 
L 208.582947 265.565228 
L 213.52147 262.906023 
L 218.459994 260.246818 
L 223.398518 257.587613 
L 228.337041 254.928408 
L 233.275565 252.269203 
L 238.214089 249.609998 
L 243.152612 246.950793 
L 248.091136 244.291588 
L 253.02966 241.632383 
L 257.968183 238.973178 
L 262.906707 236.313973 
L 267.84523 233.654768 
L 272.783754 230.995563 
L 277.722278 228.336358 
L 282.660801 225.677153 
L 287.599325 223.017948 
L 292.537849 220.358743 
L 297.476372 217.699538 
L 302.414896 215.040332 
L 307.35342 212.381127 
L 312.291943 209.721922 
L 317.230467 207.062717 
L 322.16899 204.403512 
L 327.107514 201.744307 
L 332.046038 199.085102 
L 336.984561 196.425897 
L 341.923085 193.766692 
L 346.861609 191.107487 
L 351.800132 188.448282 
L 356.738656 185.789077 
L 361.67718 183.129872 
L 366.615703 180.470667 
L 371.554227 177.811462 
L 376.49275 175.152257 
L 381.431274 172.493052 
L 386.369798 169.833847 
L 391.308321 167.174642 
L 396.246845 164.515437 
L 401.185369 161.856232 
L 406.123892 159.197027 
L 411.062416 156.537822 
L 416.00094 153.878617 
L 420.939463 151.219412 
L 425.877987 148.560207 
L 430.81651 145.901002 
L 435.755034 143.241797 
L 440.693558 140.582592 
L 445.632081 137.923386 
L 450.570605 135.264181 
L 455.509129 132.604976 
L 460.447652 129.945771 
L 465.386176 127.286566 
L 470.3247 124.627361 
L 475.263223 121.968156 
L 480.201747 119.308951 
L 485.14027 116.649746 
L 490.078794 113.990541 
L 495.017318 111.331336 
L 499.955841 108.672131 
L 504.894365 106.012926 
L 509.832889 103.353721 
L 514.771412 100.694516 
L 519.709936 98.035311 
L 524.64846 95.376106 
L 529.586983 92.716901 
L 534.525507 90.057696 
L 539.46403 87.398491 
L 544.402554 84.739286 
L 549.341078 82.080081 
L 554.279601 79.420876 
L 559.218125 76.761671 
" style="fill:none;stroke:#009e73;stroke-dasharray:5.55,2.4;stroke-dashoffset:0;stroke-width:1.5;"/>
   </g>
   <g id="line2d_31">
    <path clip-path="url(#p7088594902)" d="M 117.543125 251.863594 
L 122.004489 249.461321 
L 126.465852 247.059048 
L 130.927216 244.656776 
L 135.38858 242.254503 
L 139.849943 239.85223 
L 144.311307 237.449957 
L 148.77267 235.047685 
L 153.234034 232.645412 
L 157.695398 230.243139 
L 162.156761 227.840866 
L 166.618125 225.438594 
L 171.079489 223.036321 
L 175.540852 220.634048 
L 180.002216 218.231776 
L 184.46358 215.829503 
L 188.924943 213.42723 
L 193.386307 211.024957 
L 197.84767 208.622685 
L 202.309034 206.220412 
L 206.770398 203.818139 
L 211.231761 201.415866 
L 215.693125 199.013594 
L 220.154489 196.611321 
L 224.615852 194.209048 
L 229.077216 191.806776 
L 233.53858 189.404503 
L 237.999943 187.00223 
L 242.461307 184.599957 
L 246.92267 182.197685 
L 251.384034 179.795412 
L 255.845398 177.393139 
L 260.306761 174.990866 
L 264.768125 172.588594 
L 269.229489 170.186321 
L 273.690852 167.784048 
L 278.152216 165.381776 
L 282.61358 162.979503 
L 287.074943 160.57723 
L 291.536307 158.174957 
L 295.99767 155.772685 
L 300.459034 153.370412 
L 304.920398 150.968139 
L 309.381761 148.565866 
L 313.843125 146.163594 
L 318.304489 143.761321 
L 322.765852 141.359048 
L 327.227216 138.956776 
L 331.68858 136.554503 
L 336.149943 134.15223 
L 340.611307 131.749957 
L 345.07267 129.347685 
L 349.534034 126.945412 
L 353.995398 124.543139 
L 358.456761 122.140866 
L 362.918125 119.738594 
L 367.379489 117.336321 
L 371.840852 114.934048 
L 376.302216 112.531776 
L 380.76358 110.129503 
L 385.224943 107.72723 
L 389.686307 105.324957 
L 394.14767 102.922685 
L 398.609034 100.520412 
L 403.070398 98.118139 
L 407.531761 95.715866 
L 411.993125 93.313594 
L 416.454489 90.911321 
L 420.915852 88.509048 
L 425.377216 86.106776 
L 429.83858 83.704503 
L 434.299943 81.30223 
L 438.761307 78.899957 
L 443.22267 76.497685 
L 447.684034 74.095412 
L 452.145398 71.693139 
L 456.606761 69.290866 
L 461.068125 66.888594 
L 465.529489 64.486321 
L 469.990852 62.084048 
L 474.452216 59.681776 
L 478.91358 57.279503 
L 483.374943 54.87723 
L 487.836307 52.474957 
L 492.29767 50.072685 
L 496.759034 47.670412 
L 501.220398 45.268139 
L 505.681761 42.865866 
L 510.143125 40.463594 
L 514.604489 38.061321 
L 519.065852 35.659048 
L 523.527216 33.256776 
L 527.98858 30.854503 
L 532.449943 28.45223 
L 536.911307 26.049957 
L 541.37267 23.647685 
L 545.834034 21.245412 
L 550.295398 18.843139 
L 554.756761 16.440866 
L 559.218125 14.038594 
" style="fill:none;stroke:#d55e00;stroke-dasharray:5.55,2.4;stroke-dashoffset:0;stroke-width:1.5;"/>
   </g>
   <g id="line2d_32">
    <path clip-path="url(#p7088594902)" d="M 511.653125 102.373594 
L 512.13358 101.481321 
L 512.614034 100.589048 
L 513.094489 99.696776 
L 513.574943 98.804503 
L 514.055398 97.91223 
L 514.535852 97.019957 
L 515.016307 96.127685 
L 515.496761 95.235412 
L 515.977216 94.343139 
L 516.45767 93.450866 
L 516.938125 92.558594 
L 517.41858 91.666321 
L 517.899034 90.774048 
L 518.379489 89.881776 
L 518.859943 88.989503 
L 519.340398 88.09723 
L 519.820852 87.204957 
L 520.301307 86.312685 
L 520.781761 85.420412 
L 521.262216 84.528139 
L 521.74267 83.635866 
L 522.223125 82.743594 
L 522.70358 81.851321 
L 523.184034 80.959048 
L 523.664489 80.066776 
L 524.144943 79.174503 
L 524.625398 78.28223 
L 525.105852 77.389957 
L 525.586307 76.497685 
L 526.066761 75.605412 
L 526.547216 74.713139 
L 527.02767 73.820866 
L 527.508125 72.928594 
L 527.98858 72.036321 
L 528.469034 71.144048 
L 528.949489 70.251776 
L 529.429943 69.359503 
L 529.910398 68.46723 
L 530.390852 67.574957 
L 530.871307 66.682685 
L 531.351761 65.790412 
L 531.832216 64.898139 
L 532.31267 64.005866 
L 532.793125 63.113594 
L 533.27358 62.221321 
L 533.754034 61.329048 
L 534.234489 60.436776 
L 534.714943 59.544503 
L 535.195398 58.65223 
L 535.675852 57.759957 
L 536.156307 56.867685 
L 536.636761 55.975412 
L 537.117216 55.083139 
L 537.59767 54.190866 
L 538.078125 53.298594 
L 538.55858 52.406321 
L 539.039034 51.514048 
L 539.519489 50.621776 
L 539.999943 49.729503 
L 540.480398 48.83723 
L 540.960852 47.944957 
L 541.441307 47.052685 
L 541.921761 46.160412 
L 542.402216 45.268139 
L 542.88267 44.375866 
L 543.363125 43.483594 
L 543.84358 42.591321 
L 544.324034 41.699048 
L 544.804489 40.806776 
L 545.284943 39.914503 
L 545.765398 39.02223 
L 546.245852 38.129957 
L 546.726307 37.237685 
L 547.206761 36.345412 
L 547.687216 35.453139 
L 548.16767 34.560866 
L 548.648125 33.668594 
L 549.12858 32.776321 
L 549.609034 31.884048 
L 550.089489 30.991776 
L 550.569943 30.099503 
L 551.050398 29.20723 
L 551.530852 28.314957 
L 552.011307 27.422685 
L 552.491761 26.530412 
L 552.972216 25.638139 
L 553.45267 24.745866 
L 553.933125 23.853594 
L 554.41358 22.961321 
L 554.894034 22.069048 
L 555.374489 21.176776 
L 555.854943 20.284503 
L 556.335398 19.39223 
L 556.815852 18.499957 
L 557.296307 17.607685 
L 557.776761 16.715412 
L 558.257216 15.823139 
L 558.73767 14.930866 
L 559.218125 14.038594 
" style="fill:none;stroke:#cc79a7;stroke-dasharray:5.55,2.4;stroke-dashoffset:0;stroke-width:1.5;"/>
   </g>
   <g id="patch_3">
    <path d="M 69.978125 340.198594 
L 69.978125 14.038594 
" style="fill:none;stroke:#000000;stroke-linecap:square;stroke-linejoin:miter;stroke-width:0.8;"/>
   </g>
   <g id="patch_4">
    <path d="M 559.218125 340.198594 
L 559.218125 14.038594 
" style="fill:none;stroke:#000000;stroke-linecap:square;stroke-linejoin:miter;stroke-width:0.8;"/>
   </g>
   <g id="patch_5">
    <path d="M 69.978125 340.198594 
L 559.218125 340.198594 
" style="fill:none;stroke:#000000;stroke-linecap:square;stroke-linejoin:miter;stroke-width:0.8;"/>
   </g>
   <g id="patch_6">
    <path d="M 69.978125 14.038594 
L 559.218125 14.038594 
" style="fill:none;stroke:#000000;stroke-linecap:square;stroke-linejoin:miter;stroke-width:0.8;"/>
   </g>
   <g id="text_17">
    <!--   $p$ = 1.0 -->
    <g transform="translate(583.680125 30.346594)scale(0.14 -0.14)">
     <defs>
      <path d="M 49.609375 33.6875 
Q 49.609375 40.875 46.484375 44.671875 
Q 43.359375 48.484375 37.5 48.484375 
Q 33.5 48.484375 29.859375 46.4375 
Q 26.21875 44.390625 23.390625 40.484375 
Q 20.609375 36.625 18.9375 31.15625 
Q 17.28125 25.6875 17.28125 20.3125 
Q 17.28125 13.484375 20.40625 9.796875 
Q 23.53125 6.109375 29.296875 6.109375 
Q 33.546875 6.109375 37.1875 8.109375 
Q 40.828125 10.109375 43.40625 13.921875 
Q 46.1875 17.921875 47.890625 23.34375 
Q 49.609375 28.765625 49.609375 33.6875 
z
M 21.78125 46.390625 
Q 25.390625 51.125 30.296875 53.5625 
Q 35.203125 56 41.21875 56 
Q 49.609375 56 54.25 50.5 
Q 58.890625 45.015625 58.890625 35.109375 
Q 58.890625 27 56 19.65625 
Q 53.125 12.3125 47.703125 6.5 
Q 44.09375 2.640625 39.546875 0.609375 
Q 35.015625 -1.421875 29.984375 -1.421875 
Q 24.171875 -1.421875 20.21875 1 
Q 16.265625 3.421875 14.3125 8.203125 
L 8.6875 -20.796875 
L -0.296875 -20.796875 
L 14.40625 54.6875 
L 23.390625 54.6875 
z
" id="DejaVuSans-Oblique-112"/>
      <path d="M 10.59375 45.40625 
L 73.1875 45.40625 
L 73.1875 37.203125 
L 10.59375 37.203125 
z
M 10.59375 25.484375 
L 73.1875 25.484375 
L 73.1875 17.1875 
L 10.59375 17.1875 
z
" id="DejaVuSans-61"/>
      <path d="M 10.6875 12.40625 
L 21 12.40625 
L 21 0 
L 10.6875 0 
z
" id="DejaVuSans-46"/>
     </defs>
     <use transform="translate(0 0.78125)" xlink:href="#DejaVuSans-32"/>
     <use transform="translate(31.787109 0.78125)" xlink:href="#DejaVuSans-32"/>
     <use transform="translate(63.574219 0.78125)" xlink:href="#DejaVuSans-Oblique-112"/>
     <use transform="translate(127.050781 0.78125)" xlink:href="#DejaVuSans-32"/>
     <use transform="translate(158.837891 0.78125)" xlink:href="#DejaVuSans-61"/>
     <use transform="translate(242.626953 0.78125)" xlink:href="#DejaVuSans-32"/>
     <use transform="translate(274.414062 0.78125)" xlink:href="#DejaVuSans-49"/>
     <use transform="translate(338.037109 0.78125)" xlink:href="#DejaVuSans-46"/>
     <use transform="translate(369.824219 0.78125)" xlink:href="#DejaVuSans-48"/>
    </g>
   </g>
   <g id="text_18">
    <!-- $(L_A,K_A)$ = (15, 27) -->
    <g transform="translate(583.680125 49.916194)scale(0.14 -0.14)">
     <defs>
      <path d="M 31 75.875 
Q 24.46875 64.65625 21.28125 53.65625 
Q 18.109375 42.671875 18.109375 31.390625 
Q 18.109375 20.125 21.3125 9.0625 
Q 24.515625 -2 31 -13.1875 
L 23.1875 -13.1875 
Q 15.875 -1.703125 12.234375 9.375 
Q 8.59375 20.453125 8.59375 31.390625 
Q 8.59375 42.28125 12.203125 53.3125 
Q 15.828125 64.359375 23.1875 75.875 
z
" id="DejaVuSans-40"/>
      <path d="M 16.796875 72.90625 
L 26.703125 72.90625 
L 14.203125 8.203125 
L 49.703125 8.203125 
L 48.09375 0 
L 2.6875 0 
z
" id="DejaVuSans-Oblique-76"/>
      <path d="M 36.8125 72.90625 
L 48 72.90625 
L 61.53125 0 
L 51.21875 0 
L 48.1875 18.703125 
L 15.375 18.703125 
L 5.078125 0 
L -5.328125 0 
z
M 40.375 63.1875 
L 19.921875 26.90625 
L 46.6875 26.90625 
z
" id="DejaVuSans-Oblique-65"/>
      <path d="M 11.71875 12.40625 
L 22.015625 12.40625 
L 22.015625 4 
L 14.015625 -11.625 
L 7.71875 -11.625 
L 11.71875 4 
z
" id="DejaVuSans-44"/>
      <path d="M 16.890625 72.90625 
L 26.8125 72.90625 
L 20.796875 42.1875 
L 59.078125 72.90625 
L 72.21875 72.90625 
L 28.90625 38.09375 
L 60.59375 0 
L 48.578125 0 
L 19.484375 35.5 
L 12.59375 0 
L 2.6875 0 
z
" id="DejaVuSans-Oblique-75"/>
      <path d="M 8.015625 75.875 
L 15.828125 75.875 
Q 23.140625 64.359375 26.78125 53.3125 
Q 30.421875 42.28125 30.421875 31.390625 
Q 30.421875 20.453125 26.78125 9.375 
Q 23.140625 -1.703125 15.828125 -13.1875 
L 8.015625 -13.1875 
Q 14.5 -2 17.703125 9.0625 
Q 20.90625 20.125 20.90625 31.390625 
Q 20.90625 42.671875 17.703125 53.65625 
Q 14.5 64.65625 8.015625 75.875 
z
" id="DejaVuSans-41"/>
      <path d="M 10.796875 72.90625 
L 49.515625 72.90625 
L 49.515625 64.59375 
L 19.828125 64.59375 
L 19.828125 46.734375 
Q 21.96875 47.46875 24.109375 47.828125 
Q 26.265625 48.1875 28.421875 48.1875 
Q 40.625 48.1875 47.75 41.5 
Q 54.890625 34.8125 54.890625 23.390625 
Q 54.890625 11.625 47.5625 5.09375 
Q 40.234375 -1.421875 26.90625 -1.421875 
Q 22.3125 -1.421875 17.546875 -0.640625 
Q 12.796875 0.140625 7.71875 1.703125 
L 7.71875 11.625 
Q 12.109375 9.234375 16.796875 8.0625 
Q 21.484375 6.890625 26.703125 6.890625 
Q 35.15625 6.890625 40.078125 11.328125 
Q 45.015625 15.765625 45.015625 23.390625 
Q 45.015625 31 40.078125 35.4375 
Q 35.15625 39.890625 26.703125 39.890625 
Q 22.75 39.890625 18.8125 39.015625 
Q 14.890625 38.140625 10.796875 36.28125 
z
" id="DejaVuSans-53"/>
      <path d="M 8.203125 72.90625 
L 55.078125 72.90625 
L 55.078125 68.703125 
L 28.609375 0 
L 18.3125 0 
L 43.21875 64.59375 
L 8.203125 64.59375 
z
" id="DejaVuSans-55"/>
     </defs>
     <use transform="translate(0 0.125)" xlink:href="#DejaVuSans-40"/>
     <use transform="translate(39.013672 0.125)" xlink:href="#DejaVuSans-Oblique-76"/>
     <use transform="translate(94.726562 -16.28125)scale(0.7)" xlink:href="#DejaVuSans-Oblique-65"/>
     <use transform="translate(145.34668 0.125)" xlink:href="#DejaVuSans-44"/>
     <use transform="translate(196.616211 0.125)" xlink:href="#DejaVuSans-Oblique-75"/>
     <use transform="translate(262.192383 -16.28125)scale(0.7)" xlink:href="#DejaVuSans-Oblique-65"/>
     <use transform="translate(312.8125 0.125)" xlink:href="#DejaVuSans-41"/>
     <use transform="translate(351.826172 0.125)" xlink:href="#DejaVuSans-32"/>
     <use transform="translate(383.613281 0.125)" xlink:href="#DejaVuSans-61"/>
     <use transform="translate(467.402344 0.125)" xlink:href="#DejaVuSans-32"/>
     <use transform="translate(499.189453 0.125)" xlink:href="#DejaVuSans-40"/>
     <use transform="translate(538.203125 0.125)" xlink:href="#DejaVuSans-49"/>
     <use transform="translate(601.826172 0.125)" xlink:href="#DejaVuSans-53"/>
     <use transform="translate(665.449219 0.125)" xlink:href="#DejaVuSans-44"/>
     <use transform="translate(697.236328 0.125)" xlink:href="#DejaVuSans-32"/>
     <use transform="translate(729.023438 0.125)" xlink:href="#DejaVuSans-50"/>
     <use transform="translate(792.646484 0.125)" xlink:href="#DejaVuSans-55"/>
     <use transform="translate(856.269531 0.125)" xlink:href="#DejaVuSans-41"/>
    </g>
   </g>
   <g id="text_19">
    <!-- $(L_M,K_M)$ = (135, 73) -->
    <g transform="translate(583.680125 69.485794)scale(0.14 -0.14)">
     <defs>
      <path d="M 16.890625 72.90625 
L 31.6875 72.90625 
L 40.1875 23.78125 
L 68.40625 72.90625 
L 83.59375 72.90625 
L 69.390625 0 
L 59.8125 0 
L 72.21875 63.921875 
L 43.609375 14.015625 
L 33.984375 14.015625 
L 24.703125 64.109375 
L 12.3125 0 
L 2.6875 0 
z
" id="DejaVuSans-Oblique-77"/>
      <path d="M 40.578125 39.3125 
Q 47.65625 37.796875 51.625 33 
Q 55.609375 28.21875 55.609375 21.1875 
Q 55.609375 10.40625 48.1875 4.484375 
Q 40.765625 -1.421875 27.09375 -1.421875 
Q 22.515625 -1.421875 17.65625 -0.515625 
Q 12.796875 0.390625 7.625 2.203125 
L 7.625 11.71875 
Q 11.71875 9.328125 16.59375 8.109375 
Q 21.484375 6.890625 26.8125 6.890625 
Q 36.078125 6.890625 40.9375 10.546875 
Q 45.796875 14.203125 45.796875 21.1875 
Q 45.796875 27.640625 41.28125 31.265625 
Q 36.765625 34.90625 28.71875 34.90625 
L 20.21875 34.90625 
L 20.21875 43.015625 
L 29.109375 43.015625 
Q 36.375 43.015625 40.234375 45.921875 
Q 44.09375 48.828125 44.09375 54.296875 
Q 44.09375 59.90625 40.109375 62.90625 
Q 36.140625 65.921875 28.71875 65.921875 
Q 24.65625 65.921875 20.015625 65.03125 
Q 15.375 64.15625 9.8125 62.3125 
L 9.8125 71.09375 
Q 15.4375 72.65625 20.34375 73.4375 
Q 25.25 74.21875 29.59375 74.21875 
Q 40.828125 74.21875 47.359375 69.109375 
Q 53.90625 64.015625 53.90625 55.328125 
Q 53.90625 49.265625 50.4375 45.09375 
Q 46.96875 40.921875 40.578125 39.3125 
z
" id="DejaVuSans-51"/>
     </defs>
     <use transform="translate(0 0.125)" xlink:href="#DejaVuSans-40"/>
     <use transform="translate(39.013672 0.125)" xlink:href="#DejaVuSans-Oblique-76"/>
     <use transform="translate(94.726562 -16.28125)scale(0.7)" xlink:href="#DejaVuSans-Oblique-77"/>
     <use transform="translate(157.856445 0.125)" xlink:href="#DejaVuSans-44"/>
     <use transform="translate(209.125977 0.125)" xlink:href="#DejaVuSans-Oblique-75"/>
     <use transform="translate(274.702148 -16.28125)scale(0.7)" xlink:href="#DejaVuSans-Oblique-77"/>
     <use transform="translate(337.832031 0.125)" xlink:href="#DejaVuSans-41"/>
     <use transform="translate(376.845703 0.125)" xlink:href="#DejaVuSans-32"/>
     <use transform="translate(408.632812 0.125)" xlink:href="#DejaVuSans-61"/>
     <use transform="translate(492.421875 0.125)" xlink:href="#DejaVuSans-32"/>
     <use transform="translate(524.208984 0.125)" xlink:href="#DejaVuSans-40"/>
     <use transform="translate(563.222656 0.125)" xlink:href="#DejaVuSans-49"/>
     <use transform="translate(626.845703 0.125)" xlink:href="#DejaVuSans-51"/>
     <use transform="translate(690.46875 0.125)" xlink:href="#DejaVuSans-53"/>
     <use transform="translate(754.091797 0.125)" xlink:href="#DejaVuSans-44"/>
     <use transform="translate(785.878906 0.125)" xlink:href="#DejaVuSans-32"/>
     <use transform="translate(817.666016 0.125)" xlink:href="#DejaVuSans-55"/>
     <use transform="translate(881.289062 0.125)" xlink:href="#DejaVuSans-51"/>
     <use transform="translate(944.912109 0.125)" xlink:href="#DejaVuSans-41"/>
    </g>
   </g>
   <g id="text_20">
    <!-- $(Q_A, Q_M)$ = (21,106 ) -->
    <g transform="translate(583.680125 89.055394)scale(0.14 -0.14)">
     <defs>
      <path d="M 36.078125 -1.3125 
Q 35.546875 -1.375 34.953125 -1.390625 
Q 34.375 -1.421875 33.203125 -1.421875 
Q 19.53125 -1.421875 11.8125 6.421875 
Q 4.109375 14.265625 4.109375 28.078125 
Q 4.109375 36.234375 7.0625 44.4375 
Q 10.015625 52.640625 15.28125 59.1875 
Q 21.390625 66.703125 29.03125 70.453125 
Q 36.671875 74.21875 45.90625 74.21875 
Q 59.28125 74.21875 66.984375 66.328125 
Q 74.703125 58.453125 74.703125 44.828125 
Q 74.703125 30.125 66.640625 17.921875 
Q 58.59375 5.71875 45.609375 0.6875 
L 55.515625 -12.890625 
L 44.484375 -12.890625 
z
M 45.609375 66.21875 
Q 37.5 66.21875 31.296875 62.28125 
Q 25.09375 58.34375 20.515625 50.296875 
Q 17.578125 45.171875 16.03125 39.40625 
Q 14.5 33.640625 14.5 27.78125 
Q 14.5 17.625 19.359375 12.109375 
Q 24.21875 6.59375 33.109375 6.59375 
Q 41.109375 6.59375 47.375 10.5625 
Q 53.65625 14.546875 58.109375 22.40625 
Q 61.078125 27.6875 62.640625 33.46875 
Q 64.203125 39.265625 64.203125 45.015625 
Q 64.203125 55.125 59.3125 60.671875 
Q 54.4375 66.21875 45.609375 66.21875 
z
" id="DejaVuSans-Oblique-81"/>
     </defs>
     <use transform="translate(0 0.125)" xlink:href="#DejaVuSans-40"/>
     <use transform="translate(39.013672 0.125)" xlink:href="#DejaVuSans-Oblique-81"/>
     <use transform="translate(117.724609 -16.28125)scale(0.7)" xlink:href="#DejaVuSans-Oblique-65"/>
     <use transform="translate(168.344727 0.125)" xlink:href="#DejaVuSans-44"/>
     <use transform="translate(219.614258 0.125)" xlink:href="#DejaVuSans-Oblique-81"/>
     <use transform="translate(298.325195 -16.28125)scale(0.7)" xlink:href="#DejaVuSans-Oblique-77"/>
     <use transform="translate(361.455078 0.125)" xlink:href="#DejaVuSans-41"/>
     <use transform="translate(400.46875 0.125)" xlink:href="#DejaVuSans-32"/>
     <use transform="translate(432.255859 0.125)" xlink:href="#DejaVuSans-61"/>
     <use transform="translate(516.044922 0.125)" xlink:href="#DejaVuSans-32"/>
     <use transform="translate(547.832031 0.125)" xlink:href="#DejaVuSans-40"/>
     <use transform="translate(586.845703 0.125)" xlink:href="#DejaVuSans-50"/>
     <use transform="translate(650.46875 0.125)" xlink:href="#DejaVuSans-49"/>
     <use transform="translate(714.091797 0.125)" xlink:href="#DejaVuSans-44"/>
     <use transform="translate(745.878906 0.125)" xlink:href="#DejaVuSans-49"/>
     <use transform="translate(809.501953 0.125)" xlink:href="#DejaVuSans-48"/>
     <use transform="translate(873.125 0.125)" xlink:href="#DejaVuSans-54"/>
     <use transform="translate(936.748047 0.125)" xlink:href="#DejaVuSans-32"/>
     <use transform="translate(968.535156 0.125)" xlink:href="#DejaVuSans-41"/>
    </g>
   </g>
  </g>
 </g>
 <defs>
  <clipPath id="p7088594902">
   <rect height="326.16" width="489.24" x="69.978125" y="14.038594"/>
  </clipPath>
 </defs>
</svg>
