<?xml version="1.0" encoding="utf-8" standalone="no"?>
<!DOCTYPE svg PUBLIC "-//W3C//DTD SVG 1.1//EN"
  "http://www.w3.org/Graphics/SVG/1.1/DTD/svg11.dtd">
<!-- Created with matplotlib (https://matplotlib.org/) -->
<svg height="399.939219pt" version="1.1" viewBox="0 0 405.7175 399.939219" width="405.7175pt" xmlns="http://www.w3.org/2000/svg" xmlns:xlink="http://www.w3.org/1999/xlink">
 <metadata>
  <rdf:RDF xmlns:cc="http://creativecommons.org/ns#" xmlns:dc="http://purl.org/dc/elements/1.1/" xmlns:rdf="http://www.w3.org/1999/02/22-rdf-syntax-ns#">
   <cc:Work>
    <dc:type rdf:resource="http://purl.org/dc/dcmitype/StillImage"/>
    <dc:date>2021-04-23T23:46:38.145889</dc:date>
    <dc:format>image/svg+xml</dc:format>
    <dc:creator>
     <cc:Agent>
      <dc:title>Matplotlib v3.3.4, https://matplotlib.org/</dc:title>
     </cc:Agent>
    </dc:creator>
   </cc:Work>
  </rdf:RDF>
 </metadata>
 <defs>
  <style type="text/css">*{stroke-linecap:butt;stroke-linejoin:round;}</style>
 </defs>
 <g id="figure_1">
  <g id="patch_1">
   <path d="M 0 399.939219 
L 405.7175 399.939219 
L 405.7175 0 
L 0 0 
z
" style="fill:none;"/>
  </g>
  <g id="axes_1">
   <g id="patch_2">
    <path d="M 60.905 340.198594 
L 387.065 340.198594 
L 387.065 14.038594 
L 60.905 14.038594 
z
" style="fill:#ffffff;"/>
   </g>
   <g id="matplotlib.axis_1">
    <g id="xtick_1">
     <g id="line2d_1">
      <path clip-path="url(#pc25c118322)" d="M 60.905 340.198594 
L 60.905 14.038594 
" style="fill:none;stroke:#b0b0b0;stroke-linecap:square;stroke-width:0.8;"/>
     </g>
     <g id="line2d_2">
      <defs>
       <path d="M 0 0 
L 0 3.5 
" id="mfa8a1a0f4a" style="stroke:#000000;stroke-width:0.8;"/>
      </defs>
      <g>
       <use style="stroke:#000000;stroke-width:0.8;" x="60.905" xlink:href="#mfa8a1a0f4a" y="340.198594"/>
      </g>
     </g>
     <g id="text_1">
      <!-- 0 -->
      <g transform="translate(55.17875 360.875781)scale(0.18 -0.18)">
       <defs>
        <path d="M 31.78125 66.40625 
Q 24.171875 66.40625 20.328125 58.90625 
Q 16.5 51.421875 16.5 36.375 
Q 16.5 21.390625 20.328125 13.890625 
Q 24.171875 6.390625 31.78125 6.390625 
Q 39.453125 6.390625 43.28125 13.890625 
Q 47.125 21.390625 47.125 36.375 
Q 47.125 51.421875 43.28125 58.90625 
Q 39.453125 66.40625 31.78125 66.40625 
z
M 31.78125 74.21875 
Q 44.046875 74.21875 50.515625 64.515625 
Q 56.984375 54.828125 56.984375 36.375 
Q 56.984375 17.96875 50.515625 8.265625 
Q 44.046875 -1.421875 31.78125 -1.421875 
Q 19.53125 -1.421875 13.0625 8.265625 
Q 6.59375 17.96875 6.59375 36.375 
Q 6.59375 54.828125 13.0625 64.515625 
Q 19.53125 74.21875 31.78125 74.21875 
z
" id="DejaVuSans-48"/>
       </defs>
       <use xlink:href="#DejaVuSans-48"/>
      </g>
     </g>
    </g>
    <g id="xtick_2">
     <g id="line2d_3">
      <path clip-path="url(#pc25c118322)" d="M 126.137 340.198594 
L 126.137 14.038594 
" style="fill:none;stroke:#b0b0b0;stroke-linecap:square;stroke-width:0.8;"/>
     </g>
     <g id="line2d_4">
      <g>
       <use style="stroke:#000000;stroke-width:0.8;" x="126.137" xlink:href="#mfa8a1a0f4a" y="340.198594"/>
      </g>
     </g>
     <g id="text_2">
      <!-- 2 -->
      <g transform="translate(120.41075 360.875781)scale(0.18 -0.18)">
       <defs>
        <path d="M 19.1875 8.296875 
L 53.609375 8.296875 
L 53.609375 0 
L 7.328125 0 
L 7.328125 8.296875 
Q 12.9375 14.109375 22.625 23.890625 
Q 32.328125 33.6875 34.8125 36.53125 
Q 39.546875 41.84375 41.421875 45.53125 
Q 43.3125 49.21875 43.3125 52.78125 
Q 43.3125 58.59375 39.234375 62.25 
Q 35.15625 65.921875 28.609375 65.921875 
Q 23.96875 65.921875 18.8125 64.3125 
Q 13.671875 62.703125 7.8125 59.421875 
L 7.8125 69.390625 
Q 13.765625 71.78125 18.9375 73 
Q 24.125 74.21875 28.421875 74.21875 
Q 39.75 74.21875 46.484375 68.546875 
Q 53.21875 62.890625 53.21875 53.421875 
Q 53.21875 48.921875 51.53125 44.890625 
Q 49.859375 40.875 45.40625 35.40625 
Q 44.1875 33.984375 37.640625 27.21875 
Q 31.109375 20.453125 19.1875 8.296875 
z
" id="DejaVuSans-50"/>
       </defs>
       <use xlink:href="#DejaVuSans-50"/>
      </g>
     </g>
    </g>
    <g id="xtick_3">
     <g id="line2d_5">
      <path clip-path="url(#pc25c118322)" d="M 191.369 340.198594 
L 191.369 14.038594 
" style="fill:none;stroke:#b0b0b0;stroke-linecap:square;stroke-width:0.8;"/>
     </g>
     <g id="line2d_6">
      <g>
       <use style="stroke:#000000;stroke-width:0.8;" x="191.369" xlink:href="#mfa8a1a0f4a" y="340.198594"/>
      </g>
     </g>
     <g id="text_3">
      <!-- 4 -->
      <g transform="translate(185.64275 360.875781)scale(0.18 -0.18)">
       <defs>
        <path d="M 37.796875 64.3125 
L 12.890625 25.390625 
L 37.796875 25.390625 
z
M 35.203125 72.90625 
L 47.609375 72.90625 
L 47.609375 25.390625 
L 58.015625 25.390625 
L 58.015625 17.1875 
L 47.609375 17.1875 
L 47.609375 0 
L 37.796875 0 
L 37.796875 17.1875 
L 4.890625 17.1875 
L 4.890625 26.703125 
z
" id="DejaVuSans-52"/>
       </defs>
       <use xlink:href="#DejaVuSans-52"/>
      </g>
     </g>
    </g>
    <g id="xtick_4">
     <g id="line2d_7">
      <path clip-path="url(#pc25c118322)" d="M 256.601 340.198594 
L 256.601 14.038594 
" style="fill:none;stroke:#b0b0b0;stroke-linecap:square;stroke-width:0.8;"/>
     </g>
     <g id="line2d_8">
      <g>
       <use style="stroke:#000000;stroke-width:0.8;" x="256.601" xlink:href="#mfa8a1a0f4a" y="340.198594"/>
      </g>
     </g>
     <g id="text_4">
      <!-- 6 -->
      <g transform="translate(250.87475 360.875781)scale(0.18 -0.18)">
       <defs>
        <path d="M 33.015625 40.375 
Q 26.375 40.375 22.484375 35.828125 
Q 18.609375 31.296875 18.609375 23.390625 
Q 18.609375 15.53125 22.484375 10.953125 
Q 26.375 6.390625 33.015625 6.390625 
Q 39.65625 6.390625 43.53125 10.953125 
Q 47.40625 15.53125 47.40625 23.390625 
Q 47.40625 31.296875 43.53125 35.828125 
Q 39.65625 40.375 33.015625 40.375 
z
M 52.59375 71.296875 
L 52.59375 62.3125 
Q 48.875 64.0625 45.09375 64.984375 
Q 41.3125 65.921875 37.59375 65.921875 
Q 27.828125 65.921875 22.671875 59.328125 
Q 17.53125 52.734375 16.796875 39.40625 
Q 19.671875 43.65625 24.015625 45.921875 
Q 28.375 48.1875 33.59375 48.1875 
Q 44.578125 48.1875 50.953125 41.515625 
Q 57.328125 34.859375 57.328125 23.390625 
Q 57.328125 12.15625 50.6875 5.359375 
Q 44.046875 -1.421875 33.015625 -1.421875 
Q 20.359375 -1.421875 13.671875 8.265625 
Q 6.984375 17.96875 6.984375 36.375 
Q 6.984375 53.65625 15.1875 63.9375 
Q 23.390625 74.21875 37.203125 74.21875 
Q 40.921875 74.21875 44.703125 73.484375 
Q 48.484375 72.75 52.59375 71.296875 
z
" id="DejaVuSans-54"/>
       </defs>
       <use xlink:href="#DejaVuSans-54"/>
      </g>
     </g>
    </g>
    <g id="xtick_5">
     <g id="line2d_9">
      <path clip-path="url(#pc25c118322)" d="M 321.833 340.198594 
L 321.833 14.038594 
" style="fill:none;stroke:#b0b0b0;stroke-linecap:square;stroke-width:0.8;"/>
     </g>
     <g id="line2d_10">
      <g>
       <use style="stroke:#000000;stroke-width:0.8;" x="321.833" xlink:href="#mfa8a1a0f4a" y="340.198594"/>
      </g>
     </g>
     <g id="text_5">
      <!-- 8 -->
      <g transform="translate(316.10675 360.875781)scale(0.18 -0.18)">
       <defs>
        <path d="M 31.78125 34.625 
Q 24.75 34.625 20.71875 30.859375 
Q 16.703125 27.09375 16.703125 20.515625 
Q 16.703125 13.921875 20.71875 10.15625 
Q 24.75 6.390625 31.78125 6.390625 
Q 38.8125 6.390625 42.859375 10.171875 
Q 46.921875 13.96875 46.921875 20.515625 
Q 46.921875 27.09375 42.890625 30.859375 
Q 38.875 34.625 31.78125 34.625 
z
M 21.921875 38.8125 
Q 15.578125 40.375 12.03125 44.71875 
Q 8.5 49.078125 8.5 55.328125 
Q 8.5 64.0625 14.71875 69.140625 
Q 20.953125 74.21875 31.78125 74.21875 
Q 42.671875 74.21875 48.875 69.140625 
Q 55.078125 64.0625 55.078125 55.328125 
Q 55.078125 49.078125 51.53125 44.71875 
Q 48 40.375 41.703125 38.8125 
Q 48.828125 37.15625 52.796875 32.3125 
Q 56.78125 27.484375 56.78125 20.515625 
Q 56.78125 9.90625 50.3125 4.234375 
Q 43.84375 -1.421875 31.78125 -1.421875 
Q 19.734375 -1.421875 13.25 4.234375 
Q 6.78125 9.90625 6.78125 20.515625 
Q 6.78125 27.484375 10.78125 32.3125 
Q 14.796875 37.15625 21.921875 38.8125 
z
M 18.3125 54.390625 
Q 18.3125 48.734375 21.84375 45.5625 
Q 25.390625 42.390625 31.78125 42.390625 
Q 38.140625 42.390625 41.71875 45.5625 
Q 45.3125 48.734375 45.3125 54.390625 
Q 45.3125 60.0625 41.71875 63.234375 
Q 38.140625 66.40625 31.78125 66.40625 
Q 25.390625 66.40625 21.84375 63.234375 
Q 18.3125 60.0625 18.3125 54.390625 
z
" id="DejaVuSans-56"/>
       </defs>
       <use xlink:href="#DejaVuSans-56"/>
      </g>
     </g>
    </g>
    <g id="xtick_6">
     <g id="line2d_11">
      <path clip-path="url(#pc25c118322)" d="M 387.065 340.198594 
L 387.065 14.038594 
" style="fill:none;stroke:#b0b0b0;stroke-linecap:square;stroke-width:0.8;"/>
     </g>
     <g id="line2d_12">
      <g>
       <use style="stroke:#000000;stroke-width:0.8;" x="387.065" xlink:href="#mfa8a1a0f4a" y="340.198594"/>
      </g>
     </g>
     <g id="text_6">
      <!-- 10 -->
      <g transform="translate(375.6125 360.875781)scale(0.18 -0.18)">
       <defs>
        <path d="M 12.40625 8.296875 
L 28.515625 8.296875 
L 28.515625 63.921875 
L 10.984375 60.40625 
L 10.984375 69.390625 
L 28.421875 72.90625 
L 38.28125 72.90625 
L 38.28125 8.296875 
L 54.390625 8.296875 
L 54.390625 0 
L 12.40625 0 
z
" id="DejaVuSans-49"/>
       </defs>
       <use xlink:href="#DejaVuSans-49"/>
       <use x="63.623047" xlink:href="#DejaVuSans-48"/>
      </g>
     </g>
    </g>
    <g id="text_7">
     <!-- $\frac{K}{L}$ -->
     <g transform="translate(218.675 385.719219)scale(0.18 -0.18)">
      <defs>
       <path d="M 16.890625 72.90625 
L 26.8125 72.90625 
L 20.796875 42.1875 
L 59.078125 72.90625 
L 72.21875 72.90625 
L 28.90625 38.09375 
L 60.59375 0 
L 48.578125 0 
L 19.484375 35.5 
L 12.59375 0 
L 2.6875 0 
z
" id="DejaVuSans-Oblique-75"/>
       <path d="M 16.796875 72.90625 
L 26.703125 72.90625 
L 14.203125 8.203125 
L 49.703125 8.203125 
L 48.09375 0 
L 2.6875 0 
z
" id="DejaVuSans-Oblique-76"/>
      </defs>
      <use transform="translate(0 43.965625)scale(0.7)" xlink:href="#DejaVuSans-Oblique-75"/>
      <use transform="translate(3 -38.31875)scale(0.7)" xlink:href="#DejaVuSans-Oblique-76"/>
      <path d="M 0 18.965625 
L 0 25.215625 
L 45.90332 25.215625 
L 45.90332 18.965625 
L 0 18.965625 
z
"/>
     </g>
    </g>
   </g>
   <g id="matplotlib.axis_2">
    <g id="ytick_1">
     <g id="line2d_13">
      <path clip-path="url(#pc25c118322)" d="M 60.905 340.198594 
L 387.065 340.198594 
" style="fill:none;stroke:#b0b0b0;stroke-linecap:square;stroke-width:0.8;"/>
     </g>
     <g id="line2d_14">
      <defs>
       <path d="M 0 0 
L -3.5 0 
" id="m76d110a15c" style="stroke:#000000;stroke-width:0.8;"/>
      </defs>
      <g>
       <use style="stroke:#000000;stroke-width:0.8;" x="60.905" xlink:href="#m76d110a15c" y="340.198594"/>
      </g>
     </g>
     <g id="text_8">
      <!-- 0 -->
      <g transform="translate(42.4525 347.037188)scale(0.18 -0.18)">
       <use xlink:href="#DejaVuSans-48"/>
      </g>
     </g>
    </g>
    <g id="ytick_2">
     <g id="line2d_15">
      <path clip-path="url(#pc25c118322)" d="M 60.905 274.966594 
L 387.065 274.966594 
" style="fill:none;stroke:#b0b0b0;stroke-linecap:square;stroke-width:0.8;"/>
     </g>
     <g id="line2d_16">
      <g>
       <use style="stroke:#000000;stroke-width:0.8;" x="60.905" xlink:href="#m76d110a15c" y="274.966594"/>
      </g>
     </g>
     <g id="text_9">
      <!-- 2 -->
      <g transform="translate(42.4525 281.805187)scale(0.18 -0.18)">
       <use xlink:href="#DejaVuSans-50"/>
      </g>
     </g>
    </g>
    <g id="ytick_3">
     <g id="line2d_17">
      <path clip-path="url(#pc25c118322)" d="M 60.905 209.734594 
L 387.065 209.734594 
" style="fill:none;stroke:#b0b0b0;stroke-linecap:square;stroke-width:0.8;"/>
     </g>
     <g id="line2d_18">
      <g>
       <use style="stroke:#000000;stroke-width:0.8;" x="60.905" xlink:href="#m76d110a15c" y="209.734594"/>
      </g>
     </g>
     <g id="text_10">
      <!-- 4 -->
      <g transform="translate(42.4525 216.573187)scale(0.18 -0.18)">
       <use xlink:href="#DejaVuSans-52"/>
      </g>
     </g>
    </g>
    <g id="ytick_4">
     <g id="line2d_19">
      <path clip-path="url(#pc25c118322)" d="M 60.905 144.502594 
L 387.065 144.502594 
" style="fill:none;stroke:#b0b0b0;stroke-linecap:square;stroke-width:0.8;"/>
     </g>
     <g id="line2d_20">
      <g>
       <use style="stroke:#000000;stroke-width:0.8;" x="60.905" xlink:href="#m76d110a15c" y="144.502594"/>
      </g>
     </g>
     <g id="text_11">
      <!-- 6 -->
      <g transform="translate(42.4525 151.341187)scale(0.18 -0.18)">
       <use xlink:href="#DejaVuSans-54"/>
      </g>
     </g>
    </g>
    <g id="ytick_5">
     <g id="line2d_21">
      <path clip-path="url(#pc25c118322)" d="M 60.905 79.270594 
L 387.065 79.270594 
" style="fill:none;stroke:#b0b0b0;stroke-linecap:square;stroke-width:0.8;"/>
     </g>
     <g id="line2d_22">
      <g>
       <use style="stroke:#000000;stroke-width:0.8;" x="60.905" xlink:href="#m76d110a15c" y="79.270594"/>
      </g>
     </g>
     <g id="text_12">
      <!-- 8 -->
      <g transform="translate(42.4525 86.109187)scale(0.18 -0.18)">
       <use xlink:href="#DejaVuSans-56"/>
      </g>
     </g>
    </g>
    <g id="ytick_6">
     <g id="line2d_23">
      <path clip-path="url(#pc25c118322)" d="M 60.905 14.038594 
L 387.065 14.038594 
" style="fill:none;stroke:#b0b0b0;stroke-linecap:square;stroke-width:0.8;"/>
     </g>
     <g id="line2d_24">
      <g>
       <use style="stroke:#000000;stroke-width:0.8;" x="60.905" xlink:href="#m76d110a15c" y="14.038594"/>
      </g>
     </g>
     <g id="text_13">
      <!-- 10 -->
      <g transform="translate(31 20.877187)scale(0.18 -0.18)">
       <use xlink:href="#DejaVuSans-49"/>
       <use x="63.623047" xlink:href="#DejaVuSans-48"/>
      </g>
     </g>
    </g>
    <g id="text_14">
     <!-- $\frac{w}{r}$ - - wage-rental -->
     <g transform="translate(22.14 249.478594)rotate(-90)scale(0.18 -0.18)">
      <defs>
       <path d="M 8.5 54.6875 
L 17.390625 54.6875 
L 19.671875 10.6875 
L 40.09375 54.6875 
L 50.484375 54.6875 
L 53.515625 10.6875 
L 72.90625 54.6875 
L 81.890625 54.6875 
L 56.890625 0 
L 46.390625 0 
L 43.703125 45.3125 
L 22.796875 0 
L 12.203125 0 
z
" id="DejaVuSans-Oblique-119"/>
       <path d="M 44.578125 46.390625 
Q 43.21875 47.125 41.453125 47.515625 
Q 39.703125 47.90625 37.703125 47.90625 
Q 30.515625 47.90625 25.140625 42.453125 
Q 19.78125 37.015625 18.015625 27.875 
L 12.5 0 
L 3.515625 0 
L 14.203125 54.6875 
L 23.1875 54.6875 
L 21.484375 46.1875 
Q 25.046875 50.921875 30 53.453125 
Q 34.96875 56 40.578125 56 
Q 42.046875 56 43.453125 55.828125 
Q 44.875 55.671875 46.296875 55.28125 
z
" id="DejaVuSans-Oblique-114"/>
       <path id="DejaVuSans-32"/>
       <path d="M 4.890625 31.390625 
L 31.203125 31.390625 
L 31.203125 23.390625 
L 4.890625 23.390625 
z
" id="DejaVuSans-45"/>
       <path d="M 4.203125 54.6875 
L 13.1875 54.6875 
L 24.421875 12.015625 
L 35.59375 54.6875 
L 46.1875 54.6875 
L 57.421875 12.015625 
L 68.609375 54.6875 
L 77.59375 54.6875 
L 63.28125 0 
L 52.6875 0 
L 40.921875 44.828125 
L 29.109375 0 
L 18.5 0 
z
" id="DejaVuSans-119"/>
       <path d="M 34.28125 27.484375 
Q 23.390625 27.484375 19.1875 25 
Q 14.984375 22.515625 14.984375 16.5 
Q 14.984375 11.71875 18.140625 8.90625 
Q 21.296875 6.109375 26.703125 6.109375 
Q 34.1875 6.109375 38.703125 11.40625 
Q 43.21875 16.703125 43.21875 25.484375 
L 43.21875 27.484375 
z
M 52.203125 31.203125 
L 52.203125 0 
L 43.21875 0 
L 43.21875 8.296875 
Q 40.140625 3.328125 35.546875 0.953125 
Q 30.953125 -1.421875 24.3125 -1.421875 
Q 15.921875 -1.421875 10.953125 3.296875 
Q 6 8.015625 6 15.921875 
Q 6 25.140625 12.171875 29.828125 
Q 18.359375 34.515625 30.609375 34.515625 
L 43.21875 34.515625 
L 43.21875 35.40625 
Q 43.21875 41.609375 39.140625 45 
Q 35.0625 48.390625 27.6875 48.390625 
Q 23 48.390625 18.546875 47.265625 
Q 14.109375 46.140625 10.015625 43.890625 
L 10.015625 52.203125 
Q 14.9375 54.109375 19.578125 55.046875 
Q 24.21875 56 28.609375 56 
Q 40.484375 56 46.34375 49.84375 
Q 52.203125 43.703125 52.203125 31.203125 
z
" id="DejaVuSans-97"/>
       <path d="M 45.40625 27.984375 
Q 45.40625 37.75 41.375 43.109375 
Q 37.359375 48.484375 30.078125 48.484375 
Q 22.859375 48.484375 18.828125 43.109375 
Q 14.796875 37.75 14.796875 27.984375 
Q 14.796875 18.265625 18.828125 12.890625 
Q 22.859375 7.515625 30.078125 7.515625 
Q 37.359375 7.515625 41.375 12.890625 
Q 45.40625 18.265625 45.40625 27.984375 
z
M 54.390625 6.78125 
Q 54.390625 -7.171875 48.1875 -13.984375 
Q 42 -20.796875 29.203125 -20.796875 
Q 24.46875 -20.796875 20.265625 -20.09375 
Q 16.0625 -19.390625 12.109375 -17.921875 
L 12.109375 -9.1875 
Q 16.0625 -11.328125 19.921875 -12.34375 
Q 23.78125 -13.375 27.78125 -13.375 
Q 36.625 -13.375 41.015625 -8.765625 
Q 45.40625 -4.15625 45.40625 5.171875 
L 45.40625 9.625 
Q 42.625 4.78125 38.28125 2.390625 
Q 33.9375 0 27.875 0 
Q 17.828125 0 11.671875 7.65625 
Q 5.515625 15.328125 5.515625 27.984375 
Q 5.515625 40.671875 11.671875 48.328125 
Q 17.828125 56 27.875 56 
Q 33.9375 56 38.28125 53.609375 
Q 42.625 51.21875 45.40625 46.390625 
L 45.40625 54.6875 
L 54.390625 54.6875 
z
" id="DejaVuSans-103"/>
       <path d="M 56.203125 29.59375 
L 56.203125 25.203125 
L 14.890625 25.203125 
Q 15.484375 15.921875 20.484375 11.0625 
Q 25.484375 6.203125 34.421875 6.203125 
Q 39.59375 6.203125 44.453125 7.46875 
Q 49.3125 8.734375 54.109375 11.28125 
L 54.109375 2.78125 
Q 49.265625 0.734375 44.1875 -0.34375 
Q 39.109375 -1.421875 33.890625 -1.421875 
Q 20.796875 -1.421875 13.15625 6.1875 
Q 5.515625 13.8125 5.515625 26.8125 
Q 5.515625 40.234375 12.765625 48.109375 
Q 20.015625 56 32.328125 56 
Q 43.359375 56 49.78125 48.890625 
Q 56.203125 41.796875 56.203125 29.59375 
z
M 47.21875 32.234375 
Q 47.125 39.59375 43.09375 43.984375 
Q 39.0625 48.390625 32.421875 48.390625 
Q 24.90625 48.390625 20.390625 44.140625 
Q 15.875 39.890625 15.1875 32.171875 
z
" id="DejaVuSans-101"/>
       <path d="M 41.109375 46.296875 
Q 39.59375 47.171875 37.8125 47.578125 
Q 36.03125 48 33.890625 48 
Q 26.265625 48 22.1875 43.046875 
Q 18.109375 38.09375 18.109375 28.8125 
L 18.109375 0 
L 9.078125 0 
L 9.078125 54.6875 
L 18.109375 54.6875 
L 18.109375 46.1875 
Q 20.953125 51.171875 25.484375 53.578125 
Q 30.03125 56 36.53125 56 
Q 37.453125 56 38.578125 55.875 
Q 39.703125 55.765625 41.0625 55.515625 
z
" id="DejaVuSans-114"/>
       <path d="M 54.890625 33.015625 
L 54.890625 0 
L 45.90625 0 
L 45.90625 32.71875 
Q 45.90625 40.484375 42.875 44.328125 
Q 39.84375 48.1875 33.796875 48.1875 
Q 26.515625 48.1875 22.3125 43.546875 
Q 18.109375 38.921875 18.109375 30.90625 
L 18.109375 0 
L 9.078125 0 
L 9.078125 54.6875 
L 18.109375 54.6875 
L 18.109375 46.1875 
Q 21.34375 51.125 25.703125 53.5625 
Q 30.078125 56 35.796875 56 
Q 45.21875 56 50.046875 50.171875 
Q 54.890625 44.34375 54.890625 33.015625 
z
" id="DejaVuSans-110"/>
       <path d="M 18.3125 70.21875 
L 18.3125 54.6875 
L 36.8125 54.6875 
L 36.8125 47.703125 
L 18.3125 47.703125 
L 18.3125 18.015625 
Q 18.3125 11.328125 20.140625 9.421875 
Q 21.96875 7.515625 27.59375 7.515625 
L 36.8125 7.515625 
L 36.8125 0 
L 27.59375 0 
Q 17.1875 0 13.234375 3.875 
Q 9.28125 7.765625 9.28125 18.015625 
L 9.28125 47.703125 
L 2.6875 47.703125 
L 2.6875 54.6875 
L 9.28125 54.6875 
L 9.28125 70.21875 
z
" id="DejaVuSans-116"/>
       <path d="M 9.421875 75.984375 
L 18.40625 75.984375 
L 18.40625 0 
L 9.421875 0 
z
" id="DejaVuSans-108"/>
      </defs>
      <use transform="translate(0 44.71875)scale(0.7)" xlink:href="#DejaVuSans-Oblique-119"/>
      <use transform="translate(14 -25.73125)scale(0.7)" xlink:href="#DejaVuSans-Oblique-114"/>
      <use transform="translate(69.750977 0.921875)" xlink:href="#DejaVuSans-32"/>
      <use transform="translate(101.538086 0.921875)" xlink:href="#DejaVuSans-45"/>
      <use transform="translate(137.62207 0.921875)" xlink:href="#DejaVuSans-45"/>
      <use transform="translate(173.706055 0.921875)" xlink:href="#DejaVuSans-32"/>
      <use transform="translate(205.493164 0.921875)" xlink:href="#DejaVuSans-119"/>
      <use transform="translate(287.280273 0.921875)" xlink:href="#DejaVuSans-97"/>
      <use transform="translate(348.55957 0.921875)" xlink:href="#DejaVuSans-103"/>
      <use transform="translate(412.036133 0.921875)" xlink:href="#DejaVuSans-101"/>
      <use transform="translate(473.55957 0.921875)" xlink:href="#DejaVuSans-45"/>
      <use transform="translate(509.643555 0.921875)" xlink:href="#DejaVuSans-114"/>
      <use transform="translate(550.756836 0.921875)" xlink:href="#DejaVuSans-101"/>
      <use transform="translate(612.280273 0.921875)" xlink:href="#DejaVuSans-110"/>
      <use transform="translate(675.65918 0.921875)" xlink:href="#DejaVuSans-116"/>
      <use transform="translate(714.868164 0.921875)" xlink:href="#DejaVuSans-97"/>
      <use transform="translate(776.147461 0.921875)" xlink:href="#DejaVuSans-108"/>
      <path d="M 0 19.71875 
L 0 25.96875 
L 57.250977 25.96875 
L 57.250977 19.71875 
L 0 19.71875 
z
"/>
     </g>
    </g>
   </g>
   <g id="line2d_25">
    <path clip-path="url(#pc25c118322)" d="M 60.905 340.198594 
L 65.846818 336.904048 
L 70.788636 333.609503 
L 75.730455 330.314957 
L 80.672273 327.020412 
L 85.614091 323.725866 
L 90.555909 320.431321 
L 95.497727 317.136776 
L 100.439545 313.84223 
L 105.381364 310.547685 
L 110.323182 307.253139 
L 115.265 303.958594 
L 120.206818 300.664048 
L 125.148636 297.369503 
L 130.090455 294.074957 
L 135.032273 290.780412 
L 139.974091 287.485866 
L 144.915909 284.191321 
L 149.857727 280.896776 
L 154.799545 277.60223 
L 159.741364 274.307685 
L 164.683182 271.013139 
L 169.625 267.718594 
L 174.566818 264.424048 
L 179.508636 261.129503 
L 184.450455 257.834957 
L 189.392273 254.540412 
L 194.334091 251.245866 
L 199.275909 247.951321 
L 204.217727 244.656776 
L 209.159545 241.36223 
L 214.101364 238.067685 
L 219.043182 234.773139 
L 223.985 231.478594 
L 228.926818 228.184048 
L 233.868636 224.889503 
L 238.810455 221.594957 
L 243.752273 218.300412 
L 248.694091 215.005866 
L 253.635909 211.711321 
L 258.577727 208.416776 
L 263.519545 205.12223 
L 268.461364 201.827685 
L 273.403182 198.533139 
L 278.345 195.238594 
L 283.286818 191.944048 
L 288.228636 188.649503 
L 293.170455 185.354957 
L 298.112273 182.060412 
L 303.054091 178.765866 
L 307.995909 175.471321 
L 312.937727 172.176776 
L 317.879545 168.88223 
L 322.821364 165.587685 
L 327.763182 162.293139 
L 332.705 158.998594 
L 337.646818 155.704048 
L 342.588636 152.409503 
L 347.530455 149.114957 
L 352.472273 145.820412 
L 357.414091 142.525866 
L 362.355909 139.231321 
L 367.297727 135.936776 
L 372.239545 132.64223 
L 377.181364 129.347685 
L 382.123182 126.053139 
L 387.065 122.758594 
L 392.006818 119.464048 
L 396.948636 116.169503 
L 401.890455 112.874957 
L 406.7175 109.656927 
" style="fill:none;stroke:#0072b2;stroke-linecap:square;stroke-width:4;"/>
   </g>
   <g id="line2d_26">
    <path clip-path="url(#pc25c118322)" d="M 60.905 340.198594 
L 63.101364 336.904048 
L 65.297727 333.609503 
L 67.494091 330.314957 
L 69.690455 327.020412 
L 71.886818 323.725866 
L 74.083182 320.431321 
L 76.279545 317.136776 
L 78.475909 313.84223 
L 80.672273 310.547685 
L 82.868636 307.253139 
L 85.065 303.958594 
L 87.261364 300.664048 
L 89.457727 297.369503 
L 91.654091 294.074957 
L 93.850455 290.780412 
L 96.046818 287.485866 
L 98.243182 284.191321 
L 100.439545 280.896776 
L 102.635909 277.60223 
L 104.832273 274.307685 
L 107.028636 271.013139 
L 109.225 267.718594 
L 111.421364 264.424048 
L 113.617727 261.129503 
L 115.814091 257.834957 
L 118.010455 254.540412 
L 120.206818 251.245866 
L 122.403182 247.951321 
L 124.599545 244.656776 
L 126.795909 241.36223 
L 128.992273 238.067685 
L 131.188636 234.773139 
L 133.385 231.478594 
L 135.581364 228.184048 
L 137.777727 224.889503 
L 139.974091 221.594957 
L 142.170455 218.300412 
L 144.366818 215.005866 
L 146.563182 211.711321 
L 148.759545 208.416776 
L 150.955909 205.12223 
L 153.152273 201.827685 
L 155.348636 198.533139 
L 157.545 195.238594 
L 159.741364 191.944048 
L 161.937727 188.649503 
L 164.134091 185.354957 
L 166.330455 182.060412 
L 168.526818 178.765866 
L 170.723182 175.471321 
L 172.919545 172.176776 
L 175.115909 168.88223 
L 177.312273 165.587685 
L 179.508636 162.293139 
L 181.705 158.998594 
L 183.901364 155.704048 
L 186.097727 152.409503 
L 188.294091 149.114957 
L 190.490455 145.820412 
L 192.686818 142.525866 
L 194.883182 139.231321 
L 197.079545 135.936776 
L 199.275909 132.64223 
L 201.472273 129.347685 
L 203.668636 126.053139 
L 205.865 122.758594 
L 208.061364 119.464048 
L 210.257727 116.169503 
L 212.454091 112.874957 
L 214.650455 109.580412 
L 216.846818 106.285866 
L 219.043182 102.991321 
L 221.239545 99.696776 
L 223.435909 96.40223 
L 225.632273 93.107685 
L 227.828636 89.813139 
L 230.025 86.518594 
L 232.221364 83.224048 
L 234.417727 79.929503 
L 236.614091 76.634957 
L 238.810455 73.340412 
L 241.006818 70.045866 
L 243.203182 66.751321 
L 245.399545 63.456776 
L 247.595909 60.16223 
L 249.792273 56.867685 
L 251.988636 53.573139 
L 254.185 50.278594 
L 256.381364 46.984048 
L 258.577727 43.689503 
L 260.774091 40.394957 
L 262.970455 37.100412 
L 265.166818 33.805866 
L 267.363182 30.511321 
L 269.559545 27.216776 
L 271.755909 23.92223 
L 273.952273 20.627685 
L 276.148636 17.333139 
L 278.345 14.038594 
" style="fill:none;stroke:#009e73;stroke-linecap:square;stroke-width:4;"/>
   </g>
   <g id="line2d_27">
    <path clip-path="url(#pc25c118322)" d="M 93.521 340.198594 
L 93.521 14.038594 
" style="fill:none;stroke:#0072b2;stroke-linecap:square;stroke-width:1.5;"/>
   </g>
   <g id="patch_3">
    <path d="M 60.905 340.198594 
L 60.905 14.038594 
" style="fill:none;stroke:#000000;stroke-linecap:square;stroke-linejoin:miter;stroke-width:0.8;"/>
   </g>
   <g id="patch_4">
    <path d="M 387.065 340.198594 
L 387.065 14.038594 
" style="fill:none;stroke:#000000;stroke-linecap:square;stroke-linejoin:miter;stroke-width:0.8;"/>
   </g>
   <g id="patch_5">
    <path d="M 60.905 340.198594 
L 387.065 340.198594 
" style="fill:none;stroke:#000000;stroke-linecap:square;stroke-linejoin:miter;stroke-width:0.8;"/>
   </g>
   <g id="text_15">
    <!-- $\frac{\bar K}{\bar L}$  -->
    <g transform="translate(109.829 46.654594)scale(0.18 -0.18)">
     <defs>
      <path d="M -39.40625 74.515625 
L -10.203125 74.515625 
L -10.203125 67.28125 
L -39.40625 67.28125 
z
" id="DejaVuSans-772"/>
     </defs>
     <use transform="translate(47.746094 56.842187)scale(0.7)" xlink:href="#DejaVuSans-772"/>
     <use transform="translate(0 44.151562)scale(0.7)" xlink:href="#DejaVuSans-Oblique-75"/>
     <use transform="translate(42.805859 -39.25625)scale(0.7)" xlink:href="#DejaVuSans-772"/>
     <use transform="translate(5 -51.946875)scale(0.7)" xlink:href="#DejaVuSans-Oblique-76"/>
     <use transform="translate(61.171875 0.354687)" xlink:href="#DejaVuSans-32"/>
     <path d="M 0 19.151562 
L 0 25.401562 
L 48.671875 25.401562 
L 48.671875 19.151562 
L 0 19.151562 
z
"/>
    </g>
   </g>
  </g>
 </g>
 <defs>
  <clipPath id="pc25c118322">
   <rect height="326.16" width="326.16" x="60.905" y="14.038594"/>
  </clipPath>
 </defs>
</svg>
