<?xml version="1.0" encoding="utf-8" standalone="no"?>
<!DOCTYPE svg PUBLIC "-//W3C//DTD SVG 1.1//EN"
  "http://www.w3.org/Graphics/SVG/1.1/DTD/svg11.dtd">
<!-- Created with matplotlib (https://matplotlib.org/) -->
<svg height="393.239844pt" version="1.1" viewBox="0 0 551.806125 393.239844" width="551.806125pt" xmlns="http://www.w3.org/2000/svg" xmlns:xlink="http://www.w3.org/1999/xlink">
 <metadata>
  <rdf:RDF xmlns:cc="http://creativecommons.org/ns#" xmlns:dc="http://purl.org/dc/elements/1.1/" xmlns:rdf="http://www.w3.org/1999/02/22-rdf-syntax-ns#">
   <cc:Work>
    <dc:type rdf:resource="http://purl.org/dc/dcmitype/StillImage"/>
    <dc:date>2021-04-23T23:46:41.208803</dc:date>
    <dc:format>image/svg+xml</dc:format>
    <dc:creator>
     <cc:Agent>
      <dc:title>Matplotlib v3.3.4, https://matplotlib.org/</dc:title>
     </cc:Agent>
    </dc:creator>
   </cc:Work>
  </rdf:RDF>
 </metadata>
 <defs>
  <style type="text/css">*{stroke-linecap:butt;stroke-linejoin:round;}</style>
 </defs>
 <g id="figure_1">
  <g id="patch_1">
   <path d="M 0 393.239844 
L 551.806125 393.239844 
L 551.806125 0 
L 0 0 
z
" style="fill:none;"/>
  </g>
  <g id="axes_1">
   <g id="patch_2">
    <path d="M 69.978125 340.198594 
L 396.138125 340.198594 
L 396.138125 14.038594 
L 69.978125 14.038594 
z
" style="fill:#ffffff;"/>
   </g>
   <g id="PathCollection_1">
    <defs>
     <path d="M 0 3 
C 0.795609 3 1.55874 2.683901 2.12132 2.12132 
C 2.683901 1.55874 3 0.795609 3 0 
C 3 -0.795609 2.683901 -1.55874 2.12132 -2.12132 
C 1.55874 -2.683901 0.795609 -3 0 -3 
C -0.795609 -3 -1.55874 -2.683901 -2.12132 -2.12132 
C -2.683901 -1.55874 -3 -0.795609 -3 0 
C -3 0.795609 -2.683901 1.55874 -2.12132 2.12132 
C -1.55874 2.683901 -0.795609 3 0 3 
z
" id="mcf486c3f07" style="stroke:#0072b2;"/>
    </defs>
    <g clip-path="url(#p13de2bd40a)">
     <use style="fill:#0072b2;stroke:#0072b2;" x="184.134125" xlink:href="#mcf486c3f07" y="128.194594"/>
    </g>
   </g>
   <g id="PathCollection_2">
    <defs>
     <path d="M 0 3 
C 0.795609 3 1.55874 2.683901 2.12132 2.12132 
C 2.683901 1.55874 3 0.795609 3 0 
C 3 -0.795609 2.683901 -1.55874 2.12132 -2.12132 
C 1.55874 -2.683901 0.795609 -3 0 -3 
C -0.795609 -3 -1.55874 -2.683901 -2.12132 -2.12132 
C -2.683901 -1.55874 -3 -0.795609 -3 0 
C -3 0.795609 -2.683901 1.55874 -2.12132 2.12132 
C -1.55874 2.683901 -0.795609 3 0 3 
z
" id="m02977eeeac" style="stroke:#009e73;"/>
    </defs>
    <g clip-path="url(#p13de2bd40a)">
     <use style="fill:#009e73;stroke:#009e73;" x="281.982125" xlink:href="#m02977eeeac" y="226.042594"/>
    </g>
   </g>
   <g id="PathCollection_3">
    <defs>
     <path d="M 0 3 
C 0.795609 3 1.55874 2.683901 2.12132 2.12132 
C 2.683901 1.55874 3 0.795609 3 0 
C 3 -0.795609 2.683901 -1.55874 2.12132 -2.12132 
C 1.55874 -2.683901 0.795609 -3 0 -3 
C -0.795609 -3 -1.55874 -2.683901 -2.12132 -2.12132 
C -2.683901 -1.55874 -3 -0.795609 -3 0 
C -3 0.795609 -2.683901 1.55874 -2.12132 2.12132 
C -1.55874 2.683901 -0.795609 3 0 3 
z
" id="m72cca602d0" style="stroke:#d55e00;"/>
    </defs>
    <g clip-path="url(#p13de2bd40a)">
     <use style="fill:#d55e00;stroke:#d55e00;" x="71.608925" xlink:href="#m72cca602d0" y="338.567794"/>
    </g>
   </g>
   <g id="matplotlib.axis_1">
    <g id="xtick_1">
     <g id="line2d_1">
      <path clip-path="url(#p13de2bd40a)" d="M 69.978125 340.198594 
L 69.978125 14.038594 
" style="fill:none;stroke:#b0b0b0;stroke-linecap:square;stroke-width:0.8;"/>
     </g>
     <g id="line2d_2">
      <defs>
       <path d="M 0 0 
L 0 3.5 
" id="mfc8180e549" style="stroke:#000000;stroke-width:0.8;"/>
      </defs>
      <g>
       <use style="stroke:#000000;stroke-width:0.8;" x="69.978125" xlink:href="#mfc8180e549" y="340.198594"/>
      </g>
     </g>
     <g id="text_1">
      <!-- 0 -->
      <g transform="translate(64.251875 360.875781)scale(0.18 -0.18)">
       <defs>
        <path d="M 31.78125 66.40625 
Q 24.171875 66.40625 20.328125 58.90625 
Q 16.5 51.421875 16.5 36.375 
Q 16.5 21.390625 20.328125 13.890625 
Q 24.171875 6.390625 31.78125 6.390625 
Q 39.453125 6.390625 43.28125 13.890625 
Q 47.125 21.390625 47.125 36.375 
Q 47.125 51.421875 43.28125 58.90625 
Q 39.453125 66.40625 31.78125 66.40625 
z
M 31.78125 74.21875 
Q 44.046875 74.21875 50.515625 64.515625 
Q 56.984375 54.828125 56.984375 36.375 
Q 56.984375 17.96875 50.515625 8.265625 
Q 44.046875 -1.421875 31.78125 -1.421875 
Q 19.53125 -1.421875 13.0625 8.265625 
Q 6.59375 17.96875 6.59375 36.375 
Q 6.59375 54.828125 13.0625 64.515625 
Q 19.53125 74.21875 31.78125 74.21875 
z
" id="DejaVuSans-48"/>
       </defs>
       <use xlink:href="#DejaVuSans-48"/>
      </g>
     </g>
    </g>
    <g id="xtick_2">
     <g id="line2d_3">
      <path clip-path="url(#p13de2bd40a)" d="M 135.210125 340.198594 
L 135.210125 14.038594 
" style="fill:none;stroke:#b0b0b0;stroke-linecap:square;stroke-width:0.8;"/>
     </g>
     <g id="line2d_4">
      <g>
       <use style="stroke:#000000;stroke-width:0.8;" x="135.210125" xlink:href="#mfc8180e549" y="340.198594"/>
      </g>
     </g>
     <g id="text_2">
      <!-- 20 -->
      <g transform="translate(123.757625 360.875781)scale(0.18 -0.18)">
       <defs>
        <path d="M 19.1875 8.296875 
L 53.609375 8.296875 
L 53.609375 0 
L 7.328125 0 
L 7.328125 8.296875 
Q 12.9375 14.109375 22.625 23.890625 
Q 32.328125 33.6875 34.8125 36.53125 
Q 39.546875 41.84375 41.421875 45.53125 
Q 43.3125 49.21875 43.3125 52.78125 
Q 43.3125 58.59375 39.234375 62.25 
Q 35.15625 65.921875 28.609375 65.921875 
Q 23.96875 65.921875 18.8125 64.3125 
Q 13.671875 62.703125 7.8125 59.421875 
L 7.8125 69.390625 
Q 13.765625 71.78125 18.9375 73 
Q 24.125 74.21875 28.421875 74.21875 
Q 39.75 74.21875 46.484375 68.546875 
Q 53.21875 62.890625 53.21875 53.421875 
Q 53.21875 48.921875 51.53125 44.890625 
Q 49.859375 40.875 45.40625 35.40625 
Q 44.1875 33.984375 37.640625 27.21875 
Q 31.109375 20.453125 19.1875 8.296875 
z
" id="DejaVuSans-50"/>
       </defs>
       <use xlink:href="#DejaVuSans-50"/>
       <use x="63.623047" xlink:href="#DejaVuSans-48"/>
      </g>
     </g>
    </g>
    <g id="xtick_3">
     <g id="line2d_5">
      <path clip-path="url(#p13de2bd40a)" d="M 200.442125 340.198594 
L 200.442125 14.038594 
" style="fill:none;stroke:#b0b0b0;stroke-linecap:square;stroke-width:0.8;"/>
     </g>
     <g id="line2d_6">
      <g>
       <use style="stroke:#000000;stroke-width:0.8;" x="200.442125" xlink:href="#mfc8180e549" y="340.198594"/>
      </g>
     </g>
     <g id="text_3">
      <!-- 40 -->
      <g transform="translate(188.989625 360.875781)scale(0.18 -0.18)">
       <defs>
        <path d="M 37.796875 64.3125 
L 12.890625 25.390625 
L 37.796875 25.390625 
z
M 35.203125 72.90625 
L 47.609375 72.90625 
L 47.609375 25.390625 
L 58.015625 25.390625 
L 58.015625 17.1875 
L 47.609375 17.1875 
L 47.609375 0 
L 37.796875 0 
L 37.796875 17.1875 
L 4.890625 17.1875 
L 4.890625 26.703125 
z
" id="DejaVuSans-52"/>
       </defs>
       <use xlink:href="#DejaVuSans-52"/>
       <use x="63.623047" xlink:href="#DejaVuSans-48"/>
      </g>
     </g>
    </g>
    <g id="xtick_4">
     <g id="line2d_7">
      <path clip-path="url(#p13de2bd40a)" d="M 265.674125 340.198594 
L 265.674125 14.038594 
" style="fill:none;stroke:#b0b0b0;stroke-linecap:square;stroke-width:0.8;"/>
     </g>
     <g id="line2d_8">
      <g>
       <use style="stroke:#000000;stroke-width:0.8;" x="265.674125" xlink:href="#mfc8180e549" y="340.198594"/>
      </g>
     </g>
     <g id="text_4">
      <!-- 60 -->
      <g transform="translate(254.221625 360.875781)scale(0.18 -0.18)">
       <defs>
        <path d="M 33.015625 40.375 
Q 26.375 40.375 22.484375 35.828125 
Q 18.609375 31.296875 18.609375 23.390625 
Q 18.609375 15.53125 22.484375 10.953125 
Q 26.375 6.390625 33.015625 6.390625 
Q 39.65625 6.390625 43.53125 10.953125 
Q 47.40625 15.53125 47.40625 23.390625 
Q 47.40625 31.296875 43.53125 35.828125 
Q 39.65625 40.375 33.015625 40.375 
z
M 52.59375 71.296875 
L 52.59375 62.3125 
Q 48.875 64.0625 45.09375 64.984375 
Q 41.3125 65.921875 37.59375 65.921875 
Q 27.828125 65.921875 22.671875 59.328125 
Q 17.53125 52.734375 16.796875 39.40625 
Q 19.671875 43.65625 24.015625 45.921875 
Q 28.375 48.1875 33.59375 48.1875 
Q 44.578125 48.1875 50.953125 41.515625 
Q 57.328125 34.859375 57.328125 23.390625 
Q 57.328125 12.15625 50.6875 5.359375 
Q 44.046875 -1.421875 33.015625 -1.421875 
Q 20.359375 -1.421875 13.671875 8.265625 
Q 6.984375 17.96875 6.984375 36.375 
Q 6.984375 53.65625 15.1875 63.9375 
Q 23.390625 74.21875 37.203125 74.21875 
Q 40.921875 74.21875 44.703125 73.484375 
Q 48.484375 72.75 52.59375 71.296875 
z
" id="DejaVuSans-54"/>
       </defs>
       <use xlink:href="#DejaVuSans-54"/>
       <use x="63.623047" xlink:href="#DejaVuSans-48"/>
      </g>
     </g>
    </g>
    <g id="xtick_5">
     <g id="line2d_9">
      <path clip-path="url(#p13de2bd40a)" d="M 330.906125 340.198594 
L 330.906125 14.038594 
" style="fill:none;stroke:#b0b0b0;stroke-linecap:square;stroke-width:0.8;"/>
     </g>
     <g id="line2d_10">
      <g>
       <use style="stroke:#000000;stroke-width:0.8;" x="330.906125" xlink:href="#mfc8180e549" y="340.198594"/>
      </g>
     </g>
     <g id="text_5">
      <!-- 80 -->
      <g transform="translate(319.453625 360.875781)scale(0.18 -0.18)">
       <defs>
        <path d="M 31.78125 34.625 
Q 24.75 34.625 20.71875 30.859375 
Q 16.703125 27.09375 16.703125 20.515625 
Q 16.703125 13.921875 20.71875 10.15625 
Q 24.75 6.390625 31.78125 6.390625 
Q 38.8125 6.390625 42.859375 10.171875 
Q 46.921875 13.96875 46.921875 20.515625 
Q 46.921875 27.09375 42.890625 30.859375 
Q 38.875 34.625 31.78125 34.625 
z
M 21.921875 38.8125 
Q 15.578125 40.375 12.03125 44.71875 
Q 8.5 49.078125 8.5 55.328125 
Q 8.5 64.0625 14.71875 69.140625 
Q 20.953125 74.21875 31.78125 74.21875 
Q 42.671875 74.21875 48.875 69.140625 
Q 55.078125 64.0625 55.078125 55.328125 
Q 55.078125 49.078125 51.53125 44.71875 
Q 48 40.375 41.703125 38.8125 
Q 48.828125 37.15625 52.796875 32.3125 
Q 56.78125 27.484375 56.78125 20.515625 
Q 56.78125 9.90625 50.3125 4.234375 
Q 43.84375 -1.421875 31.78125 -1.421875 
Q 19.734375 -1.421875 13.25 4.234375 
Q 6.78125 9.90625 6.78125 20.515625 
Q 6.78125 27.484375 10.78125 32.3125 
Q 14.796875 37.15625 21.921875 38.8125 
z
M 18.3125 54.390625 
Q 18.3125 48.734375 21.84375 45.5625 
Q 25.390625 42.390625 31.78125 42.390625 
Q 38.140625 42.390625 41.71875 45.5625 
Q 45.3125 48.734375 45.3125 54.390625 
Q 45.3125 60.0625 41.71875 63.234375 
Q 38.140625 66.40625 31.78125 66.40625 
Q 25.390625 66.40625 21.84375 63.234375 
Q 18.3125 60.0625 18.3125 54.390625 
z
" id="DejaVuSans-56"/>
       </defs>
       <use xlink:href="#DejaVuSans-56"/>
       <use x="63.623047" xlink:href="#DejaVuSans-48"/>
      </g>
     </g>
    </g>
    <g id="xtick_6">
     <g id="line2d_11">
      <path clip-path="url(#p13de2bd40a)" d="M 396.138125 340.198594 
L 396.138125 14.038594 
" style="fill:none;stroke:#b0b0b0;stroke-linecap:square;stroke-width:0.8;"/>
     </g>
     <g id="line2d_12">
      <g>
       <use style="stroke:#000000;stroke-width:0.8;" x="396.138125" xlink:href="#mfc8180e549" y="340.198594"/>
      </g>
     </g>
     <g id="text_6">
      <!-- 100 -->
      <g transform="translate(378.959375 360.875781)scale(0.18 -0.18)">
       <defs>
        <path d="M 12.40625 8.296875 
L 28.515625 8.296875 
L 28.515625 63.921875 
L 10.984375 60.40625 
L 10.984375 69.390625 
L 28.421875 72.90625 
L 38.28125 72.90625 
L 38.28125 8.296875 
L 54.390625 8.296875 
L 54.390625 0 
L 12.40625 0 
z
" id="DejaVuSans-49"/>
       </defs>
       <use xlink:href="#DejaVuSans-49"/>
       <use x="63.623047" xlink:href="#DejaVuSans-48"/>
       <use x="127.246094" xlink:href="#DejaVuSans-48"/>
      </g>
     </g>
    </g>
    <g id="text_7">
     <!-- L - Labor -->
     <g transform="translate(193.625469 382.296406)scale(0.18 -0.18)">
      <defs>
       <path d="M 9.8125 72.90625 
L 19.671875 72.90625 
L 19.671875 8.296875 
L 55.171875 8.296875 
L 55.171875 0 
L 9.8125 0 
z
" id="DejaVuSans-76"/>
       <path id="DejaVuSans-32"/>
       <path d="M 4.890625 31.390625 
L 31.203125 31.390625 
L 31.203125 23.390625 
L 4.890625 23.390625 
z
" id="DejaVuSans-45"/>
       <path d="M 34.28125 27.484375 
Q 23.390625 27.484375 19.1875 25 
Q 14.984375 22.515625 14.984375 16.5 
Q 14.984375 11.71875 18.140625 8.90625 
Q 21.296875 6.109375 26.703125 6.109375 
Q 34.1875 6.109375 38.703125 11.40625 
Q 43.21875 16.703125 43.21875 25.484375 
L 43.21875 27.484375 
z
M 52.203125 31.203125 
L 52.203125 0 
L 43.21875 0 
L 43.21875 8.296875 
Q 40.140625 3.328125 35.546875 0.953125 
Q 30.953125 -1.421875 24.3125 -1.421875 
Q 15.921875 -1.421875 10.953125 3.296875 
Q 6 8.015625 6 15.921875 
Q 6 25.140625 12.171875 29.828125 
Q 18.359375 34.515625 30.609375 34.515625 
L 43.21875 34.515625 
L 43.21875 35.40625 
Q 43.21875 41.609375 39.140625 45 
Q 35.0625 48.390625 27.6875 48.390625 
Q 23 48.390625 18.546875 47.265625 
Q 14.109375 46.140625 10.015625 43.890625 
L 10.015625 52.203125 
Q 14.9375 54.109375 19.578125 55.046875 
Q 24.21875 56 28.609375 56 
Q 40.484375 56 46.34375 49.84375 
Q 52.203125 43.703125 52.203125 31.203125 
z
" id="DejaVuSans-97"/>
       <path d="M 48.6875 27.296875 
Q 48.6875 37.203125 44.609375 42.84375 
Q 40.53125 48.484375 33.40625 48.484375 
Q 26.265625 48.484375 22.1875 42.84375 
Q 18.109375 37.203125 18.109375 27.296875 
Q 18.109375 17.390625 22.1875 11.75 
Q 26.265625 6.109375 33.40625 6.109375 
Q 40.53125 6.109375 44.609375 11.75 
Q 48.6875 17.390625 48.6875 27.296875 
z
M 18.109375 46.390625 
Q 20.953125 51.265625 25.265625 53.625 
Q 29.59375 56 35.59375 56 
Q 45.5625 56 51.78125 48.09375 
Q 58.015625 40.1875 58.015625 27.296875 
Q 58.015625 14.40625 51.78125 6.484375 
Q 45.5625 -1.421875 35.59375 -1.421875 
Q 29.59375 -1.421875 25.265625 0.953125 
Q 20.953125 3.328125 18.109375 8.203125 
L 18.109375 0 
L 9.078125 0 
L 9.078125 75.984375 
L 18.109375 75.984375 
z
" id="DejaVuSans-98"/>
       <path d="M 30.609375 48.390625 
Q 23.390625 48.390625 19.1875 42.75 
Q 14.984375 37.109375 14.984375 27.296875 
Q 14.984375 17.484375 19.15625 11.84375 
Q 23.34375 6.203125 30.609375 6.203125 
Q 37.796875 6.203125 41.984375 11.859375 
Q 46.1875 17.53125 46.1875 27.296875 
Q 46.1875 37.015625 41.984375 42.703125 
Q 37.796875 48.390625 30.609375 48.390625 
z
M 30.609375 56 
Q 42.328125 56 49.015625 48.375 
Q 55.71875 40.765625 55.71875 27.296875 
Q 55.71875 13.875 49.015625 6.21875 
Q 42.328125 -1.421875 30.609375 -1.421875 
Q 18.84375 -1.421875 12.171875 6.21875 
Q 5.515625 13.875 5.515625 27.296875 
Q 5.515625 40.765625 12.171875 48.375 
Q 18.84375 56 30.609375 56 
z
" id="DejaVuSans-111"/>
       <path d="M 41.109375 46.296875 
Q 39.59375 47.171875 37.8125 47.578125 
Q 36.03125 48 33.890625 48 
Q 26.265625 48 22.1875 43.046875 
Q 18.109375 38.09375 18.109375 28.8125 
L 18.109375 0 
L 9.078125 0 
L 9.078125 54.6875 
L 18.109375 54.6875 
L 18.109375 46.1875 
Q 20.953125 51.171875 25.484375 53.578125 
Q 30.03125 56 36.53125 56 
Q 37.453125 56 38.578125 55.875 
Q 39.703125 55.765625 41.0625 55.515625 
z
" id="DejaVuSans-114"/>
      </defs>
      <use xlink:href="#DejaVuSans-76"/>
      <use x="55.712891" xlink:href="#DejaVuSans-32"/>
      <use x="87.5" xlink:href="#DejaVuSans-45"/>
      <use x="123.583984" xlink:href="#DejaVuSans-32"/>
      <use x="155.371094" xlink:href="#DejaVuSans-76"/>
      <use x="211.083984" xlink:href="#DejaVuSans-97"/>
      <use x="272.363281" xlink:href="#DejaVuSans-98"/>
      <use x="335.839844" xlink:href="#DejaVuSans-111"/>
      <use x="397.021484" xlink:href="#DejaVuSans-114"/>
     </g>
    </g>
   </g>
   <g id="matplotlib.axis_2">
    <g id="ytick_1">
     <g id="line2d_13">
      <path clip-path="url(#p13de2bd40a)" d="M 69.978125 340.198594 
L 396.138125 340.198594 
" style="fill:none;stroke:#b0b0b0;stroke-linecap:square;stroke-width:0.8;"/>
     </g>
     <g id="line2d_14">
      <defs>
       <path d="M 0 0 
L -3.5 0 
" id="m02a3f04aec" style="stroke:#000000;stroke-width:0.8;"/>
      </defs>
      <g>
       <use style="stroke:#000000;stroke-width:0.8;" x="69.978125" xlink:href="#m02a3f04aec" y="340.198594"/>
      </g>
     </g>
     <g id="text_8">
      <!-- 0 -->
      <g transform="translate(51.525625 347.037187)scale(0.18 -0.18)">
       <use xlink:href="#DejaVuSans-48"/>
      </g>
     </g>
    </g>
    <g id="ytick_2">
     <g id="line2d_15">
      <path clip-path="url(#p13de2bd40a)" d="M 69.978125 274.966594 
L 396.138125 274.966594 
" style="fill:none;stroke:#b0b0b0;stroke-linecap:square;stroke-width:0.8;"/>
     </g>
     <g id="line2d_16">
      <g>
       <use style="stroke:#000000;stroke-width:0.8;" x="69.978125" xlink:href="#m02a3f04aec" y="274.966594"/>
      </g>
     </g>
     <g id="text_9">
      <!-- 20 -->
      <g transform="translate(40.073125 281.805187)scale(0.18 -0.18)">
       <use xlink:href="#DejaVuSans-50"/>
       <use x="63.623047" xlink:href="#DejaVuSans-48"/>
      </g>
     </g>
    </g>
    <g id="ytick_3">
     <g id="line2d_17">
      <path clip-path="url(#p13de2bd40a)" d="M 69.978125 209.734594 
L 396.138125 209.734594 
" style="fill:none;stroke:#b0b0b0;stroke-linecap:square;stroke-width:0.8;"/>
     </g>
     <g id="line2d_18">
      <g>
       <use style="stroke:#000000;stroke-width:0.8;" x="69.978125" xlink:href="#m02a3f04aec" y="209.734594"/>
      </g>
     </g>
     <g id="text_10">
      <!-- 40 -->
      <g transform="translate(40.073125 216.573187)scale(0.18 -0.18)">
       <use xlink:href="#DejaVuSans-52"/>
       <use x="63.623047" xlink:href="#DejaVuSans-48"/>
      </g>
     </g>
    </g>
    <g id="ytick_4">
     <g id="line2d_19">
      <path clip-path="url(#p13de2bd40a)" d="M 69.978125 144.502594 
L 396.138125 144.502594 
" style="fill:none;stroke:#b0b0b0;stroke-linecap:square;stroke-width:0.8;"/>
     </g>
     <g id="line2d_20">
      <g>
       <use style="stroke:#000000;stroke-width:0.8;" x="69.978125" xlink:href="#m02a3f04aec" y="144.502594"/>
      </g>
     </g>
     <g id="text_11">
      <!-- 60 -->
      <g transform="translate(40.073125 151.341187)scale(0.18 -0.18)">
       <use xlink:href="#DejaVuSans-54"/>
       <use x="63.623047" xlink:href="#DejaVuSans-48"/>
      </g>
     </g>
    </g>
    <g id="ytick_5">
     <g id="line2d_21">
      <path clip-path="url(#p13de2bd40a)" d="M 69.978125 79.270594 
L 396.138125 79.270594 
" style="fill:none;stroke:#b0b0b0;stroke-linecap:square;stroke-width:0.8;"/>
     </g>
     <g id="line2d_22">
      <g>
       <use style="stroke:#000000;stroke-width:0.8;" x="69.978125" xlink:href="#m02a3f04aec" y="79.270594"/>
      </g>
     </g>
     <g id="text_12">
      <!-- 80 -->
      <g transform="translate(40.073125 86.109187)scale(0.18 -0.18)">
       <use xlink:href="#DejaVuSans-56"/>
       <use x="63.623047" xlink:href="#DejaVuSans-48"/>
      </g>
     </g>
    </g>
    <g id="ytick_6">
     <g id="line2d_23">
      <path clip-path="url(#p13de2bd40a)" d="M 69.978125 14.038594 
L 396.138125 14.038594 
" style="fill:none;stroke:#b0b0b0;stroke-linecap:square;stroke-width:0.8;"/>
     </g>
     <g id="line2d_24">
      <g>
       <use style="stroke:#000000;stroke-width:0.8;" x="69.978125" xlink:href="#m02a3f04aec" y="14.038594"/>
      </g>
     </g>
     <g id="text_13">
      <!-- 100 -->
      <g transform="translate(28.620625 20.877187)scale(0.18 -0.18)">
       <use xlink:href="#DejaVuSans-49"/>
       <use x="63.623047" xlink:href="#DejaVuSans-48"/>
       <use x="127.246094" xlink:href="#DejaVuSans-48"/>
      </g>
     </g>
    </g>
    <g id="text_14">
     <!-- K - Capital -->
     <g transform="translate(20.877188 223.545937)rotate(-90)scale(0.18 -0.18)">
      <defs>
       <path d="M 9.8125 72.90625 
L 19.671875 72.90625 
L 19.671875 42.09375 
L 52.390625 72.90625 
L 65.09375 72.90625 
L 28.90625 38.921875 
L 67.671875 0 
L 54.6875 0 
L 19.671875 35.109375 
L 19.671875 0 
L 9.8125 0 
z
" id="DejaVuSans-75"/>
       <path d="M 64.40625 67.28125 
L 64.40625 56.890625 
Q 59.421875 61.53125 53.78125 63.8125 
Q 48.140625 66.109375 41.796875 66.109375 
Q 29.296875 66.109375 22.65625 58.46875 
Q 16.015625 50.828125 16.015625 36.375 
Q 16.015625 21.96875 22.65625 14.328125 
Q 29.296875 6.6875 41.796875 6.6875 
Q 48.140625 6.6875 53.78125 8.984375 
Q 59.421875 11.28125 64.40625 15.921875 
L 64.40625 5.609375 
Q 59.234375 2.09375 53.4375 0.328125 
Q 47.65625 -1.421875 41.21875 -1.421875 
Q 24.65625 -1.421875 15.125 8.703125 
Q 5.609375 18.84375 5.609375 36.375 
Q 5.609375 53.953125 15.125 64.078125 
Q 24.65625 74.21875 41.21875 74.21875 
Q 47.75 74.21875 53.53125 72.484375 
Q 59.328125 70.75 64.40625 67.28125 
z
" id="DejaVuSans-67"/>
       <path d="M 18.109375 8.203125 
L 18.109375 -20.796875 
L 9.078125 -20.796875 
L 9.078125 54.6875 
L 18.109375 54.6875 
L 18.109375 46.390625 
Q 20.953125 51.265625 25.265625 53.625 
Q 29.59375 56 35.59375 56 
Q 45.5625 56 51.78125 48.09375 
Q 58.015625 40.1875 58.015625 27.296875 
Q 58.015625 14.40625 51.78125 6.484375 
Q 45.5625 -1.421875 35.59375 -1.421875 
Q 29.59375 -1.421875 25.265625 0.953125 
Q 20.953125 3.328125 18.109375 8.203125 
z
M 48.6875 27.296875 
Q 48.6875 37.203125 44.609375 42.84375 
Q 40.53125 48.484375 33.40625 48.484375 
Q 26.265625 48.484375 22.1875 42.84375 
Q 18.109375 37.203125 18.109375 27.296875 
Q 18.109375 17.390625 22.1875 11.75 
Q 26.265625 6.109375 33.40625 6.109375 
Q 40.53125 6.109375 44.609375 11.75 
Q 48.6875 17.390625 48.6875 27.296875 
z
" id="DejaVuSans-112"/>
       <path d="M 9.421875 54.6875 
L 18.40625 54.6875 
L 18.40625 0 
L 9.421875 0 
z
M 9.421875 75.984375 
L 18.40625 75.984375 
L 18.40625 64.59375 
L 9.421875 64.59375 
z
" id="DejaVuSans-105"/>
       <path d="M 18.3125 70.21875 
L 18.3125 54.6875 
L 36.8125 54.6875 
L 36.8125 47.703125 
L 18.3125 47.703125 
L 18.3125 18.015625 
Q 18.3125 11.328125 20.140625 9.421875 
Q 21.96875 7.515625 27.59375 7.515625 
L 36.8125 7.515625 
L 36.8125 0 
L 27.59375 0 
Q 17.1875 0 13.234375 3.875 
Q 9.28125 7.765625 9.28125 18.015625 
L 9.28125 47.703125 
L 2.6875 47.703125 
L 2.6875 54.6875 
L 9.28125 54.6875 
L 9.28125 70.21875 
z
" id="DejaVuSans-116"/>
       <path d="M 9.421875 75.984375 
L 18.40625 75.984375 
L 18.40625 0 
L 9.421875 0 
z
" id="DejaVuSans-108"/>
      </defs>
      <use xlink:href="#DejaVuSans-75"/>
      <use x="65.576172" xlink:href="#DejaVuSans-32"/>
      <use x="97.363281" xlink:href="#DejaVuSans-45"/>
      <use x="133.447266" xlink:href="#DejaVuSans-32"/>
      <use x="165.234375" xlink:href="#DejaVuSans-67"/>
      <use x="235.058594" xlink:href="#DejaVuSans-97"/>
      <use x="296.337891" xlink:href="#DejaVuSans-112"/>
      <use x="359.814453" xlink:href="#DejaVuSans-105"/>
      <use x="387.597656" xlink:href="#DejaVuSans-116"/>
      <use x="426.806641" xlink:href="#DejaVuSans-97"/>
      <use x="488.085938" xlink:href="#DejaVuSans-108"/>
     </g>
    </g>
   </g>
   <g id="line2d_25">
    <path clip-path="url(#p13de2bd40a)" d="M 70.304285 339.592868 
L 73.595536 333.480545 
L 76.886787 327.368222 
L 80.178038 321.255899 
L 83.469289 315.143576 
L 86.76054 309.031252 
L 90.05179 302.918929 
L 93.343041 296.806606 
L 96.634292 290.694283 
L 99.925543 284.58196 
L 103.216794 278.469637 
L 106.508045 272.357314 
L 109.799296 266.244991 
L 113.090547 260.132668 
L 116.381798 254.020344 
L 119.673049 247.908021 
L 122.9643 241.795698 
L 126.25555 235.683375 
L 129.546801 229.571052 
L 132.838052 223.458729 
L 136.129303 217.346406 
L 139.420554 211.234083 
L 142.711805 205.121759 
L 146.003056 199.009436 
L 149.294307 192.897113 
L 152.585558 186.78479 
L 155.876809 180.672467 
L 159.16806 174.560144 
L 162.45931 168.447821 
L 165.750561 162.335498 
L 169.041812 156.223175 
L 172.333063 150.110851 
L 175.624314 143.998528 
L 178.915565 137.886205 
L 182.206816 131.773882 
L 185.498067 125.661559 
L 188.789318 119.549236 
L 192.080569 113.436913 
L 195.37182 107.32459 
L 198.66307 101.212266 
L 201.954321 95.099943 
L 205.245572 88.98762 
L 208.536823 82.875297 
L 211.828074 76.762974 
L 215.119325 70.650651 
L 218.410576 64.538328 
L 221.701827 58.426005 
L 224.993078 52.313682 
L 228.284329 46.201358 
L 231.57558 40.089035 
L 234.86683 33.976712 
L 238.158081 27.864389 
L 241.449332 21.752066 
L 244.740583 15.639743 
L 248.031834 9.52742 
L 251.323085 3.415097 
L 253.700445 -1 
" style="fill:none;stroke:#0072b2;stroke-dasharray:5.55,2.4;stroke-dashoffset:0;stroke-width:1.5;"/>
   </g>
   <g id="line2d_26">
    <path clip-path="url(#p13de2bd40a)" d="M 70.304285 340.022969 
L 73.595536 338.250757 
L 76.886787 336.478545 
L 80.178038 334.706333 
L 83.469289 332.934121 
L 86.76054 331.161909 
L 90.05179 329.389697 
L 93.343041 327.617485 
L 96.634292 325.845273 
L 99.925543 324.073061 
L 103.216794 322.300849 
L 106.508045 320.528637 
L 109.799296 318.756425 
L 113.090547 316.984213 
L 116.381798 315.212001 
L 119.673049 313.439789 
L 122.9643 311.667577 
L 126.25555 309.895365 
L 129.546801 308.123153 
L 132.838052 306.350941 
L 136.129303 304.578729 
L 139.420554 302.806517 
L 142.711805 301.034305 
L 146.003056 299.262092 
L 149.294307 297.48988 
L 152.585558 295.717668 
L 155.876809 293.945456 
L 159.16806 292.173244 
L 162.45931 290.401032 
L 165.750561 288.62882 
L 169.041812 286.856608 
L 172.333063 285.084396 
L 175.624314 283.312184 
L 178.915565 281.539972 
L 182.206816 279.76776 
L 185.498067 277.995548 
L 188.789318 276.223336 
L 192.080569 274.451124 
L 195.37182 272.678912 
L 198.66307 270.9067 
L 201.954321 269.134488 
L 205.245572 267.362276 
L 208.536823 265.590064 
L 211.828074 263.817852 
L 215.119325 262.04564 
L 218.410576 260.273428 
L 221.701827 258.501216 
L 224.993078 256.729004 
L 228.284329 254.956792 
L 231.57558 253.18458 
L 234.86683 251.412368 
L 238.158081 249.640156 
L 241.449332 247.867944 
L 244.740583 246.095732 
L 248.031834 244.32352 
L 251.323085 242.551308 
L 254.614336 240.779096 
L 257.905587 239.006884 
L 261.196838 237.234672 
L 264.488089 235.462459 
L 267.77934 233.690247 
L 271.07059 231.918035 
L 274.361841 230.145823 
L 277.653092 228.373611 
L 280.944343 226.601399 
L 284.235594 224.829187 
L 287.526845 223.056975 
L 290.818096 221.284763 
L 294.109347 219.512551 
L 297.400598 217.740339 
L 300.691849 215.968127 
L 303.9831 214.195915 
L 307.27435 212.423703 
L 310.565601 210.651491 
L 313.856852 208.879279 
L 317.148103 207.107067 
L 320.439354 205.334855 
L 323.730605 203.562643 
L 327.021856 201.790431 
L 330.313107 200.018219 
L 333.604358 198.246007 
L 336.895609 196.473795 
L 340.18686 194.701583 
L 343.47811 192.929371 
L 346.769361 191.157159 
L 350.060612 189.384947 
L 353.351863 187.612735 
L 356.643114 185.840523 
L 359.934365 184.068311 
L 363.225616 182.296099 
L 366.516867 180.523887 
L 369.808118 178.751675 
L 373.099369 176.979463 
L 376.39062 175.207251 
L 379.68187 173.435039 
L 382.973121 171.662826 
L 386.264372 169.890614 
L 389.555623 168.118402 
L 392.846874 166.34619 
L 396.138125 164.573978 
" style="fill:none;stroke:#009e73;stroke-dasharray:5.55,2.4;stroke-dashoffset:0;stroke-width:1.5;"/>
   </g>
   <g id="line2d_27">
    <path clip-path="url(#p13de2bd40a)" d="M 184.134125 128.194594 
L 186.27558 127.041503 
L 188.417034 125.888412 
L 190.558489 124.735321 
L 192.699943 123.58223 
L 194.841398 122.429139 
L 196.982852 121.276048 
L 199.124307 120.122957 
L 201.265761 118.969866 
L 203.407216 117.816776 
L 205.54867 116.663685 
L 207.690125 115.510594 
L 209.83158 114.357503 
L 211.973034 113.204412 
L 214.114489 112.051321 
L 216.255943 110.89823 
L 218.397398 109.745139 
L 220.538852 108.592048 
L 222.680307 107.438957 
L 224.821761 106.285866 
L 226.963216 105.132776 
L 229.10467 103.979685 
L 231.246125 102.826594 
L 233.38758 101.673503 
L 235.529034 100.520412 
L 237.670489 99.367321 
L 239.811943 98.21423 
L 241.953398 97.061139 
L 244.094852 95.908048 
L 246.236307 94.754957 
L 248.377761 93.601866 
L 250.519216 92.448776 
L 252.66067 91.295685 
L 254.802125 90.142594 
L 256.94358 88.989503 
L 259.085034 87.836412 
L 261.226489 86.683321 
L 263.367943 85.53023 
L 265.509398 84.377139 
L 267.650852 83.224048 
L 269.792307 82.070957 
L 271.933761 80.917866 
L 274.075216 79.764776 
L 276.21667 78.611685 
L 278.358125 77.458594 
L 280.49958 76.305503 
L 282.641034 75.152412 
L 284.782489 73.999321 
L 286.923943 72.84623 
L 289.065398 71.693139 
L 291.206852 70.540048 
L 293.348307 69.386957 
L 295.489761 68.233866 
L 297.631216 67.080776 
L 299.77267 65.927685 
L 301.914125 64.774594 
L 304.05558 63.621503 
L 306.197034 62.468412 
L 308.338489 61.315321 
L 310.479943 60.16223 
L 312.621398 59.009139 
L 314.762852 57.856048 
L 316.904307 56.702957 
L 319.045761 55.549866 
L 321.187216 54.396776 
L 323.32867 53.243685 
L 325.470125 52.090594 
L 327.61158 50.937503 
L 329.753034 49.784412 
L 331.894489 48.631321 
L 334.035943 47.47823 
L 336.177398 46.325139 
L 338.318852 45.172048 
L 340.460307 44.018957 
L 342.601761 42.865866 
L 344.743216 41.712776 
L 346.88467 40.559685 
L 349.026125 39.406594 
L 351.16758 38.253503 
L 353.309034 37.100412 
L 355.450489 35.947321 
L 357.591943 34.79423 
L 359.733398 33.641139 
L 361.874852 32.488048 
L 364.016307 31.334957 
L 366.157761 30.181866 
L 368.299216 29.028776 
L 370.44067 27.875685 
L 372.582125 26.722594 
L 374.72358 25.569503 
L 376.865034 24.416412 
L 379.006489 23.263321 
L 381.147943 22.11023 
L 383.289398 20.957139 
L 385.430852 19.804048 
L 387.572307 18.650957 
L 389.713761 17.497866 
L 391.855216 16.344776 
L 393.99667 15.191685 
L 396.138125 14.038594 
" style="fill:none;stroke:#d55e00;stroke-dasharray:5.55,2.4;stroke-dashoffset:0;stroke-width:1.5;"/>
   </g>
   <g id="line2d_28">
    <path clip-path="url(#p13de2bd40a)" d="M 281.982125 226.042594 
L 283.135216 223.901139 
L 284.288307 221.759685 
L 285.441398 219.61823 
L 286.594489 217.476776 
L 287.74758 215.335321 
L 288.90067 213.193866 
L 290.053761 211.052412 
L 291.206852 208.910957 
L 292.359943 206.769503 
L 293.513034 204.628048 
L 294.666125 202.486594 
L 295.819216 200.345139 
L 296.972307 198.203685 
L 298.125398 196.06223 
L 299.278489 193.920776 
L 300.43158 191.779321 
L 301.58467 189.637866 
L 302.737761 187.496412 
L 303.890852 185.354957 
L 305.043943 183.213503 
L 306.197034 181.072048 
L 307.350125 178.930594 
L 308.503216 176.789139 
L 309.656307 174.647685 
L 310.809398 172.50623 
L 311.962489 170.364776 
L 313.11558 168.223321 
L 314.26867 166.081866 
L 315.421761 163.940412 
L 316.574852 161.798957 
L 317.727943 159.657503 
L 318.881034 157.516048 
L 320.034125 155.374594 
L 321.187216 153.233139 
L 322.340307 151.091685 
L 323.493398 148.95023 
L 324.646489 146.808776 
L 325.79958 144.667321 
L 326.95267 142.525866 
L 328.105761 140.384412 
L 329.258852 138.242957 
L 330.411943 136.101503 
L 331.565034 133.960048 
L 332.718125 131.818594 
L 333.871216 129.677139 
L 335.024307 127.535685 
L 336.177398 125.39423 
L 337.330489 123.252776 
L 338.48358 121.111321 
L 339.63667 118.969866 
L 340.789761 116.828412 
L 341.942852 114.686957 
L 343.095943 112.545503 
L 344.249034 110.404048 
L 345.402125 108.262594 
L 346.555216 106.121139 
L 347.708307 103.979685 
L 348.861398 101.83823 
L 350.014489 99.696776 
L 351.16758 97.555321 
L 352.32067 95.413866 
L 353.473761 93.272412 
L 354.626852 91.130957 
L 355.779943 88.989503 
L 356.933034 86.848048 
L 358.086125 84.706594 
L 359.239216 82.565139 
L 360.392307 80.423685 
L 361.545398 78.28223 
L 362.698489 76.140776 
L 363.85158 73.999321 
L 365.00467 71.857866 
L 366.157761 69.716412 
L 367.310852 67.574957 
L 368.463943 65.433503 
L 369.617034 63.292048 
L 370.770125 61.150594 
L 371.923216 59.009139 
L 373.076307 56.867685 
L 374.229398 54.72623 
L 375.382489 52.584776 
L 376.53558 50.443321 
L 377.68867 48.301866 
L 378.841761 46.160412 
L 379.994852 44.018957 
L 381.147943 41.877503 
L 382.301034 39.736048 
L 383.454125 37.594594 
L 384.607216 35.453139 
L 385.760307 33.311685 
L 386.913398 31.17023 
L 388.066489 29.028776 
L 389.21958 26.887321 
L 390.37267 24.745866 
L 391.525761 22.604412 
L 392.678852 20.462957 
L 393.831943 18.321503 
L 394.985034 16.180048 
L 396.138125 14.038594 
" style="fill:none;stroke:#cc79a7;stroke-dasharray:5.55,2.4;stroke-dashoffset:0;stroke-width:1.5;"/>
   </g>
   <g id="patch_3">
    <path d="M 69.978125 340.198594 
L 69.978125 14.038594 
" style="fill:none;stroke:#000000;stroke-linecap:square;stroke-linejoin:miter;stroke-width:0.8;"/>
   </g>
   <g id="patch_4">
    <path d="M 396.138125 340.198594 
L 396.138125 14.038594 
" style="fill:none;stroke:#000000;stroke-linecap:square;stroke-linejoin:miter;stroke-width:0.8;"/>
   </g>
   <g id="patch_5">
    <path d="M 69.978125 340.198594 
L 396.138125 340.198594 
" style="fill:none;stroke:#000000;stroke-linecap:square;stroke-linejoin:miter;stroke-width:0.8;"/>
   </g>
   <g id="patch_6">
    <path d="M 69.978125 14.038594 
L 396.138125 14.038594 
" style="fill:none;stroke:#000000;stroke-linecap:square;stroke-linejoin:miter;stroke-width:0.8;"/>
   </g>
   <g id="text_15">
    <!--   $p$ = 1.0 -->
    <g transform="translate(412.446125 30.346594)scale(0.14 -0.14)">
     <defs>
      <path d="M 49.609375 33.6875 
Q 49.609375 40.875 46.484375 44.671875 
Q 43.359375 48.484375 37.5 48.484375 
Q 33.5 48.484375 29.859375 46.4375 
Q 26.21875 44.390625 23.390625 40.484375 
Q 20.609375 36.625 18.9375 31.15625 
Q 17.28125 25.6875 17.28125 20.3125 
Q 17.28125 13.484375 20.40625 9.796875 
Q 23.53125 6.109375 29.296875 6.109375 
Q 33.546875 6.109375 37.1875 8.109375 
Q 40.828125 10.109375 43.40625 13.921875 
Q 46.1875 17.921875 47.890625 23.34375 
Q 49.609375 28.765625 49.609375 33.6875 
z
M 21.78125 46.390625 
Q 25.390625 51.125 30.296875 53.5625 
Q 35.203125 56 41.21875 56 
Q 49.609375 56 54.25 50.5 
Q 58.890625 45.015625 58.890625 35.109375 
Q 58.890625 27 56 19.65625 
Q 53.125 12.3125 47.703125 6.5 
Q 44.09375 2.640625 39.546875 0.609375 
Q 35.015625 -1.421875 29.984375 -1.421875 
Q 24.171875 -1.421875 20.21875 1 
Q 16.265625 3.421875 14.3125 8.203125 
L 8.6875 -20.796875 
L -0.296875 -20.796875 
L 14.40625 54.6875 
L 23.390625 54.6875 
z
" id="DejaVuSans-Oblique-112"/>
      <path d="M 10.59375 45.40625 
L 73.1875 45.40625 
L 73.1875 37.203125 
L 10.59375 37.203125 
z
M 10.59375 25.484375 
L 73.1875 25.484375 
L 73.1875 17.1875 
L 10.59375 17.1875 
z
" id="DejaVuSans-61"/>
      <path d="M 10.6875 12.40625 
L 21 12.40625 
L 21 0 
L 10.6875 0 
z
" id="DejaVuSans-46"/>
     </defs>
     <use transform="translate(0 0.78125)" xlink:href="#DejaVuSans-32"/>
     <use transform="translate(31.787109 0.78125)" xlink:href="#DejaVuSans-32"/>
     <use transform="translate(63.574219 0.78125)" xlink:href="#DejaVuSans-Oblique-112"/>
     <use transform="translate(127.050781 0.78125)" xlink:href="#DejaVuSans-32"/>
     <use transform="translate(158.837891 0.78125)" xlink:href="#DejaVuSans-61"/>
     <use transform="translate(242.626953 0.78125)" xlink:href="#DejaVuSans-32"/>
     <use transform="translate(274.414062 0.78125)" xlink:href="#DejaVuSans-49"/>
     <use transform="translate(338.037109 0.78125)" xlink:href="#DejaVuSans-46"/>
     <use transform="translate(369.824219 0.78125)" xlink:href="#DejaVuSans-48"/>
    </g>
   </g>
   <g id="text_16">
    <!-- $(L_A,K_A)$ = (35, 65) -->
    <g transform="translate(412.446125 49.916194)scale(0.14 -0.14)">
     <defs>
      <path d="M 31 75.875 
Q 24.46875 64.65625 21.28125 53.65625 
Q 18.109375 42.671875 18.109375 31.390625 
Q 18.109375 20.125 21.3125 9.0625 
Q 24.515625 -2 31 -13.1875 
L 23.1875 -13.1875 
Q 15.875 -1.703125 12.234375 9.375 
Q 8.59375 20.453125 8.59375 31.390625 
Q 8.59375 42.28125 12.203125 53.3125 
Q 15.828125 64.359375 23.1875 75.875 
z
" id="DejaVuSans-40"/>
      <path d="M 16.796875 72.90625 
L 26.703125 72.90625 
L 14.203125 8.203125 
L 49.703125 8.203125 
L 48.09375 0 
L 2.6875 0 
z
" id="DejaVuSans-Oblique-76"/>
      <path d="M 36.8125 72.90625 
L 48 72.90625 
L 61.53125 0 
L 51.21875 0 
L 48.1875 18.703125 
L 15.375 18.703125 
L 5.078125 0 
L -5.328125 0 
z
M 40.375 63.1875 
L 19.921875 26.90625 
L 46.6875 26.90625 
z
" id="DejaVuSans-Oblique-65"/>
      <path d="M 11.71875 12.40625 
L 22.015625 12.40625 
L 22.015625 4 
L 14.015625 -11.625 
L 7.71875 -11.625 
L 11.71875 4 
z
" id="DejaVuSans-44"/>
      <path d="M 16.890625 72.90625 
L 26.8125 72.90625 
L 20.796875 42.1875 
L 59.078125 72.90625 
L 72.21875 72.90625 
L 28.90625 38.09375 
L 60.59375 0 
L 48.578125 0 
L 19.484375 35.5 
L 12.59375 0 
L 2.6875 0 
z
" id="DejaVuSans-Oblique-75"/>
      <path d="M 8.015625 75.875 
L 15.828125 75.875 
Q 23.140625 64.359375 26.78125 53.3125 
Q 30.421875 42.28125 30.421875 31.390625 
Q 30.421875 20.453125 26.78125 9.375 
Q 23.140625 -1.703125 15.828125 -13.1875 
L 8.015625 -13.1875 
Q 14.5 -2 17.703125 9.0625 
Q 20.90625 20.125 20.90625 31.390625 
Q 20.90625 42.671875 17.703125 53.65625 
Q 14.5 64.65625 8.015625 75.875 
z
" id="DejaVuSans-41"/>
      <path d="M 40.578125 39.3125 
Q 47.65625 37.796875 51.625 33 
Q 55.609375 28.21875 55.609375 21.1875 
Q 55.609375 10.40625 48.1875 4.484375 
Q 40.765625 -1.421875 27.09375 -1.421875 
Q 22.515625 -1.421875 17.65625 -0.515625 
Q 12.796875 0.390625 7.625 2.203125 
L 7.625 11.71875 
Q 11.71875 9.328125 16.59375 8.109375 
Q 21.484375 6.890625 26.8125 6.890625 
Q 36.078125 6.890625 40.9375 10.546875 
Q 45.796875 14.203125 45.796875 21.1875 
Q 45.796875 27.640625 41.28125 31.265625 
Q 36.765625 34.90625 28.71875 34.90625 
L 20.21875 34.90625 
L 20.21875 43.015625 
L 29.109375 43.015625 
Q 36.375 43.015625 40.234375 45.921875 
Q 44.09375 48.828125 44.09375 54.296875 
Q 44.09375 59.90625 40.109375 62.90625 
Q 36.140625 65.921875 28.71875 65.921875 
Q 24.65625 65.921875 20.015625 65.03125 
Q 15.375 64.15625 9.8125 62.3125 
L 9.8125 71.09375 
Q 15.4375 72.65625 20.34375 73.4375 
Q 25.25 74.21875 29.59375 74.21875 
Q 40.828125 74.21875 47.359375 69.109375 
Q 53.90625 64.015625 53.90625 55.328125 
Q 53.90625 49.265625 50.4375 45.09375 
Q 46.96875 40.921875 40.578125 39.3125 
z
" id="DejaVuSans-51"/>
      <path d="M 10.796875 72.90625 
L 49.515625 72.90625 
L 49.515625 64.59375 
L 19.828125 64.59375 
L 19.828125 46.734375 
Q 21.96875 47.46875 24.109375 47.828125 
Q 26.265625 48.1875 28.421875 48.1875 
Q 40.625 48.1875 47.75 41.5 
Q 54.890625 34.8125 54.890625 23.390625 
Q 54.890625 11.625 47.5625 5.09375 
Q 40.234375 -1.421875 26.90625 -1.421875 
Q 22.3125 -1.421875 17.546875 -0.640625 
Q 12.796875 0.140625 7.71875 1.703125 
L 7.71875 11.625 
Q 12.109375 9.234375 16.796875 8.0625 
Q 21.484375 6.890625 26.703125 6.890625 
Q 35.15625 6.890625 40.078125 11.328125 
Q 45.015625 15.765625 45.015625 23.390625 
Q 45.015625 31 40.078125 35.4375 
Q 35.15625 39.890625 26.703125 39.890625 
Q 22.75 39.890625 18.8125 39.015625 
Q 14.890625 38.140625 10.796875 36.28125 
z
" id="DejaVuSans-53"/>
     </defs>
     <use transform="translate(0 0.125)" xlink:href="#DejaVuSans-40"/>
     <use transform="translate(39.013672 0.125)" xlink:href="#DejaVuSans-Oblique-76"/>
     <use transform="translate(94.726562 -16.28125)scale(0.7)" xlink:href="#DejaVuSans-Oblique-65"/>
     <use transform="translate(145.34668 0.125)" xlink:href="#DejaVuSans-44"/>
     <use transform="translate(196.616211 0.125)" xlink:href="#DejaVuSans-Oblique-75"/>
     <use transform="translate(262.192383 -16.28125)scale(0.7)" xlink:href="#DejaVuSans-Oblique-65"/>
     <use transform="translate(312.8125 0.125)" xlink:href="#DejaVuSans-41"/>
     <use transform="translate(351.826172 0.125)" xlink:href="#DejaVuSans-32"/>
     <use transform="translate(383.613281 0.125)" xlink:href="#DejaVuSans-61"/>
     <use transform="translate(467.402344 0.125)" xlink:href="#DejaVuSans-32"/>
     <use transform="translate(499.189453 0.125)" xlink:href="#DejaVuSans-40"/>
     <use transform="translate(538.203125 0.125)" xlink:href="#DejaVuSans-51"/>
     <use transform="translate(601.826172 0.125)" xlink:href="#DejaVuSans-53"/>
     <use transform="translate(665.449219 0.125)" xlink:href="#DejaVuSans-44"/>
     <use transform="translate(697.236328 0.125)" xlink:href="#DejaVuSans-32"/>
     <use transform="translate(729.023438 0.125)" xlink:href="#DejaVuSans-54"/>
     <use transform="translate(792.646484 0.125)" xlink:href="#DejaVuSans-53"/>
     <use transform="translate(856.269531 0.125)" xlink:href="#DejaVuSans-41"/>
    </g>
   </g>
   <g id="text_17">
    <!-- $(L_M,K_M)$ = (65, 35) -->
    <g transform="translate(412.446125 69.485794)scale(0.14 -0.14)">
     <defs>
      <path d="M 16.890625 72.90625 
L 31.6875 72.90625 
L 40.1875 23.78125 
L 68.40625 72.90625 
L 83.59375 72.90625 
L 69.390625 0 
L 59.8125 0 
L 72.21875 63.921875 
L 43.609375 14.015625 
L 33.984375 14.015625 
L 24.703125 64.109375 
L 12.3125 0 
L 2.6875 0 
z
" id="DejaVuSans-Oblique-77"/>
     </defs>
     <use transform="translate(0 0.125)" xlink:href="#DejaVuSans-40"/>
     <use transform="translate(39.013672 0.125)" xlink:href="#DejaVuSans-Oblique-76"/>
     <use transform="translate(94.726562 -16.28125)scale(0.7)" xlink:href="#DejaVuSans-Oblique-77"/>
     <use transform="translate(157.856445 0.125)" xlink:href="#DejaVuSans-44"/>
     <use transform="translate(209.125977 0.125)" xlink:href="#DejaVuSans-Oblique-75"/>
     <use transform="translate(274.702148 -16.28125)scale(0.7)" xlink:href="#DejaVuSans-Oblique-77"/>
     <use transform="translate(337.832031 0.125)" xlink:href="#DejaVuSans-41"/>
     <use transform="translate(376.845703 0.125)" xlink:href="#DejaVuSans-32"/>
     <use transform="translate(408.632812 0.125)" xlink:href="#DejaVuSans-61"/>
     <use transform="translate(492.421875 0.125)" xlink:href="#DejaVuSans-32"/>
     <use transform="translate(524.208984 0.125)" xlink:href="#DejaVuSans-40"/>
     <use transform="translate(563.222656 0.125)" xlink:href="#DejaVuSans-54"/>
     <use transform="translate(626.845703 0.125)" xlink:href="#DejaVuSans-53"/>
     <use transform="translate(690.46875 0.125)" xlink:href="#DejaVuSans-44"/>
     <use transform="translate(722.255859 0.125)" xlink:href="#DejaVuSans-32"/>
     <use transform="translate(754.042969 0.125)" xlink:href="#DejaVuSans-51"/>
     <use transform="translate(817.666016 0.125)" xlink:href="#DejaVuSans-53"/>
     <use transform="translate(881.289062 0.125)" xlink:href="#DejaVuSans-41"/>
    </g>
   </g>
   <g id="text_18">
    <!-- $(Q_A, Q_M)$ = (51,51 ) -->
    <g transform="translate(412.446125 89.055394)scale(0.14 -0.14)">
     <defs>
      <path d="M 36.078125 -1.3125 
Q 35.546875 -1.375 34.953125 -1.390625 
Q 34.375 -1.421875 33.203125 -1.421875 
Q 19.53125 -1.421875 11.8125 6.421875 
Q 4.109375 14.265625 4.109375 28.078125 
Q 4.109375 36.234375 7.0625 44.4375 
Q 10.015625 52.640625 15.28125 59.1875 
Q 21.390625 66.703125 29.03125 70.453125 
Q 36.671875 74.21875 45.90625 74.21875 
Q 59.28125 74.21875 66.984375 66.328125 
Q 74.703125 58.453125 74.703125 44.828125 
Q 74.703125 30.125 66.640625 17.921875 
Q 58.59375 5.71875 45.609375 0.6875 
L 55.515625 -12.890625 
L 44.484375 -12.890625 
z
M 45.609375 66.21875 
Q 37.5 66.21875 31.296875 62.28125 
Q 25.09375 58.34375 20.515625 50.296875 
Q 17.578125 45.171875 16.03125 39.40625 
Q 14.5 33.640625 14.5 27.78125 
Q 14.5 17.625 19.359375 12.109375 
Q 24.21875 6.59375 33.109375 6.59375 
Q 41.109375 6.59375 47.375 10.5625 
Q 53.65625 14.546875 58.109375 22.40625 
Q 61.078125 27.6875 62.640625 33.46875 
Q 64.203125 39.265625 64.203125 45.015625 
Q 64.203125 55.125 59.3125 60.671875 
Q 54.4375 66.21875 45.609375 66.21875 
z
" id="DejaVuSans-Oblique-81"/>
     </defs>
     <use transform="translate(0 0.125)" xlink:href="#DejaVuSans-40"/>
     <use transform="translate(39.013672 0.125)" xlink:href="#DejaVuSans-Oblique-81"/>
     <use transform="translate(117.724609 -16.28125)scale(0.7)" xlink:href="#DejaVuSans-Oblique-65"/>
     <use transform="translate(168.344727 0.125)" xlink:href="#DejaVuSans-44"/>
     <use transform="translate(219.614258 0.125)" xlink:href="#DejaVuSans-Oblique-81"/>
     <use transform="translate(298.325195 -16.28125)scale(0.7)" xlink:href="#DejaVuSans-Oblique-77"/>
     <use transform="translate(361.455078 0.125)" xlink:href="#DejaVuSans-41"/>
     <use transform="translate(400.46875 0.125)" xlink:href="#DejaVuSans-32"/>
     <use transform="translate(432.255859 0.125)" xlink:href="#DejaVuSans-61"/>
     <use transform="translate(516.044922 0.125)" xlink:href="#DejaVuSans-32"/>
     <use transform="translate(547.832031 0.125)" xlink:href="#DejaVuSans-40"/>
     <use transform="translate(586.845703 0.125)" xlink:href="#DejaVuSans-53"/>
     <use transform="translate(650.46875 0.125)" xlink:href="#DejaVuSans-49"/>
     <use transform="translate(714.091797 0.125)" xlink:href="#DejaVuSans-44"/>
     <use transform="translate(745.878906 0.125)" xlink:href="#DejaVuSans-53"/>
     <use transform="translate(809.501953 0.125)" xlink:href="#DejaVuSans-49"/>
     <use transform="translate(873.125 0.125)" xlink:href="#DejaVuSans-32"/>
     <use transform="translate(904.912109 0.125)" xlink:href="#DejaVuSans-41"/>
    </g>
   </g>
  </g>
 </g>
 <defs>
  <clipPath id="p13de2bd40a">
   <rect height="326.16" width="326.16" x="69.978125" y="14.038594"/>
  </clipPath>
 </defs>
</svg>
